# Blender 4.4.3
# www.blender.org
mtllib cube.mtl
o Cube
v 1.681192 -0.245576 -6.104319
v 0.563872 -1.392728 -7.302498
v 0.218485 -0.245576 -4.740322
v -0.898836 -1.392728 -5.938502
v 0.898836 1.392728 -6.943293
v -0.218485 0.245576 -8.141473
v -0.563872 1.392728 -5.579297
v -1.681192 0.245576 -6.777476
vn 0.5587 0.5736 0.5991
vn -0.7314 -0.0000 0.6820
vn -0.3912 0.8192 -0.4195
vn -0.5587 -0.5736 -0.5991
vn 0.3912 -0.8192 0.4195
vn 0.7314 -0.0000 -0.6820
vt 0.875000 0.500000
vt 0.625000 0.750000
vt 0.625000 0.500000
vt 0.375000 1.000000
vt 0.375000 0.750000
vt 0.625000 0.000000
vt 0.375000 0.250000
vt 0.375000 0.000000
vt 0.375000 0.500000
vt 0.125000 0.750000
vt 0.125000 0.500000
vt 0.625000 0.250000
vt 0.875000 0.750000
vt 0.625000 1.000000
s 0
usemtl Material
f 5/1/1 3/2/1 1/3/1
f 3/2/2 8/4/2 4/5/2
f 7/6/3 6/7/3 8/8/3
f 2/9/4 8/10/4 6/11/4
f 1/3/5 4/5/5 2/9/5
f 5/12/6 2/9/6 6/7/6
f 5/1/1 7/13/1 3/2/1
f 3/2/2 7/14/2 8/4/2
f 7/6/3 5/12/3 6/7/3
f 2/9/4 4/5/4 8/10/4
f 1/3/5 3/2/5 4/5/5
f 5/12/6 1/3/6 2/9/6
