# Blender 4.4.3
# www.blender.org
mtllib uvsphere.mtl
o Sphere
v 0.000000 0.831470 -6.750547
v 0.000000 0.555570 -7.026447
v 0.000000 0.195090 -7.175762
v 0.000000 -0.000000 -7.194977
v 0.000000 -0.195090 -7.175762
v 0.000000 -0.555570 -7.026447
v 0.038060 0.980785 -6.386319
v 0.074658 0.923880 -6.570307
v 0.108386 0.831470 -6.739872
v 0.137950 0.707107 -6.888497
v 0.162212 0.555570 -7.010470
v 0.180240 0.382683 -7.101104
v 0.191342 0.195090 -7.156917
v 0.195090 -0.000000 -7.175762
v 0.191342 -0.195090 -7.156917
v 0.180240 -0.382683 -7.101104
v 0.162212 -0.555570 -7.010470
v 0.137950 -0.707107 -6.888497
v 0.108386 -0.831470 -6.739872
v 0.074658 -0.923880 -6.570307
v 0.038060 -0.980785 -6.386319
v 0.074658 0.980785 -6.375217
v 0.146447 0.923880 -6.548531
v 0.212608 0.831470 -6.708257
v 0.270598 0.707107 -6.848258
v 0.318190 0.555570 -6.963155
v 0.353553 0.382683 -7.048530
v 0.375330 0.195090 -7.101104
v 0.382683 -0.000000 -7.118856
v 0.375330 -0.195090 -7.101104
v 0.353553 -0.382683 -7.048530
v 0.318190 -0.555570 -6.963155
v 0.270598 -0.707107 -6.848258
v 0.212608 -0.831470 -6.708257
v 0.146447 -0.923880 -6.548530
v 0.074658 -0.980785 -6.375217
v 0.108386 0.980785 -6.357189
v 0.212608 0.923880 -6.513167
v 0.308658 0.831470 -6.656918
v 0.392847 0.707107 -6.782915
v 0.461940 0.555570 -6.886319
v 0.513280 0.382683 -6.963155
v 0.544895 0.195090 -7.010470
v 0.555570 -0.000000 -7.026446
v 0.544895 -0.195090 -7.010470
v 0.513280 -0.382683 -6.963155
v 0.461940 -0.555570 -6.886319
v 0.392847 -0.707107 -6.782915
v 0.308658 -0.831470 -6.656917
v 0.212608 -0.923880 -6.513167
v 0.108386 -0.980785 -6.357189
v 0.137950 0.980785 -6.332927
v 0.270598 0.923880 -6.465575
v 0.392847 0.831470 -6.587824
v 0.500000 0.707107 -6.694977
v 0.587938 0.555570 -6.782915
v 0.653281 0.382683 -6.848258
v 0.693520 0.195090 -6.888497
v 0.707107 -0.000000 -6.902084
v 0.693520 -0.195090 -6.888497
v 0.653281 -0.382683 -6.848258
v 0.587938 -0.555570 -6.782915
v 0.500000 -0.707107 -6.694977
v 0.392847 -0.831470 -6.587824
v 0.270598 -0.923880 -6.465575
v 0.137950 -0.980785 -6.332927
v 0.162212 0.980785 -6.303363
v 0.318190 0.923880 -6.407585
v 0.461940 0.831470 -6.503635
v 0.587938 0.707107 -6.587824
v 0.691342 0.555570 -6.656917
v 0.768178 0.382683 -6.708257
v 0.815493 0.195090 -6.739872
v 0.831470 -0.000000 -6.750547
v 0.815493 -0.195090 -6.739872
v 0.768178 -0.382683 -6.708257
v 0.691342 -0.555570 -6.656917
v 0.587938 -0.707107 -6.587824
v 0.461940 -0.831470 -6.503635
v 0.318190 -0.923880 -6.407585
v 0.162212 -0.980785 -6.303363
v 0.000000 1.000000 -6.194977
v 0.180240 0.980785 -6.269635
v 0.353553 0.923880 -6.341424
v 0.513280 0.831470 -6.407584
v 0.653281 0.707107 -6.465575
v 0.768178 0.555570 -6.513167
v 0.853553 0.382683 -6.548530
v 0.906127 0.195090 -6.570307
v 0.923879 -0.000000 -6.577660
v 0.906127 -0.195090 -6.570307
v 0.853553 -0.382683 -6.548530
v 0.768178 -0.555570 -6.513167
v 0.653281 -0.707107 -6.465575
v 0.513280 -0.831470 -6.407584
v 0.353553 -0.923880 -6.341424
v 0.180240 -0.980785 -6.269635
v 0.191342 0.980785 -6.233037
v 0.375330 0.923880 -6.269635
v 0.544895 0.831470 -6.303363
v 0.693520 0.707107 -6.332927
v 0.815493 0.555570 -6.357189
v 0.906127 0.382683 -6.375217
v 0.961940 0.195090 -6.386319
v 0.980785 -0.000000 -6.390067
v 0.961940 -0.195090 -6.386319
v 0.906127 -0.382683 -6.375217
v 0.815493 -0.555570 -6.357189
v 0.693520 -0.707107 -6.332927
v 0.544895 -0.831470 -6.303363
v 0.375330 -0.923880 -6.269635
v 0.191342 -0.980785 -6.233037
v 0.195090 0.980785 -6.194977
v 0.382683 0.923880 -6.194977
v 0.555570 0.831470 -6.194977
v 0.707107 0.707107 -6.194977
v 0.831469 0.555570 -6.194977
v 0.923879 0.382683 -6.194977
v 0.980785 0.195090 -6.194977
v 1.000000 0.000000 -6.194977
v 0.980785 -0.195090 -6.194977
v 0.923879 -0.382683 -6.194977
v 0.831469 -0.555570 -6.194977
v 0.707107 -0.707107 -6.194977
v 0.555570 -0.831470 -6.194977
v 0.382683 -0.923880 -6.194977
v 0.195090 -0.980785 -6.194977
v 0.191342 0.980785 -6.156918
v 0.375330 0.923880 -6.120319
v 0.544895 0.831470 -6.086591
v 0.693520 0.707107 -6.057027
v 0.815493 0.555570 -6.032765
v 0.906127 0.382683 -6.014737
v 0.961940 0.195090 -6.003635
v 0.980785 0.000000 -5.999887
v 0.961940 -0.195090 -6.003635
v 0.906127 -0.382683 -6.014737
v 0.815493 -0.555570 -6.032765
v 0.693520 -0.707107 -6.057027
v 0.544895 -0.831470 -6.086591
v 0.375330 -0.923880 -6.120319
v 0.191342 -0.980785 -6.156917
v 0.180240 0.980785 -6.120319
v 0.353553 0.923880 -6.048531
v 0.513280 0.831470 -5.982369
v 0.653281 0.707107 -5.924379
v 0.768178 0.555570 -5.876787
v 0.853553 0.382683 -5.841424
v 0.906127 0.195090 -5.819647
v 0.923879 0.000000 -5.812294
v 0.906127 -0.195090 -5.819647
v 0.853553 -0.382683 -5.841424
v 0.768178 -0.555570 -5.876787
v 0.653281 -0.707107 -5.924379
v 0.513280 -0.831470 -5.982369
v 0.353553 -0.923880 -6.048530
v 0.180240 -0.980785 -6.120319
v 0.162212 0.980785 -6.086591
v 0.318190 0.923880 -5.982369
v 0.461940 0.831470 -5.886319
v 0.587938 0.707107 -5.802130
v 0.691341 0.555570 -5.733037
v 0.768178 0.382683 -5.681697
v 0.815493 0.195090 -5.650082
v 0.831469 0.000000 -5.639407
v 0.815493 -0.195090 -5.650082
v 0.768178 -0.382683 -5.681697
v 0.691341 -0.555570 -5.733037
v 0.587938 -0.707107 -5.802130
v 0.461940 -0.831470 -5.886319
v 0.318190 -0.923880 -5.982369
v 0.162212 -0.980785 -6.086591
v 0.137950 0.980785 -6.057027
v 0.270598 0.923880 -5.924379
v 0.392847 0.831470 -5.802130
v 0.500000 0.707107 -5.694977
v 0.587938 0.555570 -5.607039
v 0.653281 0.382683 -5.541697
v 0.693520 0.195090 -5.501457
v 0.707106 0.000000 -5.487870
v 0.693520 -0.195090 -5.501457
v 0.653281 -0.382683 -5.541697
v 0.587938 -0.555570 -5.607039
v 0.500000 -0.707107 -5.694977
v 0.392847 -0.831470 -5.802130
v 0.270598 -0.923880 -5.924379
v 0.137950 -0.980785 -6.057027
v 0.108386 0.980785 -6.032765
v 0.212607 0.923880 -5.876787
v 0.308658 0.831470 -5.733037
v 0.392847 0.707107 -5.607039
v 0.461940 0.555570 -5.503635
v 0.513280 0.382683 -5.426799
v 0.544895 0.195090 -5.379484
v 0.555570 0.000000 -5.363508
v 0.544895 -0.195090 -5.379484
v 0.513280 -0.382683 -5.426799
v 0.461940 -0.555570 -5.503635
v 0.392847 -0.707107 -5.607039
v 0.308658 -0.831470 -5.733037
v 0.212607 -0.923880 -5.876787
v 0.108386 -0.980785 -6.032765
v 0.074658 0.980785 -6.014737
v 0.146447 0.923880 -5.841424
v 0.212607 0.831470 -5.681697
v 0.270598 0.707107 -5.541697
v 0.318189 0.555570 -5.426799
v 0.353553 0.382683 -5.341424
v 0.375330 0.195090 -5.288850
v 0.382683 0.000000 -5.271098
v 0.375330 -0.195090 -5.288850
v 0.353553 -0.382683 -5.341424
v 0.318189 -0.555570 -5.426799
v 0.270598 -0.707107 -5.541696
v 0.212607 -0.831470 -5.681697
v 0.146447 -0.923880 -5.841424
v 0.074658 -0.980785 -6.014737
v 0.038060 0.980785 -6.003635
v 0.074658 0.923880 -5.819647
v 0.108386 0.831470 -5.650083
v 0.137950 0.707107 -5.501457
v 0.162212 0.555570 -5.379484
v 0.180240 0.382683 -5.288850
v 0.191342 0.195090 -5.233038
v 0.195090 0.000000 -5.214192
v 0.191342 -0.195090 -5.233038
v 0.180240 -0.382683 -5.288850
v 0.162212 -0.555570 -5.379484
v 0.137950 -0.707107 -5.501457
v 0.108386 -0.831470 -5.650082
v 0.074658 -0.923880 -5.819647
v 0.038060 -0.980785 -6.003635
v 0.000000 0.980785 -5.999887
v 0.000000 0.923880 -5.812294
v 0.000000 0.831470 -5.639407
v 0.000000 0.707107 -5.487870
v 0.000000 0.555570 -5.363508
v 0.000000 0.382683 -5.271098
v 0.000000 0.195090 -5.214192
v 0.000000 0.000000 -5.194978
v 0.000000 -0.195090 -5.214192
v 0.000000 -0.382683 -5.271098
v 0.000000 -0.555570 -5.363508
v 0.000000 -0.707107 -5.487870
v 0.000000 -0.831470 -5.639407
v 0.000000 -0.923880 -5.812294
v 0.000000 -0.980785 -5.999887
v -0.038060 0.980785 -6.003635
v -0.074658 0.923880 -5.819647
v -0.108386 0.831470 -5.650083
v -0.137950 0.707107 -5.501457
v -0.162212 0.555570 -5.379484
v -0.180240 0.382683 -5.288850
v -0.191342 0.195090 -5.233038
v -0.195091 0.000000 -5.214192
v -0.191342 -0.195090 -5.233038
v -0.180240 -0.382683 -5.288850
v -0.162212 -0.555570 -5.379484
v -0.137950 -0.707107 -5.501457
v -0.108386 -0.831470 -5.650082
v -0.074658 -0.923880 -5.819647
v -0.038060 -0.980785 -6.003635
v -0.074658 0.980785 -6.014737
v -0.146447 0.923880 -5.841424
v -0.212608 0.831470 -5.681697
v -0.270598 0.707107 -5.541697
v -0.318190 0.555570 -5.426800
v -0.353553 0.382683 -5.341424
v -0.375330 0.195090 -5.288850
v -0.382683 0.000000 -5.271098
v -0.375330 -0.195090 -5.288850
v -0.353553 -0.382683 -5.341424
v -0.318190 -0.555570 -5.426800
v -0.270598 -0.707107 -5.541696
v -0.212608 -0.831470 -5.681697
v -0.146447 -0.923880 -5.841424
v -0.074658 -0.980785 -6.014737
v -0.108386 0.980785 -6.032765
v -0.212608 0.923880 -5.876787
v -0.308658 0.831470 -5.733038
v -0.392847 0.707107 -5.607039
v -0.461940 0.555570 -5.503636
v -0.513280 0.382683 -5.426799
v -0.544895 0.195090 -5.379484
v -0.555570 0.000000 -5.363508
v -0.544895 -0.195090 -5.379484
v -0.513280 -0.382683 -5.426799
v -0.461940 -0.555570 -5.503636
v -0.392847 -0.707107 -5.607039
v -0.308658 -0.831470 -5.733038
v -0.212608 -0.923880 -5.876787
v -0.108386 -0.980785 -6.032765
v -0.137950 0.980785 -6.057027
v -0.270598 0.923880 -5.924379
v -0.392847 0.831470 -5.802130
v -0.500000 0.707107 -5.694977
v -0.587938 0.555570 -5.607040
v -0.653281 0.382683 -5.541697
v -0.693520 0.195090 -5.501457
v -0.707106 0.000000 -5.487871
v -0.693520 -0.195090 -5.501457
v -0.653281 -0.382683 -5.541697
v -0.587938 -0.555570 -5.607040
v -0.500000 -0.707107 -5.694977
v -0.392847 -0.831470 -5.802130
v -0.270598 -0.923880 -5.924379
v -0.137950 -0.980785 -6.057027
v 0.000000 -1.000000 -6.194977
v -0.162212 0.980785 -6.086591
v -0.318190 0.923880 -5.982370
v -0.461940 0.831470 -5.886319
v -0.587938 0.707107 -5.802130
v -0.691341 0.555570 -5.733038
v -0.768177 0.382683 -5.681697
v -0.815493 0.195090 -5.650082
v -0.831469 0.000000 -5.639408
v -0.815493 -0.195090 -5.650082
v -0.768177 -0.382683 -5.681697
v -0.691341 -0.555570 -5.733038
v -0.587938 -0.707107 -5.802130
v -0.461940 -0.831470 -5.886319
v -0.318190 -0.923880 -5.982370
v -0.162212 -0.980785 -6.086591
v -0.180240 0.980785 -6.120319
v -0.353553 0.923880 -6.048531
v -0.513280 0.831470 -5.982370
v -0.653281 0.707107 -5.924379
v -0.768177 0.555570 -5.876788
v -0.853553 0.382683 -5.841424
v -0.906127 0.195090 -5.819647
v -0.923879 0.000000 -5.812294
v -0.906127 -0.195090 -5.819647
v -0.853553 -0.382683 -5.841424
v -0.768177 -0.555570 -5.876788
v -0.653281 -0.707107 -5.924379
v -0.513280 -0.831470 -5.982370
v -0.353553 -0.923880 -6.048530
v -0.180240 -0.980785 -6.120319
v -0.191342 0.980785 -6.156918
v -0.375330 0.923880 -6.120319
v -0.544895 0.831470 -6.086591
v -0.693520 0.707107 -6.057027
v -0.815493 0.555570 -6.032766
v -0.906127 0.382683 -6.014737
v -0.961939 0.195090 -6.003636
v -0.980784 0.000000 -5.999887
v -0.961939 -0.195090 -6.003636
v -0.906127 -0.382683 -6.014737
v -0.815493 -0.555570 -6.032766
v -0.693520 -0.707107 -6.057027
v -0.544895 -0.831470 -6.086591
v -0.375330 -0.923880 -6.120319
v -0.191342 -0.980785 -6.156917
v -0.195090 0.980785 -6.194977
v -0.382683 0.923880 -6.194977
v -0.555570 0.831470 -6.194977
v -0.707107 0.707107 -6.194977
v -0.831469 0.555570 -6.194977
v -0.923879 0.382683 -6.194977
v -0.980785 0.195090 -6.194977
v -0.999999 0.000000 -6.194977
v -0.980785 -0.195090 -6.194977
v -0.923879 -0.382683 -6.194977
v -0.831469 -0.555570 -6.194977
v -0.707107 -0.707107 -6.194977
v -0.555570 -0.831470 -6.194977
v -0.382683 -0.923880 -6.194977
v -0.195090 -0.980785 -6.194977
v -0.191342 0.980785 -6.233037
v -0.375330 0.923880 -6.269635
v -0.544895 0.831470 -6.303363
v -0.693520 0.707107 -6.332927
v -0.815493 0.555570 -6.357189
v -0.906127 0.382683 -6.375217
v -0.961939 0.195090 -6.386319
v -0.980784 -0.000000 -6.390068
v -0.961939 -0.195090 -6.386319
v -0.906127 -0.382683 -6.375217
v -0.815493 -0.555570 -6.357189
v -0.693520 -0.707107 -6.332927
v -0.544895 -0.831470 -6.303363
v -0.375330 -0.923880 -6.269635
v -0.191342 -0.980785 -6.233037
v -0.180240 0.980785 -6.269635
v -0.353553 0.923880 -6.341424
v -0.513279 0.831470 -6.407584
v -0.653281 0.707107 -6.465575
v -0.768177 0.555570 -6.513167
v -0.853553 0.382683 -6.548530
v -0.906127 0.195090 -6.570307
v -0.923878 -0.000000 -6.577660
v -0.906127 -0.195090 -6.570307
v -0.853553 -0.382683 -6.548530
v -0.768177 -0.555570 -6.513167
v -0.653281 -0.707107 -6.465575
v -0.513279 -0.831470 -6.407584
v -0.353553 -0.923880 -6.341424
v -0.180240 -0.980785 -6.269635
v -0.162212 0.980785 -6.303363
v -0.318189 0.923880 -6.407584
v -0.461939 0.831470 -6.503635
v -0.587938 0.707107 -6.587824
v -0.691341 0.555570 -6.656917
v -0.768177 0.382683 -6.708257
v -0.815493 0.195090 -6.739872
v -0.831468 -0.000000 -6.750547
v -0.815493 -0.195090 -6.739872
v -0.768177 -0.382683 -6.708257
v -0.691341 -0.555570 -6.656917
v -0.587938 -0.707107 -6.587824
v -0.461939 -0.831470 -6.503635
v -0.318189 -0.923880 -6.407584
v -0.162212 -0.980785 -6.303363
v -0.137950 0.980785 -6.332927
v -0.270598 0.923880 -6.465575
v -0.392847 0.831470 -6.587824
v -0.500000 0.707107 -6.694977
v -0.587937 0.555570 -6.782915
v -0.653281 0.382683 -6.848258
v -0.693519 0.195090 -6.888497
v -0.707106 -0.000000 -6.902083
v -0.693519 -0.195090 -6.888497
v -0.653281 -0.382683 -6.848258
v -0.587937 -0.555570 -6.782915
v -0.500000 -0.707107 -6.694977
v -0.392847 -0.831470 -6.587824
v -0.270598 -0.923880 -6.465575
v -0.137950 -0.980785 -6.332927
v -0.108386 0.980785 -6.357189
v -0.212607 0.923880 -6.513167
v -0.308658 0.831470 -6.656916
v -0.392847 0.707107 -6.782915
v -0.461939 0.555570 -6.886318
v -0.513280 0.382683 -6.963154
v -0.544895 0.195090 -7.010470
v -0.555569 -0.000000 -7.026446
v -0.544895 -0.195090 -7.010470
v -0.513280 -0.382683 -6.963154
v -0.461939 -0.555570 -6.886318
v -0.392847 -0.707107 -6.782915
v -0.308658 -0.831470 -6.656916
v -0.212607 -0.923880 -6.513167
v -0.108386 -0.980785 -6.357189
v -0.074658 0.980785 -6.375217
v -0.146446 0.923880 -6.548531
v -0.212607 0.831470 -6.708256
v -0.270598 0.707107 -6.848258
v -0.318189 0.555570 -6.963154
v -0.353553 0.382683 -7.048530
v -0.375330 0.195090 -7.101104
v -0.382683 -0.000000 -7.118856
v -0.375330 -0.195090 -7.101104
v -0.353553 -0.382683 -7.048530
v -0.318189 -0.555570 -6.963154
v -0.270598 -0.707107 -6.848258
v -0.212607 -0.831470 -6.708256
v -0.146446 -0.923880 -6.548530
v -0.074658 -0.980785 -6.375217
v -0.038060 0.980785 -6.386319
v -0.074658 0.923880 -6.570307
v -0.108386 0.831470 -6.739872
v -0.137950 0.707107 -6.888497
v -0.162211 0.555570 -7.010470
v -0.180240 0.382683 -7.101104
v -0.191341 0.195090 -7.156916
v -0.195090 -0.000000 -7.175761
v -0.191341 -0.195090 -7.156916
v -0.180240 -0.382683 -7.101104
v -0.162211 -0.555570 -7.010470
v -0.137950 -0.707107 -6.888497
v -0.108386 -0.831470 -6.739872
v -0.074658 -0.923880 -6.570307
v -0.038060 -0.980785 -6.386319
v 0.000000 0.980785 -6.390068
v 0.000000 0.923880 -6.577661
v 0.000000 0.707107 -6.902084
v 0.000000 0.382683 -7.118856
v 0.000000 -0.382683 -7.118856
v 0.000000 -0.707107 -6.902084
v 0.000000 -0.831470 -6.750547
v 0.000000 -0.923880 -6.577660
v 0.000000 -0.980785 -6.390067
vn 0.0286 -0.9566 -0.2902
vn 0.0975 0.0975 -0.9904
vn 0.0976 0.0976 -0.9904
vn 0.0097 0.9951 -0.0980
vn 0.0097 -0.9951 -0.0980
vn 0.0975 -0.0975 -0.9904
vn 0.0975 -0.0976 -0.9904
vn 0.0286 0.9566 -0.2902
vn 0.0938 -0.2890 -0.9527
vn 0.0464 0.8810 -0.4709
vn 0.0865 -0.4696 -0.8786
vn 0.0624 0.7715 -0.6332
vn 0.0759 -0.6326 -0.7708
vn 0.0759 0.6326 -0.7708
vn 0.0624 -0.7715 -0.6332
vn 0.0865 0.4696 -0.8786
vn 0.0464 -0.8810 -0.4709
vn 0.0938 0.2890 -0.9527
vn 0.1374 -0.8810 -0.4528
vn 0.2779 0.2890 -0.9161
vn 0.0846 -0.9566 -0.2790
vn 0.2889 0.0975 -0.9524
vn 0.0286 0.9951 -0.0942
vn 0.0286 -0.9951 -0.0942
vn 0.2889 -0.0975 -0.9524
vn 0.0846 0.9566 -0.2790
vn 0.2779 -0.2890 -0.9161
vn 0.1374 0.8810 -0.4528
vn 0.2563 -0.4696 -0.8449
vn 0.2563 -0.4696 -0.8448
vn 0.1847 0.7715 -0.6088
vn 0.2248 -0.6326 -0.7412
vn 0.2248 0.6326 -0.7412
vn 0.1847 -0.7715 -0.6088
vn 0.2563 0.4696 -0.8449
vn 0.2563 0.4696 -0.8448
vn 0.2230 0.8810 -0.4173
vn 0.2231 0.8810 -0.4173
vn 0.4162 -0.4696 -0.7786
vn 0.2999 0.7715 -0.5611
vn 0.3651 -0.6326 -0.6831
vn 0.3651 0.6326 -0.6831
vn 0.2999 -0.7715 -0.5611
vn 0.4162 0.4696 -0.7786
vn 0.2230 -0.8810 -0.4173
vn 0.4513 0.2890 -0.8443
vn 0.1374 -0.9566 -0.2571
vn 0.4691 0.0975 -0.8777
vn 0.0464 0.9951 -0.0869
vn 0.0464 -0.9951 -0.0869
vn 0.4691 -0.0975 -0.8777
vn 0.1374 0.9566 -0.2571
vn 0.4513 -0.2890 -0.8443
vn 0.6073 0.2890 -0.7400
vn 0.1850 -0.9565 -0.2254
vn 0.1850 -0.9566 -0.2254
vn 0.6314 0.0975 -0.7693
vn 0.6314 0.0976 -0.7693
vn 0.0625 0.9951 -0.0761
vn 0.0625 -0.9951 -0.0761
vn 0.6314 -0.0975 -0.7693
vn 0.1850 0.9565 -0.2254
vn 0.1850 0.9566 -0.2254
vn 0.6073 -0.2890 -0.7400
vn 0.3002 0.8810 -0.3658
vn 0.5601 -0.4696 -0.6825
vn 0.4036 0.7715 -0.4918
vn 0.4913 -0.6326 -0.5987
vn 0.4913 0.6326 -0.5987
vn 0.4036 -0.7715 -0.4918
vn 0.5601 0.4696 -0.6825
vn 0.3002 -0.8810 -0.3658
vn 0.6825 -0.4696 -0.5601
vn 0.4918 0.7715 -0.4036
vn 0.5987 -0.6326 -0.4913
vn 0.5987 0.6326 -0.4913
vn 0.4918 -0.7715 -0.4036
vn 0.6825 0.4696 -0.5601
vn 0.3658 -0.8810 -0.3002
vn 0.7400 0.2890 -0.6073
vn 0.2254 -0.9566 -0.1850
vn 0.7693 0.0976 -0.6314
vn 0.0761 0.9951 -0.0625
vn 0.0761 -0.9951 -0.0625
vn 0.7693 -0.0976 -0.6314
vn 0.2254 0.9566 -0.1850
vn 0.7400 -0.2890 -0.6073
vn 0.3658 0.8810 -0.3002
vn 0.2571 -0.9566 -0.1374
vn 0.8777 0.0976 -0.4691
vn 0.8777 0.0975 -0.4691
vn 0.0869 0.9951 -0.0464
vn 0.0869 -0.9951 -0.0464
vn 0.8777 -0.0976 -0.4691
vn 0.2571 0.9566 -0.1374
vn 0.8443 -0.2890 -0.4513
vn 0.4173 0.8810 -0.2230
vn 0.4173 0.8810 -0.2231
vn 0.7786 -0.4696 -0.4162
vn 0.5611 0.7715 -0.2999
vn 0.6831 -0.6326 -0.3651
vn 0.6831 0.6326 -0.3651
vn 0.5611 -0.7715 -0.2999
vn 0.7786 0.4696 -0.4162
vn 0.4173 -0.8810 -0.2230
vn 0.8443 0.2890 -0.4513
vn 0.7412 -0.6326 -0.2248
vn 0.7412 0.6326 -0.2248
vn 0.6088 -0.7715 -0.1847
vn 0.8448 0.4696 -0.2563
vn 0.4528 -0.8810 -0.1374
vn 0.9161 0.2890 -0.2779
vn 0.2790 -0.9566 -0.0846
vn 0.9524 0.0975 -0.2889
vn 0.0942 0.9951 -0.0286
vn 0.0942 -0.9951 -0.0286
vn 0.9524 -0.0975 -0.2889
vn 0.2790 0.9566 -0.0846
vn 0.9161 -0.2890 -0.2779
vn 0.4528 0.8810 -0.1374
vn 0.8448 -0.4696 -0.2563
vn 0.6088 0.7715 -0.1847
vn 0.0980 0.9951 -0.0097
vn 0.0980 -0.9951 -0.0097
vn 0.9904 -0.0975 -0.0975
vn 0.2902 0.9566 -0.0286
vn 0.9527 -0.2890 -0.0938
vn 0.4709 0.8810 -0.0464
vn 0.8786 -0.4696 -0.0865
vn 0.6332 0.7715 -0.0624
vn 0.7708 -0.6326 -0.0759
vn 0.7708 0.6326 -0.0759
vn 0.6332 -0.7715 -0.0624
vn 0.8786 0.4696 -0.0865
vn 0.4709 -0.8810 -0.0464
vn 0.9527 0.2890 -0.0938
vn 0.2902 -0.9566 -0.0286
vn 0.9904 0.0975 -0.0975
vn 0.9904 0.0976 -0.0976
vn 0.7708 0.6326 0.0759
vn 0.6332 -0.7715 0.0624
vn 0.8786 0.4696 0.0865
vn 0.4709 -0.8810 0.0464
vn 0.9527 0.2890 0.0938
vn 0.2902 -0.9566 0.0286
vn 0.9904 0.0975 0.0975
vn 0.9904 0.0975 0.0976
vn 0.0980 0.9951 0.0096
vn 0.0980 -0.9951 0.0097
vn 0.9904 -0.0975 0.0975
vn 0.9904 -0.0976 0.0975
vn 0.2902 0.9566 0.0286
vn 0.9527 -0.2890 0.0938
vn 0.4709 0.8810 0.0464
vn 0.8786 -0.4696 0.0865
vn 0.6332 0.7715 0.0624
vn 0.7708 -0.6326 0.0759
vn 0.9524 -0.0975 0.2889
vn 0.2790 0.9566 0.0846
vn 0.9161 -0.2890 0.2779
vn 0.4528 0.8810 0.1374
vn 0.8448 -0.4696 0.2563
vn 0.8449 -0.4696 0.2563
vn 0.6088 0.7715 0.1847
vn 0.7412 -0.6326 0.2248
vn 0.7412 0.6326 0.2248
vn 0.6088 -0.7715 0.1847
vn 0.8448 0.4696 0.2563
vn 0.4528 -0.8810 0.1374
vn 0.9161 0.2890 0.2779
vn 0.2790 -0.9566 0.0846
vn 0.9524 0.0975 0.2889
vn 0.0942 0.9951 0.0286
vn 0.0942 -0.9951 0.0286
vn 0.5611 -0.7715 0.2999
vn 0.7786 0.4696 0.4162
vn 0.4173 -0.8810 0.2230
vn 0.8443 0.2890 0.4513
vn 0.2571 -0.9566 0.1374
vn 0.8777 0.0975 0.4691
vn 0.0869 0.9951 0.0464
vn 0.0869 -0.9951 0.0464
vn 0.8777 -0.0975 0.4691
vn 0.2571 0.9566 0.1374
vn 0.8443 -0.2890 0.4513
vn 0.4173 0.8810 0.2230
vn 0.4173 0.8810 0.2231
vn 0.7786 -0.4696 0.4162
vn 0.5611 0.7715 0.2999
vn 0.6831 -0.6326 0.3651
vn 0.6831 0.6326 0.3651
vn 0.2254 0.9566 0.1850
vn 0.7400 -0.2890 0.6073
vn 0.3658 0.8810 0.3002
vn 0.6825 -0.4696 0.5601
vn 0.4918 0.7715 0.4036
vn 0.5987 -0.6326 0.4913
vn 0.5987 0.6326 0.4913
vn 0.4918 -0.7715 0.4036
vn 0.6825 0.4696 0.5601
vn 0.3658 -0.8810 0.3002
vn 0.7400 0.2890 0.6073
vn 0.2254 -0.9566 0.1850
vn 0.7693 0.0975 0.6314
vn 0.0761 0.9951 0.0625
vn 0.0761 -0.9951 0.0625
vn 0.7693 -0.0975 0.6314
vn 0.5601 0.4696 0.6825
vn 0.3002 -0.8810 0.3658
vn 0.6073 0.2890 0.7400
vn 0.1850 -0.9566 0.2254
vn 0.1850 -0.9565 0.2254
vn 0.6314 0.0975 0.7693
vn 0.0625 0.9951 0.0761
vn 0.0625 -0.9951 0.0761
vn 0.6314 -0.0975 0.7693
vn 0.1850 0.9566 0.2254
vn 0.1850 0.9565 0.2254
vn 0.6073 -0.2890 0.7400
vn 0.3002 0.8810 0.3658
vn 0.5601 -0.4696 0.6825
vn 0.4036 0.7715 0.4918
vn 0.4913 -0.6326 0.5987
vn 0.4913 0.6326 0.5987
vn 0.4036 -0.7715 0.4918
vn 0.4513 -0.2890 0.8443
vn 0.2230 0.8810 0.4173
vn 0.4162 -0.4696 0.7786
vn 0.2999 0.7715 0.5611
vn 0.3651 -0.6326 0.6831
vn 0.3651 0.6326 0.6831
vn 0.2999 -0.7715 0.5611
vn 0.4162 0.4696 0.7786
vn 0.2230 -0.8810 0.4173
vn 0.4513 0.2890 0.8443
vn 0.1374 -0.9566 0.2571
vn 0.4691 0.0975 0.8777
vn 0.0464 0.9951 0.0869
vn 0.0464 -0.9951 0.0869
vn 0.4691 -0.0975 0.8777
vn 0.1374 0.9566 0.2571
vn 0.1374 -0.8810 0.4528
vn 0.2779 0.2890 0.9161
vn 0.0846 -0.9566 0.2790
vn 0.2889 0.0976 0.9524
vn 0.0286 0.9951 0.0942
vn 0.0286 -0.9951 0.0942
vn 0.2889 -0.0976 0.9524
vn 0.2889 -0.0975 0.9524
vn 0.0846 0.9566 0.2790
vn 0.2779 -0.2890 0.9161
vn 0.1374 0.8810 0.4528
vn 0.2563 -0.4696 0.8448
vn 0.1847 0.7715 0.6088
vn 0.2248 -0.6326 0.7412
vn 0.2248 0.6326 0.7412
vn 0.1847 -0.7715 0.6088
vn 0.2563 0.4696 0.8448
vn 0.0865 -0.4696 0.8786
vn 0.0624 0.7715 0.6332
vn 0.0759 -0.6326 0.7708
vn 0.0759 0.6326 0.7708
vn 0.0624 -0.7715 0.6332
vn 0.0865 0.4696 0.8786
vn 0.0464 -0.8810 0.4709
vn 0.0938 0.2890 0.9527
vn 0.0286 -0.9566 0.2902
vn 0.0975 0.0975 0.9904
vn 0.0097 0.9951 0.0980
vn 0.0097 -0.9951 0.0980
vn 0.0975 -0.0975 0.9904
vn 0.0976 -0.0976 0.9904
vn 0.0286 0.9566 0.2902
vn 0.0938 -0.2890 0.9527
vn 0.0464 0.8810 0.4709
vn -0.0286 -0.9566 0.2902
vn -0.0975 0.0975 0.9904
vn -0.0975 0.0976 0.9904
vn -0.0097 0.9951 0.0980
vn -0.0097 -0.9951 0.0980
vn -0.0975 -0.0975 0.9904
vn -0.0976 -0.0975 0.9904
vn -0.0286 0.9566 0.2902
vn -0.0938 -0.2890 0.9527
vn -0.0464 0.8810 0.4709
vn -0.0865 -0.4696 0.8786
vn -0.0624 0.7715 0.6332
vn -0.0759 -0.6326 0.7708
vn -0.0759 0.6326 0.7708
vn -0.0624 -0.7715 0.6332
vn -0.0865 0.4696 0.8786
vn -0.0464 -0.8810 0.4709
vn -0.0938 0.2890 0.9527
vn -0.1847 0.7715 0.6088
vn -0.2248 -0.6326 0.7412
vn -0.2248 0.6326 0.7412
vn -0.1847 -0.7715 0.6088
vn -0.2563 0.4696 0.8448
vn -0.1374 -0.8810 0.4528
vn -0.2779 0.2890 0.9161
vn -0.0846 -0.9566 0.2790
vn -0.2889 0.0976 0.9524
vn -0.2889 0.0975 0.9524
vn -0.0286 0.9951 0.0942
vn -0.0286 -0.9951 0.0942
vn -0.2889 -0.0976 0.9524
vn -0.0846 0.9566 0.2790
vn -0.2779 -0.2890 0.9161
vn -0.1374 0.8810 0.4528
vn -0.2563 -0.4696 0.8448
vn -0.4691 0.0975 0.8777
vn -0.0464 0.9951 0.0869
vn -0.0464 -0.9951 0.0869
vn -0.4691 -0.0975 0.8777
vn -0.1374 0.9566 0.2571
vn -0.4513 -0.2890 0.8443
vn -0.2230 0.8810 0.4173
vn -0.2231 0.8810 0.4173
vn -0.4162 -0.4696 0.7786
vn -0.2999 0.7715 0.5611
vn -0.3651 -0.6326 0.6831
vn -0.3651 0.6326 0.6831
vn -0.2999 -0.7715 0.5611
vn -0.4162 0.4696 0.7786
vn -0.2231 -0.8810 0.4173
vn -0.2230 -0.8810 0.4173
vn -0.4513 0.2890 0.8443
vn -0.1374 -0.9566 0.2571
vn -0.4913 -0.6326 0.5987
vn -0.4913 0.6326 0.5987
vn -0.4036 -0.7715 0.4918
vn -0.5601 0.4696 0.6825
vn -0.3002 -0.8810 0.3658
vn -0.6073 0.2890 0.7400
vn -0.1850 -0.9565 0.2254
vn -0.1850 -0.9566 0.2254
vn -0.6314 0.0975 0.7693
vn -0.0625 0.9951 0.0761
vn -0.0625 -0.9951 0.0761
vn -0.6314 -0.0975 0.7693
vn -0.1850 0.9565 0.2254
vn -0.1850 0.9566 0.2254
vn -0.6073 -0.2890 0.7400
vn -0.3002 0.8810 0.3658
vn -0.5601 -0.4696 0.6825
vn -0.4036 0.7715 0.4918
vn -0.0761 0.9951 0.0625
vn -0.0761 -0.9951 0.0625
vn -0.7693 -0.0975 0.6314
vn -0.2254 0.9566 0.1850
vn -0.7400 -0.2890 0.6073
vn -0.3658 0.8810 0.3002
vn -0.6825 -0.4696 0.5601
vn -0.4918 0.7715 0.4036
vn -0.5987 -0.6326 0.4913
vn -0.5987 0.6326 0.4913
vn -0.4918 -0.7715 0.4036
vn -0.6825 0.4696 0.5601
vn -0.3658 -0.8810 0.3002
vn -0.7400 0.2890 0.6073
vn -0.2254 -0.9566 0.1850
vn -0.7693 0.0975 0.6314
vn -0.6831 0.6326 0.3651
vn -0.5611 -0.7715 0.2999
vn -0.7786 0.4696 0.4162
vn -0.4173 -0.8810 0.2230
vn -0.8443 0.2890 0.4513
vn -0.2571 -0.9566 0.1374
vn -0.8777 0.0975 0.4691
vn -0.8777 0.0975 0.4692
vn -0.0869 0.9951 0.0464
vn -0.0869 -0.9951 0.0464
vn -0.8777 -0.0975 0.4691
vn -0.2571 0.9566 0.1374
vn -0.8443 -0.2890 0.4513
vn -0.4173 0.8810 0.2230
vn -0.7786 -0.4696 0.4162
vn -0.5611 0.7715 0.2999
vn -0.6831 -0.6326 0.3651
vn -0.9524 -0.0975 0.2889
vn -0.2790 0.9566 0.0846
vn -0.9161 -0.2890 0.2779
vn -0.4528 0.8810 0.1374
vn -0.8448 -0.4696 0.2563
vn -0.6088 0.7715 0.1847
vn -0.7412 -0.6326 0.2248
vn -0.7412 0.6326 0.2248
vn -0.6088 -0.7715 0.1847
vn -0.8448 0.4696 0.2563
vn -0.4528 -0.8810 0.1374
vn -0.9161 0.2890 0.2779
vn -0.2790 -0.9566 0.0846
vn -0.9524 0.0975 0.2889
vn -0.0942 0.9951 0.0286
vn -0.0942 -0.9951 0.0286
vn -0.6332 -0.7715 0.0624
vn -0.8786 0.4696 0.0865
vn -0.4709 -0.8810 0.0464
vn -0.9527 0.2890 0.0938
vn -0.2902 -0.9566 0.0286
vn -0.9904 0.0975 0.0976
vn -0.0980 0.9951 0.0096
vn -0.0980 -0.9951 0.0097
vn -0.9904 -0.0975 0.0976
vn -0.2902 0.9566 0.0286
vn -0.9527 -0.2890 0.0938
vn -0.4709 0.8810 0.0464
vn -0.8786 -0.4696 0.0865
vn -0.6332 0.7715 0.0624
vn -0.7708 -0.6326 0.0759
vn -0.7708 0.6326 0.0759
vn -0.9527 -0.2890 -0.0938
vn -0.4709 0.8810 -0.0464
vn -0.8786 -0.4696 -0.0865
vn -0.6332 0.7715 -0.0624
vn -0.7708 -0.6326 -0.0759
vn -0.7708 0.6326 -0.0759
vn -0.6332 -0.7715 -0.0624
vn -0.8786 0.4696 -0.0865
vn -0.4709 -0.8810 -0.0464
vn -0.9527 0.2890 -0.0938
vn -0.2902 -0.9566 -0.0286
vn -0.9904 0.0975 -0.0976
vn -0.0980 0.9951 -0.0097
vn -0.0980 -0.9951 -0.0097
vn -0.9904 -0.0975 -0.0976
vn -0.2902 0.9566 -0.0286
vn -0.4528 -0.8810 -0.1374
vn -0.9161 0.2890 -0.2779
vn -0.2790 -0.9566 -0.0846
vn -0.9524 0.0975 -0.2889
vn -0.0942 0.9951 -0.0286
vn -0.0942 -0.9951 -0.0286
vn -0.9524 -0.0975 -0.2889
vn -0.2790 0.9566 -0.0846
vn -0.9161 -0.2890 -0.2779
vn -0.4528 0.8810 -0.1374
vn -0.8448 -0.4696 -0.2563
vn -0.6088 0.7715 -0.1847
vn -0.7412 -0.6326 -0.2248
vn -0.7412 0.6326 -0.2248
vn -0.6088 -0.7715 -0.1847
vn -0.8448 0.4696 -0.2563
vn -0.4173 0.8810 -0.2230
vn -0.4173 0.8810 -0.2231
vn -0.7786 -0.4696 -0.4162
vn -0.5611 0.7715 -0.2999
vn -0.6831 -0.6326 -0.3651
vn -0.6831 0.6326 -0.3651
vn -0.5611 -0.7715 -0.2999
vn -0.7786 0.4696 -0.4162
vn -0.4173 -0.8810 -0.2230
vn -0.4173 -0.8810 -0.2231
vn -0.8443 0.2890 -0.4513
vn -0.2571 -0.9566 -0.1374
vn -0.8777 0.0975 -0.4691
vn -0.0869 0.9951 -0.0464
vn -0.0869 -0.9951 -0.0464
vn -0.8777 -0.0975 -0.4691
vn -0.2571 0.9566 -0.1374
vn -0.8443 -0.2890 -0.4513
vn -0.7400 0.2890 -0.6073
vn -0.2254 -0.9566 -0.1850
vn -0.7693 0.0975 -0.6314
vn -0.0761 0.9951 -0.0625
vn -0.0761 -0.9951 -0.0625
vn -0.7693 -0.0975 -0.6314
vn -0.2254 0.9566 -0.1850
vn -0.7400 -0.2890 -0.6073
vn -0.3658 0.8810 -0.3002
vn -0.6825 -0.4696 -0.5601
vn -0.4918 0.7715 -0.4036
vn -0.5987 -0.6326 -0.4913
vn -0.5987 0.6326 -0.4913
vn -0.4918 -0.7715 -0.4036
vn -0.6825 0.4696 -0.5601
vn -0.3658 -0.8810 -0.3002
vn -0.5601 -0.4696 -0.6825
vn -0.4036 0.7715 -0.4918
vn -0.4913 -0.6326 -0.5987
vn -0.4913 0.6326 -0.5987
vn -0.4036 -0.7715 -0.4918
vn -0.5601 0.4696 -0.6825
vn -0.3002 -0.8810 -0.3658
vn -0.6073 0.2890 -0.7400
vn -0.1850 -0.9566 -0.2254
vn -0.6314 0.0975 -0.7693
vn -0.0625 0.9951 -0.0761
vn -0.0625 -0.9951 -0.0761
vn -0.6314 -0.0975 -0.7693
vn -0.1850 0.9566 -0.2254
vn -0.6073 -0.2890 -0.7400
vn -0.3002 0.8810 -0.3658
vn -0.1374 -0.9566 -0.2571
vn -0.4691 0.0975 -0.8777
vn -0.4692 0.0975 -0.8777
vn -0.0464 0.9951 -0.0869
vn -0.0464 -0.9951 -0.0869
vn -0.4691 -0.0975 -0.8777
vn -0.1374 0.9566 -0.2571
vn -0.4513 -0.2890 -0.8443
vn -0.2230 0.8810 -0.4173
vn -0.4162 -0.4696 -0.7786
vn -0.2999 0.7715 -0.5611
vn -0.3651 -0.6326 -0.6831
vn -0.3651 0.6326 -0.6831
vn -0.2999 -0.7715 -0.5611
vn -0.4162 0.4696 -0.7786
vn -0.2230 -0.8810 -0.4173
vn -0.4513 0.2890 -0.8443
vn -0.1847 0.7715 -0.6088
vn -0.2248 -0.6326 -0.7412
vn -0.2248 0.6326 -0.7412
vn -0.1847 -0.7715 -0.6088
vn -0.2563 0.4696 -0.8448
vn -0.1374 -0.8810 -0.4528
vn -0.2779 0.2890 -0.9161
vn -0.0846 -0.9566 -0.2790
vn -0.2889 0.0975 -0.9524
vn -0.0286 0.9951 -0.0942
vn -0.0286 -0.9951 -0.0942
vn -0.2889 -0.0975 -0.9524
vn -0.0846 0.9566 -0.2790
vn -0.2779 -0.2890 -0.9161
vn -0.1374 0.8810 -0.4528
vn -0.2563 -0.4696 -0.8448
vn -0.0976 0.0975 -0.9904
vn -0.0976 0.0976 -0.9904
vn -0.0097 0.9951 -0.0980
vn -0.0097 -0.9951 -0.0980
vn -0.0976 -0.0975 -0.9904
vn -0.0286 0.9566 -0.2902
vn -0.0938 -0.2890 -0.9527
vn -0.0464 0.8810 -0.4709
vn -0.0865 -0.4696 -0.8786
vn -0.0624 0.7715 -0.6332
vn -0.0759 -0.6326 -0.7708
vn -0.0759 0.6326 -0.7708
vn -0.0624 -0.7715 -0.6332
vn -0.0865 0.4696 -0.8786
vn -0.0464 -0.8810 -0.4709
vn -0.0938 0.2890 -0.9527
vn -0.0286 -0.9566 -0.2902
vn 0.0976 -0.0975 -0.9904
vn 0.2231 -0.8810 -0.4173
vn 0.6314 -0.0976 -0.7693
vn 0.8777 -0.0975 -0.4691
vn 0.9904 -0.0976 -0.0976
vn 0.9904 0.0976 0.0975
vn 0.9904 -0.0975 0.0976
vn 0.8449 0.4696 0.2563
vn 0.4173 -0.8810 0.2231
vn 0.2889 0.0975 0.9524
vn 0.0976 0.0976 0.9904
vn 0.0286 0.9565 0.2902
vn -0.0976 0.0975 0.9904
vn -0.0975 -0.0976 0.9904
vn -0.2889 -0.0975 0.9524
vn -0.8777 -0.0975 0.4692
vn -0.4692 -0.0975 -0.8777
vn -0.1374 0.9565 -0.2571
vn -0.0976 -0.0976 -0.9904
vt 0.750000 0.125000
vt 0.718750 0.062500
vt 0.750000 0.062500
vt 0.750000 0.562500
vt 0.718750 0.500000
vt 0.750000 0.500000
vt 0.750000 0.937500
vt 0.734375 1.000000
vt 0.718750 0.937500
vt 0.734375 0.000000
vt 0.718750 0.437500
vt 0.750000 0.437500
vt 0.750000 0.875000
vt 0.718750 0.875000
vt 0.718750 0.375000
vt 0.750000 0.375000
vt 0.750000 0.812500
vt 0.718750 0.812500
vt 0.718750 0.312500
vt 0.750000 0.312500
vt 0.750000 0.750000
vt 0.718750 0.750000
vt 0.750000 0.250000
vt 0.718750 0.250000
vt 0.718750 0.687500
vt 0.750000 0.687500
vt 0.718750 0.187500
vt 0.750000 0.187500
vt 0.750000 0.625000
vt 0.718750 0.625000
vt 0.718750 0.125000
vt 0.718750 0.562500
vt 0.687500 0.187500
vt 0.687500 0.125000
vt 0.687500 0.625000
vt 0.687500 0.562500
vt 0.687500 0.062500
vt 0.687500 0.500000
vt 0.703125 1.000000
vt 0.687500 0.937500
vt 0.703125 0.000000
vt 0.687500 0.437500
vt 0.687500 0.875000
vt 0.687500 0.375000
vt 0.687500 0.812500
vt 0.687500 0.312500
vt 0.687500 0.750000
vt 0.687500 0.250000
vt 0.687500 0.687500
vt 0.656250 0.812500
vt 0.656250 0.375000
vt 0.656250 0.312500
vt 0.656250 0.750000
vt 0.656250 0.250000
vt 0.656250 0.687500
vt 0.656250 0.187500
vt 0.656250 0.625000
vt 0.656250 0.125000
vt 0.656250 0.562500
vt 0.656250 0.062500
vt 0.656250 0.500000
vt 0.671875 1.000000
vt 0.656250 0.937500
vt 0.671875 0.000000
vt 0.656250 0.437500
vt 0.656250 0.875000
vt 0.625000 0.625000
vt 0.625000 0.562500
vt 0.625000 0.125000
vt 0.625000 0.062500
vt 0.625000 0.500000
vt 0.640625 1.000000
vt 0.625000 0.937500
vt 0.640625 0.000000
vt 0.625000 0.437500
vt 0.625000 0.875000
vt 0.625000 0.375000
vt 0.625000 0.812500
vt 0.625000 0.312500
vt 0.625000 0.750000
vt 0.625000 0.250000
vt 0.625000 0.687500
vt 0.625000 0.187500
vt 0.593750 0.375000
vt 0.593750 0.312500
vt 0.593750 0.750000
vt 0.593750 0.250000
vt 0.593750 0.687500
vt 0.593750 0.187500
vt 0.593750 0.625000
vt 0.593750 0.125000
vt 0.593750 0.562500
vt 0.593750 0.062500
vt 0.593750 0.500000
vt 0.609375 1.000000
vt 0.593750 0.937500
vt 0.609375 0.000000
vt 0.593750 0.437500
vt 0.593750 0.875000
vt 0.593750 0.812500
vt 0.562500 0.125000
vt 0.562500 0.062500
vt 0.562500 0.562500
vt 0.562500 0.500000
vt 0.578125 1.000000
vt 0.562500 0.937500
vt 0.578125 0.000000
vt 0.562500 0.437500
vt 0.562500 0.875000
vt 0.562500 0.375000
vt 0.562500 0.812500
vt 0.562500 0.312500
vt 0.562500 0.750000
vt 0.562500 0.250000
vt 0.562500 0.687500
vt 0.562500 0.187500
vt 0.562500 0.625000
vt 0.531250 0.250000
vt 0.531250 0.750000
vt 0.531250 0.687500
vt 0.531250 0.187500
vt 0.531250 0.625000
vt 0.531250 0.125000
vt 0.531250 0.562500
vt 0.531250 0.062500
vt 0.531250 0.500000
vt 0.546875 1.000000
vt 0.531250 0.937500
vt 0.546875 0.000000
vt 0.531250 0.437500
vt 0.531250 0.875000
vt 0.531250 0.375000
vt 0.531250 0.812500
vt 0.531250 0.312500
vt 0.515625 1.000000
vt 0.500000 0.937500
vt 0.515625 0.000000
vt 0.500000 0.062500
vt 0.500000 0.437500
vt 0.500000 0.875000
vt 0.500000 0.375000
vt 0.500000 0.812500
vt 0.500000 0.312500
vt 0.500000 0.750000
vt 0.500000 0.250000
vt 0.500000 0.687500
vt 0.500000 0.187500
vt 0.500000 0.625000
vt 0.500000 0.125000
vt 0.500000 0.562500
vt 0.500000 0.500000
vt 0.468750 0.750000
vt 0.468750 0.687500
vt 0.468750 0.250000
vt 0.468750 0.187500
vt 0.468750 0.625000
vt 0.468750 0.125000
vt 0.468750 0.562500
vt 0.468750 0.062500
vt 0.468750 0.500000
vt 0.484375 1.000000
vt 0.468750 0.937500
vt 0.484375 0.000000
vt 0.468750 0.437500
vt 0.468750 0.875000
vt 0.468750 0.375000
vt 0.468750 0.812500
vt 0.468750 0.312500
vt 0.437500 0.437500
vt 0.437500 0.875000
vt 0.437500 0.375000
vt 0.437500 0.812500
vt 0.437500 0.312500
vt 0.437500 0.750000
vt 0.437500 0.250000
vt 0.437500 0.687500
vt 0.437500 0.187500
vt 0.437500 0.625000
vt 0.437500 0.125000
vt 0.437500 0.562500
vt 0.437500 0.062500
vt 0.437500 0.500000
vt 0.453125 1.000000
vt 0.437500 0.937500
vt 0.453125 0.000000
vt 0.406250 0.250000
vt 0.406250 0.187500
vt 0.406250 0.625000
vt 0.406250 0.125000
vt 0.406250 0.562500
vt 0.406250 0.062500
vt 0.406250 0.500000
vt 0.421875 1.000000
vt 0.406250 0.937500
vt 0.421875 0.000000
vt 0.406250 0.437500
vt 0.406250 0.875000
vt 0.406250 0.375000
vt 0.406250 0.812500
vt 0.406250 0.312500
vt 0.406250 0.750000
vt 0.406250 0.687500
vt 0.375000 0.875000
vt 0.375000 0.375000
vt 0.375000 0.812500
vt 0.375000 0.312500
vt 0.375000 0.750000
vt 0.375000 0.250000
vt 0.375000 0.687500
vt 0.375000 0.187500
vt 0.375000 0.625000
vt 0.375000 0.125000
vt 0.375000 0.562500
vt 0.375000 0.062500
vt 0.375000 0.500000
vt 0.390625 1.000000
vt 0.375000 0.937500
vt 0.390625 0.000000
vt 0.375000 0.437500
vt 0.343750 0.625000
vt 0.343750 0.125000
vt 0.343750 0.562500
vt 0.343750 0.062500
vt 0.343750 0.500000
vt 0.359375 1.000000
vt 0.343750 0.937500
vt 0.359375 0.000000
vt 0.343750 0.437500
vt 0.343750 0.875000
vt 0.343750 0.375000
vt 0.343750 0.812500
vt 0.343750 0.312500
vt 0.343750 0.750000
vt 0.343750 0.250000
vt 0.343750 0.687500
vt 0.343750 0.187500
vt 0.312500 0.375000
vt 0.312500 0.812500
vt 0.312500 0.312500
vt 0.312500 0.750000
vt 0.312500 0.250000
vt 0.312500 0.687500
vt 0.312500 0.187500
vt 0.312500 0.625000
vt 0.312500 0.125000
vt 0.312500 0.562500
vt 0.312500 0.062500
vt 0.312500 0.500000
vt 0.328125 1.000000
vt 0.312500 0.937500
vt 0.328125 0.000000
vt 0.312500 0.437500
vt 0.312500 0.875000
vt 0.281250 0.187500
vt 0.281250 0.125000
vt 0.281250 0.625000
vt 0.281250 0.562500
vt 0.281250 0.062500
vt 0.281250 0.500000
vt 0.296875 1.000000
vt 0.281250 0.937500
vt 0.296875 0.000000
vt 0.281250 0.437500
vt 0.281250 0.875000
vt 0.281250 0.375000
vt 0.281250 0.812500
vt 0.281250 0.312500
vt 0.281250 0.750000
vt 0.281250 0.250000
vt 0.281250 0.687500
vt 0.250000 0.375000
vt 0.250000 0.312500
vt 0.250000 0.750000
vt 0.250000 0.250000
vt 0.250000 0.687500
vt 0.250000 0.187500
vt 0.250000 0.625000
vt 0.250000 0.125000
vt 0.250000 0.562500
vt 0.250000 0.062500
vt 0.250000 0.500000
vt 0.265625 1.000000
vt 0.250000 0.937500
vt 0.265625 0.000000
vt 0.250000 0.437500
vt 0.250000 0.875000
vt 0.250000 0.812500
vt 0.218750 0.062500
vt 0.218750 0.562500
vt 0.218750 0.500000
vt 0.234375 1.000000
vt 0.218750 0.937500
vt 0.234375 0.000000
vt 0.218750 0.437500
vt 0.218750 0.875000
vt 0.218750 0.375000
vt 0.218750 0.812500
vt 0.218750 0.312500
vt 0.218750 0.750000
vt 0.218750 0.250000
vt 0.218750 0.687500
vt 0.218750 0.187500
vt 0.218750 0.625000
vt 0.218750 0.125000
vt 0.187500 0.750000
vt 0.187500 0.250000
vt 0.187500 0.687500
vt 0.187500 0.187500
vt 0.187500 0.625000
vt 0.187500 0.125000
vt 0.187500 0.562500
vt 0.187500 0.062500
vt 0.187500 0.500000
vt 0.203125 1.000000
vt 0.187500 0.937500
vt 0.203125 0.000000
vt 0.187500 0.437500
vt 0.187500 0.875000
vt 0.187500 0.375000
vt 0.187500 0.812500
vt 0.187500 0.312500
vt 0.156250 0.562500
vt 0.156250 0.500000
vt 0.171875 1.000000
vt 0.156250 0.937500
vt 0.171875 0.000000
vt 0.156250 0.062500
vt 0.156250 0.437500
vt 0.156250 0.875000
vt 0.156250 0.375000
vt 0.156250 0.812500
vt 0.156250 0.312500
vt 0.156250 0.750000
vt 0.156250 0.250000
vt 0.156250 0.687500
vt 0.156250 0.187500
vt 0.156250 0.625000
vt 0.156250 0.125000
vt 0.125000 0.250000
vt 0.125000 0.750000
vt 0.125000 0.687500
vt 0.125000 0.187500
vt 0.125000 0.625000
vt 0.125000 0.125000
vt 0.125000 0.562500
vt 0.125000 0.062500
vt 0.125000 0.500000
vt 0.140625 1.000000
vt 0.125000 0.937500
vt 0.140625 0.000000
vt 0.125000 0.437500
vt 0.125000 0.875000
vt 0.125000 0.375000
vt 0.125000 0.812500
vt 0.125000 0.312500
vt 0.109375 1.000000
vt 0.093750 0.937500
vt 0.109375 0.000000
vt 0.093750 0.062500
vt 0.093750 0.437500
vt 0.093750 0.875000
vt 0.093750 0.375000
vt 0.093750 0.812500
vt 0.093750 0.312500
vt 0.093750 0.750000
vt 0.093750 0.250000
vt 0.093750 0.687500
vt 0.093750 0.187500
vt 0.093750 0.625000
vt 0.093750 0.125000
vt 0.093750 0.562500
vt 0.093750 0.500000
vt 0.062500 0.750000
vt 0.062500 0.687500
vt 0.062500 0.250000
vt 0.062500 0.187500
vt 0.062500 0.625000
vt 0.062500 0.125000
vt 0.062500 0.562500
vt 0.062500 0.062500
vt 0.062500 0.500000
vt 0.078125 1.000000
vt 0.062500 0.937500
vt 0.078125 0.000000
vt 0.062500 0.437500
vt 0.062500 0.875000
vt 0.062500 0.375000
vt 0.062500 0.812500
vt 0.062500 0.312500
vt 0.031250 0.437500
vt 0.031250 0.875000
vt 0.031250 0.375000
vt 0.031250 0.812500
vt 0.031250 0.312500
vt 0.031250 0.750000
vt 0.031250 0.250000
vt 0.031250 0.687500
vt 0.031250 0.187500
vt 0.031250 0.625000
vt 0.031250 0.125000
vt 0.031250 0.562500
vt 0.031250 0.062500
vt 0.031250 0.500000
vt 0.046875 1.000000
vt 0.031250 0.937500
vt 0.046875 0.000000
vt 0.000000 0.250000
vt 0.000000 0.187500
vt 0.000000 0.625000
vt 0.000000 0.125000
vt 0.000000 0.562500
vt 0.000000 0.062500
vt 0.000000 0.500000
vt 0.015625 1.000000
vt 0.000000 0.937500
vt 0.015625 0.000000
vt 0.000000 0.437500
vt 0.000000 0.875000
vt 0.000000 0.375000
vt 0.000000 0.812500
vt 0.000000 0.312500
vt 0.000000 0.750000
vt 0.000000 0.687500
vt 1.000000 0.437500
vt 0.968750 0.375000
vt 1.000000 0.375000
vt 1.000000 0.812500
vt 0.968750 0.875000
vt 0.968750 0.812500
vt 1.000000 0.312500
vt 0.968750 0.312500
vt 0.968750 0.750000
vt 1.000000 0.750000
vt 0.968750 0.250000
vt 1.000000 0.250000
vt 1.000000 0.687500
vt 0.968750 0.687500
vt 1.000000 0.187500
vt 0.968750 0.187500
vt 0.968750 0.625000
vt 1.000000 0.625000
vt 0.968750 0.125000
vt 1.000000 0.125000
vt 1.000000 0.562500
vt 0.968750 0.562500
vt 0.968750 0.062500
vt 1.000000 0.062500
vt 1.000000 0.500000
vt 0.968750 0.500000
vt 1.000000 0.937500
vt 0.984375 1.000000
vt 0.968750 0.937500
vt 0.984375 0.000000
vt 0.968750 0.437500
vt 1.000000 0.875000
vt 0.937500 0.125000
vt 0.937500 0.625000
vt 0.937500 0.562500
vt 0.937500 0.062500
vt 0.937500 0.500000
vt 0.953125 1.000000
vt 0.937500 0.937500
vt 0.953125 0.000000
vt 0.937500 0.437500
vt 0.937500 0.875000
vt 0.937500 0.375000
vt 0.937500 0.812500
vt 0.937500 0.312500
vt 0.937500 0.750000
vt 0.937500 0.250000
vt 0.937500 0.687500
vt 0.937500 0.187500
vt 0.906250 0.875000
vt 0.906250 0.812500
vt 0.906250 0.375000
vt 0.906250 0.312500
vt 0.906250 0.750000
vt 0.906250 0.250000
vt 0.906250 0.687500
vt 0.906250 0.187500
vt 0.906250 0.625000
vt 0.906250 0.125000
vt 0.906250 0.562500
vt 0.906250 0.062500
vt 0.906250 0.500000
vt 0.921875 1.000000
vt 0.906250 0.937500
vt 0.921875 0.000000
vt 0.906250 0.437500
vt 0.875000 0.625000
vt 0.875000 0.562500
vt 0.875000 0.062500
vt 0.875000 0.500000
vt 0.890625 1.000000
vt 0.875000 0.937500
vt 0.890625 0.000000
vt 0.875000 0.437500
vt 0.875000 0.875000
vt 0.875000 0.375000
vt 0.875000 0.812500
vt 0.875000 0.312500
vt 0.875000 0.750000
vt 0.875000 0.250000
vt 0.875000 0.687500
vt 0.875000 0.187500
vt 0.875000 0.125000
vt 0.843750 0.375000
vt 0.843750 0.312500
vt 0.843750 0.750000
vt 0.843750 0.250000
vt 0.843750 0.687500
vt 0.843750 0.187500
vt 0.843750 0.625000
vt 0.843750 0.125000
vt 0.843750 0.562500
vt 0.843750 0.062500
vt 0.843750 0.500000
vt 0.859375 1.000000
vt 0.843750 0.937500
vt 0.859375 0.000000
vt 0.843750 0.437500
vt 0.843750 0.875000
vt 0.843750 0.812500
vt 0.812500 0.062500
vt 0.812500 0.562500
vt 0.812500 0.500000
vt 0.828125 1.000000
vt 0.812500 0.937500
vt 0.828125 0.000000
vt 0.812500 0.437500
vt 0.812500 0.875000
vt 0.812500 0.375000
vt 0.812500 0.812500
vt 0.812500 0.312500
vt 0.812500 0.750000
vt 0.812500 0.250000
vt 0.812500 0.687500
vt 0.812500 0.187500
vt 0.812500 0.625000
vt 0.812500 0.125000
vt 0.781250 0.750000
vt 0.781250 0.250000
vt 0.781250 0.687500
vt 0.781250 0.187500
vt 0.781250 0.625000
vt 0.781250 0.125000
vt 0.781250 0.562500
vt 0.781250 0.062500
vt 0.781250 0.500000
vt 0.796875 1.000000
vt 0.781250 0.937500
vt 0.796875 0.000000
vt 0.781250 0.437500
vt 0.781250 0.875000
vt 0.781250 0.375000
vt 0.781250 0.812500
vt 0.781250 0.312500
vt 0.765625 1.000000
vt 0.765625 0.000000
s 1
f 481/1/1 21/2/1 482/3/1
f 3/4/2 14/5/2 4/6/3
f 474/7/4 82/8/4 7/9/4
f 308/10/5 482/3/5 21/2/5
f 4/6/6 15/11/6 5/12/7
f 475/13/8 7/9/8 8/14/8
f 5/12/9 16/15/9 478/16/9
f 1/17/10 8/14/10 9/18/10
f 478/16/11 17/19/11 6/20/11
f 476/21/12 9/18/12 10/22/12
f 479/23/13 17/19/13 18/24/13
f 476/21/14 11/25/14 2/26/14
f 479/23/15 19/27/15 480/28/15
f 477/29/16 11/25/16 12/30/16
f 480/28/17 20/31/17 481/1/17
f 3/4/18 12/30/18 13/32/18
f 20/31/19 34/33/19 35/34/19
f 13/32/20 27/35/20 28/36/20
f 20/31/21 36/37/21 21/2/21
f 13/32/22 29/38/22 14/5/22
f 7/9/23 82/39/23 22/40/23
f 308/41/24 21/2/24 36/37/24
f 14/5/25 30/42/25 15/11/25
f 7/9/26 23/43/26 8/14/26
f 15/11/27 31/44/27 16/15/27
f 8/14/28 24/45/28 9/18/28
f 17/19/29 31/44/30 32/46/29
f 9/18/31 25/47/31 10/22/31
f 18/24/32 32/46/32 33/48/32
f 10/22/33 26/49/33 11/25/33
f 19/27/34 33/48/34 34/33/34
f 11/25/35 27/35/36 12/30/36
f 23/43/37 39/50/37 24/45/38
f 32/46/39 46/51/39 47/52/39
f 24/45/40 40/53/40 25/47/40
f 33/48/41 47/52/41 48/54/41
f 25/47/42 41/55/42 26/49/42
f 34/33/43 48/54/43 49/56/43
f 26/49/44 42/57/44 27/35/44
f 35/34/45 49/56/45 50/58/45
f 28/36/46 42/57/46 43/59/46
f 36/37/47 50/58/47 51/60/47
f 29/38/48 43/59/48 44/61/48
f 22/40/49 82/62/49 37/63/49
f 308/64/50 36/37/50 51/60/50
f 29/38/51 45/65/51 30/42/51
f 22/40/52 38/66/52 23/43/52
f 30/42/53 46/51/53 31/44/53
f 43/59/54 57/67/54 58/68/54
f 51/60/55 65/69/56 66/70/55
f 44/61/57 58/68/57 59/71/58
f 37/63/59 82/72/59 52/73/59
f 308/74/60 51/60/60 66/70/60
f 44/61/61 60/75/61 45/65/61
f 37/63/62 53/76/63 38/66/63
f 45/65/64 61/77/64 46/51/64
f 38/66/65 54/78/65 39/50/65
f 47/52/66 61/77/66 62/79/66
f 39/50/67 55/80/67 40/53/67
f 47/52/68 63/81/68 48/54/68
f 41/55/69 55/80/69 56/82/69
f 49/56/70 63/81/70 64/83/70
f 41/55/71 57/67/71 42/57/71
f 50/58/72 64/83/72 65/69/72
f 62/79/73 76/84/73 77/85/73
f 54/78/74 70/86/74 55/80/74
f 62/79/75 78/87/75 63/81/75
f 56/82/76 70/86/76 71/88/76
f 64/83/77 78/87/77 79/89/77
f 56/82/78 72/90/78 57/67/78
f 64/83/79 80/91/79 65/69/79
f 58/68/80 72/90/80 73/92/80
f 65/69/81 81/93/81 66/70/81
f 59/71/82 73/92/82 74/94/82
f 52/73/83 82/95/83 67/96/83
f 308/97/84 66/70/84 81/93/84
f 59/71/85 75/98/85 60/75/85
f 53/76/86 67/96/86 68/99/86
f 60/75/87 76/84/87 61/77/87
f 54/78/88 68/99/88 69/100/88
f 81/93/89 96/101/89 97/102/89
f 74/94/90 89/103/90 90/104/91
f 67/96/92 82/105/92 83/106/92
f 308/107/93 81/93/93 97/102/93
f 74/94/94 91/108/94 75/98/94
f 67/96/95 84/109/95 68/99/95
f 75/98/96 92/110/96 76/84/96
f 68/99/97 85/111/97 69/100/98
f 77/85/99 92/110/99 93/112/99
f 69/100/100 86/113/100 70/86/100
f 77/85/101 94/114/101 78/87/101
f 71/88/102 86/113/102 87/115/102
f 79/89/103 94/114/103 95/116/103
f 71/88/104 88/117/104 72/90/104
f 80/91/105 95/116/105 96/101/105
f 73/92/106 88/117/106 89/103/106
f 93/112/107 109/118/107 94/114/107
f 87/115/108 101/119/108 102/120/108
f 95/116/109 109/118/109 110/121/109
f 87/115/110 103/122/110 88/117/110
f 95/116/111 111/123/111 96/101/111
f 89/103/112 103/122/112 104/124/112
f 96/101/113 112/125/113 97/102/113
f 90/104/114 104/124/114 105/126/114
f 83/106/115 82/127/115 98/128/115
f 308/129/116 97/102/116 112/125/116
f 90/104/117 106/130/117 91/108/117
f 83/106/118 99/131/118 84/109/118
f 91/108/119 107/132/119 92/110/119
f 85/111/120 99/131/120 100/133/120
f 93/112/121 107/132/121 108/134/121
f 85/111/122 101/119/122 86/113/122
f 98/128/123 82/135/123 113/136/123
f 308/137/124 112/125/124 127/138/124
f 105/126/125 121/139/125 106/130/125
f 98/128/126 114/140/126 99/131/126
f 106/130/127 122/141/127 107/132/127
f 99/131/128 115/142/128 100/133/128
f 108/134/129 122/141/129 123/143/129
f 100/133/130 116/144/130 101/119/130
f 108/134/131 124/145/131 109/118/131
f 102/120/132 116/144/132 117/146/132
f 110/121/133 124/145/133 125/147/133
f 102/120/134 118/148/134 103/122/134
f 111/123/135 125/147/135 126/149/135
f 104/124/136 118/148/136 119/150/136
f 111/123/137 127/138/137 112/125/137
f 105/126/138 119/150/138 120/151/139
f 117/146/140 131/152/140 132/153/140
f 125/147/141 139/154/141 140/155/141
f 117/146/142 133/156/142 118/148/142
f 125/147/143 141/157/143 126/149/143
f 119/150/144 133/156/144 134/158/144
f 126/149/145 142/159/145 127/138/145
f 120/151/146 134/158/146 135/160/147
f 113/136/148 82/161/148 128/162/148
f 308/163/149 127/138/149 142/159/149
f 120/151/150 136/164/150 121/139/151
f 114/140/152 128/162/152 129/165/152
f 121/139/153 137/166/153 122/141/153
f 115/142/154 129/165/154 130/167/154
f 123/143/155 137/166/155 138/168/155
f 115/142/156 131/152/156 116/144/156
f 123/143/157 139/154/157 124/145/157
f 135/160/158 151/169/158 136/164/158
f 128/162/159 144/170/159 129/165/159
f 136/164/160 152/171/160 137/166/160
f 129/165/161 145/172/161 130/167/161
f 138/168/162 152/171/162 153/173/163
f 130/167/164 146/174/164 131/152/164
f 138/168/165 154/175/165 139/154/165
f 132/153/166 146/174/166 147/176/166
f 140/155/167 154/175/167 155/177/167
f 132/153/168 148/178/168 133/156/168
f 141/157/169 155/177/169 156/179/169
f 134/158/170 148/178/170 149/180/170
f 141/157/171 157/181/171 142/159/171
f 135/160/172 149/180/172 150/182/172
f 128/162/173 82/183/173 143/184/173
f 308/185/174 142/159/174 157/181/174
f 155/177/175 169/186/175 170/187/175
f 147/176/176 163/188/176 148/178/176
f 156/179/177 170/187/177 171/189/177
f 149/180/178 163/188/178 164/190/178
f 157/181/179 171/189/179 172/191/179
f 150/182/180 164/190/180 165/192/180
f 143/184/181 82/193/181 158/194/181
f 308/195/182 157/181/182 172/191/182
f 150/182/183 166/196/183 151/169/183
f 143/184/184 159/197/184 144/170/184
f 151/169/185 167/198/185 152/171/185
f 144/170/186 160/199/186 145/172/187
f 153/173/188 167/198/188 168/200/188
f 145/172/189 161/201/189 146/174/189
f 153/173/190 169/186/190 154/175/190
f 147/176/191 161/201/191 162/202/191
f 158/194/192 174/203/192 159/197/192
f 166/196/193 182/204/193 167/198/193
f 159/197/194 175/205/194 160/199/194
f 168/200/195 182/204/195 183/206/195
f 160/199/196 176/207/196 161/201/196
f 168/200/197 184/208/197 169/186/197
f 162/202/198 176/207/198 177/209/198
f 170/187/199 184/208/199 185/210/199
f 162/202/200 178/211/200 163/188/200
f 171/189/201 185/210/201 186/212/201
f 164/190/202 178/211/202 179/213/202
f 172/191/203 186/212/203 187/214/203
f 165/192/204 179/213/204 180/215/204
f 158/194/205 82/216/205 173/217/205
f 308/218/206 172/191/206 187/214/206
f 165/192/207 181/219/207 166/196/207
f 177/209/208 193/220/208 178/211/208
f 185/210/209 201/221/209 186/212/209
f 179/213/210 193/220/210 194/222/210
f 186/212/211 202/223/212 187/214/212
f 180/215/213 194/222/213 195/224/213
f 173/217/214 82/225/214 188/226/214
f 308/227/215 187/214/215 202/223/215
f 180/215/216 196/228/216 181/219/216
f 174/203/217 188/226/218 189/229/217
f 181/219/219 197/230/219 182/204/219
f 175/205/220 189/229/220 190/231/220
f 183/206/221 197/230/221 198/232/221
f 175/205/222 191/233/222 176/207/222
f 183/206/223 199/234/223 184/208/223
f 177/209/224 191/233/224 192/235/224
f 185/210/225 199/234/225 200/236/225
f 196/228/226 212/237/226 197/230/226
f 189/229/227 205/238/227 190/231/227
f 198/232/228 212/237/228 213/239/228
f 190/231/229 206/240/229 191/233/229
f 198/232/230 214/241/230 199/234/230
f 192/235/231 206/240/231 207/242/231
f 200/236/232 214/241/232 215/243/232
f 192/235/233 208/244/233 193/220/233
f 201/221/234 215/243/234 216/245/234
f 194/222/235 208/244/235 209/246/235
f 202/223/236 216/245/236 217/247/236
f 195/224/237 209/246/237 210/248/237
f 188/226/238 82/249/238 203/250/238
f 308/251/239 202/223/239 217/247/239
f 195/224/240 211/252/240 196/228/240
f 188/226/241 204/253/241 189/229/241
f 216/245/242 230/254/242 231/255/242
f 209/246/243 223/256/243 224/257/243
f 217/247/244 231/255/244 232/258/244
f 210/248/245 224/257/245 225/259/245
f 203/250/246 82/260/246 218/261/246
f 308/262/247 217/247/247 232/258/247
f 210/248/248 226/263/248 211/252/249
f 203/250/250 219/264/250 204/253/250
f 211/252/251 227/265/251 212/237/251
f 204/253/252 220/266/252 205/238/252
f 213/239/253 227/265/253 228/267/253
f 205/238/254 221/268/254 206/240/254
f 213/239/255 229/269/255 214/241/255
f 207/242/256 221/268/256 222/270/256
f 215/243/257 229/269/257 230/254/257
f 207/242/258 223/256/258 208/244/258
f 228/267/259 242/271/259 243/272/259
f 220/266/260 236/273/260 221/268/260
f 228/267/261 244/274/261 229/269/261
f 222/270/262 236/273/262 237/275/262
f 230/254/263 244/274/263 245/276/263
f 222/270/264 238/277/264 223/256/264
f 231/255/265 245/276/265 246/278/265
f 224/257/266 238/277/266 239/279/266
f 231/255/267 247/280/267 232/258/267
f 225/259/268 239/279/268 240/281/268
f 218/261/269 82/282/269 233/283/269
f 308/284/270 232/258/270 247/280/270
f 225/259/271 241/285/271 226/263/272
f 219/264/273 233/283/273 234/286/273
f 226/263/274 242/271/274 227/265/274
f 219/264/275 235/287/275 220/266/275
f 246/278/276 262/288/276 247/280/276
f 240/281/277 254/289/277 255/290/278
f 233/283/279 82/291/279 248/292/279
f 308/293/280 247/280/280 262/288/280
f 240/281/281 256/294/281 241/285/282
f 234/286/283 248/292/283 249/295/283
f 241/285/284 257/296/284 242/271/284
f 235/287/285 249/295/285 250/297/285
f 243/272/286 257/296/286 258/298/286
f 235/287/287 251/299/287 236/273/287
f 243/272/288 259/300/288 244/274/288
f 237/275/289 251/299/289 252/301/289
f 245/276/290 259/300/290 260/302/290
f 237/275/291 253/303/291 238/277/291
f 245/276/292 261/304/292 246/278/292
f 239/279/293 253/303/293 254/289/293
f 250/297/294 266/305/294 251/299/294
f 258/298/295 274/306/295 259/300/295
f 252/301/296 266/305/296 267/307/296
f 260/302/297 274/306/297 275/308/297
f 252/301/298 268/309/298 253/303/298
f 261/304/299 275/308/299 276/310/299
f 254/289/300 268/309/300 269/311/300
f 261/304/301 277/312/301 262/288/301
f 255/290/302 269/311/302 270/313/303
f 248/292/304 82/314/304 263/315/304
f 308/316/305 262/288/305 277/312/305
f 255/290/306 271/317/306 256/294/306
f 249/295/307 263/315/307 264/318/307
f 256/294/308 272/319/308 257/296/308
f 249/295/309 265/320/309 250/297/309
f 258/298/310 272/319/310 273/321/310
f 270/313/311 284/322/311 285/323/311
f 263/315/312 82/324/312 278/325/312
f 308/326/313 277/312/313 292/327/313
f 270/313/314 286/328/314 271/317/314
f 263/315/315 279/329/315 264/318/315
f 271/317/316 287/330/316 272/319/316
f 264/318/317 280/331/318 265/320/318
f 273/321/319 287/330/319 288/332/319
f 265/320/320 281/333/320 266/305/320
f 273/321/321 289/334/321 274/306/321
f 267/307/322 281/333/322 282/335/322
f 275/308/323 289/334/323 290/336/323
f 267/307/324 283/337/324 268/309/324
f 275/308/325 291/338/326 276/310/326
f 269/311/327 283/337/327 284/322/327
f 276/310/328 292/327/328 277/312/328
f 288/332/329 304/339/329 289/334/329
f 282/335/330 296/340/330 297/341/330
f 290/336/331 304/339/331 305/342/331
f 282/335/332 298/343/332 283/337/332
f 290/336/333 306/344/333 291/338/333
f 284/322/334 298/343/334 299/345/334
f 292/327/335 306/344/336 307/346/335
f 285/323/337 299/345/337 300/347/337
f 278/325/338 82/348/338 293/349/338
f 308/350/339 292/327/339 307/346/339
f 285/323/340 301/351/340 286/328/340
f 278/325/341 294/352/342 279/329/342
f 286/328/343 302/353/343 287/330/343
f 280/331/344 294/352/344 295/354/344
f 288/332/345 302/353/345 303/355/345
f 280/331/346 296/340/346 281/333/346
f 293/349/347 82/356/347 309/357/347
f 308/358/348 307/346/348 323/359/348
f 300/347/349 317/360/349 301/351/349
f 294/352/350 309/357/350 310/361/350
f 301/351/351 318/362/351 302/353/351
f 295/354/352 310/361/352 311/363/352
f 303/355/353 318/362/353 319/364/353
f 295/354/354 312/365/354 296/340/354
f 303/355/355 320/366/355 304/339/355
f 297/341/356 312/365/356 313/367/356
f 305/342/357 320/366/357 321/368/357
f 297/341/358 314/369/358 298/343/358
f 305/342/359 322/370/359 306/344/359
f 299/345/360 314/369/360 315/371/360
f 306/344/361 323/359/361 307/346/361
f 300/347/362 315/371/362 316/372/362
f 313/367/363 327/373/363 328/374/363
f 321/368/364 335/375/364 336/376/364
f 313/367/365 329/377/365 314/369/365
f 321/368/366 337/378/366 322/370/366
f 315/371/367 329/377/367 330/379/367
f 323/359/368 337/378/368 338/380/368
f 316/372/369 330/379/369 331/381/370
f 309/357/371 82/382/371 324/383/371
f 308/384/372 323/359/372 338/380/372
f 316/372/373 332/385/373 317/360/373
f 309/357/374 325/386/374 310/361/374
f 317/360/375 333/387/375 318/362/375
f 310/361/376 326/388/376 311/363/376
f 319/364/377 333/387/377 334/389/377
f 311/363/378 327/373/378 312/365/378
f 319/364/379 335/375/379 320/366/379
f 331/381/380 347/390/380 332/385/380
f 324/383/381 340/391/381 325/386/381
f 332/385/382 348/392/382 333/387/382
f 326/388/383 340/391/383 341/393/383
f 334/389/384 348/392/384 349/394/384
f 326/388/385 342/395/385 327/373/385
f 334/389/386 350/396/386 335/375/386
f 328/374/387 342/395/387 343/397/387
f 336/376/388 350/396/388 351/398/388
f 328/374/389 344/399/389 329/377/389
f 336/376/390 352/400/390 337/378/390
f 330/379/391 344/399/391 345/401/391
f 338/380/392 352/400/392 353/402/392
f 331/381/393 345/401/393 346/403/393
f 324/383/394 82/404/394 339/405/394
f 308/406/395 338/380/395 353/402/395
f 351/398/396 365/407/396 366/408/396
f 343/397/397 359/409/397 344/399/397
f 351/398/398 367/410/398 352/400/398
f 345/401/399 359/409/399 360/411/399
f 353/402/400 367/410/400 368/412/400
f 346/403/401 360/411/401 361/413/401
f 339/405/402 82/414/402 354/415/402
f 308/416/403 353/402/403 368/412/403
f 346/403/404 362/417/404 347/390/404
f 339/405/405 355/418/405 340/391/405
f 347/390/406 363/419/406 348/392/406
f 341/393/407 355/418/407 356/420/407
f 349/394/408 363/419/408 364/421/408
f 341/393/409 357/422/409 342/395/409
f 349/394/410 365/407/410 350/396/410
f 343/397/411 357/422/411 358/423/411
f 362/424/412 378/425/412 363/426/412
f 356/427/413 370/428/413 371/429/413
f 364/430/414 378/425/414 379/431/414
f 356/427/415 372/432/415 357/433/415
f 364/430/416 380/434/416 365/435/416
f 358/436/417 372/432/417 373/437/417
f 366/438/418 380/434/418 381/439/418
f 358/436/419 374/440/419 359/441/419
f 366/438/420 382/442/420 367/443/420
f 360/444/421 374/440/421 375/445/421
f 367/443/422 383/446/422 368/447/422
f 361/448/423 375/445/423 376/449/423
f 354/450/424 82/451/424 369/452/424
f 308/453/425 368/447/425 383/446/425
f 361/448/426 377/454/426 362/424/426
f 355/455/427 369/452/427 370/428/427
f 381/439/428 397/456/428 382/442/428
f 375/445/429 389/457/429 390/458/429
f 382/442/430 398/459/430 383/446/430
f 376/449/431 390/458/431 391/460/431
f 369/452/432 82/461/432 384/462/432
f 308/463/433 383/446/433 398/459/433
f 376/449/434 392/464/434 377/454/434
f 370/428/435 384/462/435 385/465/435
f 377/454/436 393/466/436 378/425/436
f 371/429/437 385/465/437 386/467/437
f 379/431/438 393/466/438 394/468/438
f 371/429/439 387/469/439 372/432/439
f 379/431/440 395/470/440 380/434/440
f 373/437/441 387/469/441 388/471/441
f 381/439/442 395/470/442 396/472/442
f 373/437/443 389/457/443 374/440/443
f 386/467/444 400/473/445 401/474/444
f 394/468/446 408/475/446 409/476/446
f 386/467/447 402/477/447 387/469/447
f 394/468/448 410/478/448 395/470/448
f 388/471/449 402/477/449 403/479/449
f 396/472/450 410/478/450 411/480/450
f 388/471/451 404/481/451 389/457/451
f 396/472/452 412/482/453 397/456/453
f 390/458/454 404/481/454 405/483/454
f 398/459/455 412/482/455 413/484/455
f 391/460/456 405/483/456 406/485/456
f 384/462/457 82/486/457 399/487/457
f 308/488/458 398/459/458 413/484/458
f 391/460/459 407/489/459 392/464/459
f 384/462/460 400/473/460 385/465/460
f 392/464/461 408/475/461 393/466/461
f 405/483/462 419/490/462 420/491/462
f 412/482/463 428/492/463 413/484/463
f 406/485/464 420/491/464 421/493/464
f 399/487/465 82/494/465 414/495/465
f 308/496/466 413/484/466 428/492/466
f 406/485/467 422/497/467 407/489/467
f 399/487/468 415/498/468 400/473/468
f 407/489/469 423/499/469 408/475/469
f 401/474/470 415/498/470 416/500/470
f 409/476/471 423/499/471 424/501/471
f 401/474/472 417/502/472 402/477/472
f 409/476/473 425/503/473 410/478/473
f 403/479/474 417/502/474 418/504/474
f 411/480/475 425/503/475 426/505/475
f 403/479/476 419/490/476 404/481/476
f 411/480/477 427/506/477 412/482/477
f 424/501/478 438/507/478 439/508/478
f 416/500/479 432/509/479 417/502/479
f 424/501/480 440/510/480 425/503/480
f 418/504/481 432/509/481 433/511/481
f 426/505/482 440/510/482 441/512/482
f 418/504/483 434/513/483 419/490/483
f 426/505/484 442/514/484 427/506/484
f 420/491/485 434/513/485 435/515/485
f 428/492/486 442/514/486 443/516/486
f 421/493/487 435/515/487 436/517/487
f 414/495/488 82/518/488 429/519/488
f 308/520/489 428/492/489 443/516/489
f 421/493/490 437/521/490 422/497/490
f 414/495/491 430/522/491 415/498/491
f 422/497/492 438/507/492 423/499/492
f 416/500/493 430/522/493 431/523/493
f 442/514/494 458/524/494 443/516/494
f 436/517/495 450/525/495 451/526/496
f 429/519/497 82/527/497 444/528/497
f 308/529/498 443/516/498 458/524/498
f 436/517/499 452/530/499 437/521/499
f 430/522/500 444/528/500 445/531/500
f 437/521/501 453/532/501 438/507/501
f 431/523/502 445/531/502 446/533/502
f 439/508/503 453/532/503 454/534/503
f 431/523/504 447/535/504 432/509/504
f 439/508/505 455/536/505 440/510/505
f 433/511/506 447/535/506 448/537/506
f 441/512/507 455/536/507 456/538/507
f 433/511/508 449/539/508 434/513/508
f 441/512/509 457/540/509 442/514/509
f 435/515/510 449/539/510 450/525/510
f 446/533/511 462/541/511 447/535/511
f 454/534/512 470/542/512 455/536/512
f 448/537/513 462/541/513 463/543/513
f 456/538/514 470/542/514 471/544/514
f 448/537/515 464/545/515 449/539/515
f 456/538/516 472/546/516 457/540/516
f 450/525/517 464/545/517 465/547/517
f 458/524/518 472/546/518 473/548/518
f 451/526/519 465/547/519 466/549/519
f 444/528/520 82/550/520 459/551/520
f 308/552/521 458/524/521 473/548/521
f 451/526/522 467/553/522 452/530/522
f 444/528/523 460/554/523 445/531/523
f 452/530/524 468/555/524 453/532/524
f 446/533/525 460/554/525 461/556/525
f 454/534/526 468/555/526 469/557/526
f 466/549/527 3/4/527 4/6/528
f 459/551/529 82/558/529 474/7/529
f 308/559/530 473/548/530 482/3/530
f 466/549/531 5/12/531 467/553/531
f 459/551/532 475/13/532 460/554/532
f 467/553/533 478/16/533 468/555/533
f 461/556/534 475/13/534 1/17/534
f 468/555/535 6/20/535 469/557/535
f 462/541/536 1/17/536 476/21/536
f 469/557/537 479/23/537 470/542/537
f 463/543/538 476/21/538 2/26/538
f 471/544/539 479/23/539 480/28/539
f 464/545/540 2/26/540 477/29/540
f 471/544/541 481/1/541 472/546/541
f 465/547/542 477/29/542 3/4/542
f 472/546/543 482/3/543 473/548/543
f 481/1/1 20/31/1 21/2/1
f 3/4/2 13/32/2 14/5/2
f 4/6/6 14/5/544 15/11/6
f 475/13/8 474/7/8 7/9/8
f 5/12/9 15/11/9 16/15/9
f 1/17/10 475/13/10 8/14/10
f 478/16/11 16/15/11 17/19/11
f 476/21/12 1/17/12 9/18/12
f 479/23/13 6/20/13 17/19/13
f 476/21/14 10/22/14 11/25/14
f 479/23/15 18/24/15 19/27/15
f 477/29/16 2/26/16 11/25/16
f 480/28/17 19/27/17 20/31/17
f 3/4/18 477/29/18 12/30/18
f 20/31/19 19/27/19 34/33/19
f 13/32/20 12/30/20 27/35/20
f 20/31/21 35/34/21 36/37/21
f 13/32/22 28/36/22 29/38/22
f 14/5/25 29/38/25 30/42/25
f 7/9/26 22/40/26 23/43/26
f 15/11/27 30/42/27 31/44/27
f 8/14/28 23/43/28 24/45/28
f 17/19/29 16/15/30 31/44/30
f 9/18/31 24/45/31 25/47/31
f 18/24/32 17/19/32 32/46/32
f 10/22/33 25/47/33 26/49/33
f 19/27/34 18/24/34 33/48/34
f 11/25/35 26/49/35 27/35/36
f 23/43/37 38/66/37 39/50/37
f 32/46/39 31/44/39 46/51/39
f 24/45/40 39/50/40 40/53/40
f 33/48/41 32/46/41 47/52/41
f 25/47/42 40/53/42 41/55/42
f 34/33/43 33/48/43 48/54/43
f 26/49/44 41/55/44 42/57/44
f 35/34/45 34/33/545 49/56/45
f 28/36/46 27/35/46 42/57/46
f 36/37/47 35/34/47 50/58/47
f 29/38/48 28/36/48 43/59/48
f 29/38/51 44/61/51 45/65/51
f 22/40/52 37/63/52 38/66/52
f 30/42/53 45/65/53 46/51/53
f 43/59/54 42/57/54 57/67/54
f 51/60/55 50/58/56 65/69/56
f 44/61/57 43/59/57 58/68/57
f 44/61/61 59/71/546 60/75/61
f 37/63/62 52/73/62 53/76/63
f 45/65/64 60/75/64 61/77/64
f 38/66/65 53/76/65 54/78/65
f 47/52/66 46/51/66 61/77/66
f 39/50/67 54/78/67 55/80/67
f 47/52/68 62/79/68 63/81/68
f 41/55/69 40/53/69 55/80/69
f 49/56/70 48/54/70 63/81/70
f 41/55/71 56/82/71 57/67/71
f 50/58/72 49/56/72 64/83/72
f 62/79/73 61/77/73 76/84/73
f 54/78/74 69/100/74 70/86/74
f 62/79/75 77/85/75 78/87/75
f 56/82/76 55/80/76 70/86/76
f 64/83/77 63/81/77 78/87/77
f 56/82/78 71/88/78 72/90/78
f 64/83/79 79/89/79 80/91/79
f 58/68/80 57/67/80 72/90/80
f 65/69/81 80/91/81 81/93/81
f 59/71/82 58/68/82 73/92/82
f 59/71/85 74/94/85 75/98/85
f 53/76/86 52/73/86 67/96/86
f 60/75/87 75/98/87 76/84/87
f 54/78/88 53/76/88 68/99/88
f 81/93/89 80/91/89 96/101/89
f 74/94/90 73/92/90 89/103/90
f 74/94/94 90/104/547 91/108/94
f 67/96/95 83/106/95 84/109/95
f 75/98/96 91/108/96 92/110/96
f 68/99/97 84/109/97 85/111/97
f 77/85/99 76/84/99 92/110/99
f 69/100/100 85/111/100 86/113/100
f 77/85/101 93/112/101 94/114/101
f 71/88/102 70/86/102 86/113/102
f 79/89/103 78/87/103 94/114/103
f 71/88/104 87/115/104 88/117/104
f 80/91/105 79/89/105 95/116/105
f 73/92/106 72/90/106 88/117/106
f 93/112/107 108/134/107 109/118/107
f 87/115/108 86/113/108 101/119/108
f 95/116/109 94/114/109 109/118/109
f 87/115/110 102/120/110 103/122/110
f 95/116/111 110/121/111 111/123/111
f 89/103/112 88/117/112 103/122/112
f 96/101/113 111/123/113 112/125/113
f 90/104/114 89/103/114 104/124/114
f 90/104/117 105/126/117 106/130/117
f 83/106/118 98/128/118 99/131/118
f 91/108/119 106/130/119 107/132/119
f 85/111/120 84/109/120 99/131/120
f 93/112/121 92/110/121 107/132/121
f 85/111/122 100/133/122 101/119/122
f 105/126/125 120/151/548 121/139/125
f 98/128/126 113/136/126 114/140/126
f 106/130/127 121/139/127 122/141/127
f 99/131/128 114/140/128 115/142/128
f 108/134/129 107/132/129 122/141/129
f 100/133/130 115/142/130 116/144/130
f 108/134/131 123/143/131 124/145/131
f 102/120/132 101/119/132 116/144/132
f 110/121/133 109/118/133 124/145/133
f 102/120/134 117/146/134 118/148/134
f 111/123/135 110/121/135 125/147/135
f 104/124/136 103/122/136 118/148/136
f 111/123/137 126/149/137 127/138/137
f 105/126/138 104/124/138 119/150/138
f 117/146/140 116/144/140 131/152/140
f 125/147/141 124/145/141 139/154/141
f 117/146/142 132/153/142 133/156/142
f 125/147/143 140/155/143 141/157/143
f 119/150/144 118/148/144 133/156/144
f 126/149/145 141/157/145 142/159/145
f 120/151/146 119/150/549 134/158/146
f 120/151/150 135/160/550 136/164/150
f 114/140/152 113/136/152 128/162/152
f 121/139/153 136/164/153 137/166/153
f 115/142/154 114/140/154 129/165/154
f 123/143/155 122/141/155 137/166/155
f 115/142/156 130/167/156 131/152/156
f 123/143/157 138/168/157 139/154/157
f 135/160/158 150/182/158 151/169/158
f 128/162/159 143/184/159 144/170/159
f 136/164/160 151/169/160 152/171/160
f 129/165/161 144/170/161 145/172/161
f 138/168/162 137/166/162 152/171/162
f 130/167/164 145/172/164 146/174/164
f 138/168/165 153/173/165 154/175/165
f 132/153/166 131/152/166 146/174/166
f 140/155/167 139/154/167 154/175/167
f 132/153/168 147/176/551 148/178/168
f 141/157/169 140/155/169 155/177/169
f 134/158/170 133/156/170 148/178/170
f 141/157/171 156/179/171 157/181/171
f 135/160/172 134/158/172 149/180/172
f 155/177/175 154/175/175 169/186/175
f 147/176/176 162/202/176 163/188/176
f 156/179/177 155/177/552 170/187/177
f 149/180/178 148/178/178 163/188/178
f 157/181/179 156/179/179 171/189/179
f 150/182/180 149/180/180 164/190/180
f 150/182/183 165/192/183 166/196/183
f 143/184/184 158/194/184 159/197/184
f 151/169/185 166/196/185 167/198/185
f 144/170/186 159/197/186 160/199/186
f 153/173/188 152/171/188 167/198/188
f 145/172/189 160/199/189 161/201/189
f 153/173/190 168/200/190 169/186/190
f 147/176/191 146/174/191 161/201/191
f 158/194/192 173/217/192 174/203/192
f 166/196/193 181/219/193 182/204/193
f 159/197/194 174/203/194 175/205/194
f 168/200/195 167/198/195 182/204/195
f 160/199/196 175/205/196 176/207/196
f 168/200/197 183/206/197 184/208/197
f 162/202/198 161/201/198 176/207/198
f 170/187/199 169/186/199 184/208/199
f 162/202/200 177/209/200 178/211/200
f 171/189/201 170/187/201 185/210/201
f 164/190/202 163/188/202 178/211/202
f 172/191/203 171/189/203 186/212/203
f 165/192/204 164/190/204 179/213/204
f 165/192/207 180/215/207 181/219/207
f 177/209/208 192/235/208 193/220/208
f 185/210/209 200/236/209 201/221/209
f 179/213/210 178/211/210 193/220/210
f 186/212/211 201/221/211 202/223/212
f 180/215/213 179/213/213 194/222/213
f 180/215/216 195/224/216 196/228/216
f 174/203/217 173/217/218 188/226/218
f 181/219/219 196/228/219 197/230/219
f 175/205/220 174/203/220 189/229/220
f 183/206/221 182/204/221 197/230/221
f 175/205/222 190/231/222 191/233/222
f 183/206/223 198/232/223 199/234/223
f 177/209/224 176/207/224 191/233/224
f 185/210/225 184/208/225 199/234/225
f 196/228/226 211/252/226 212/237/226
f 189/229/227 204/253/227 205/238/227
f 198/232/228 197/230/228 212/237/228
f 190/231/229 205/238/229 206/240/229
f 198/232/230 213/239/230 214/241/230
f 192/235/231 191/233/231 206/240/231
f 200/236/232 199/234/232 214/241/232
f 192/235/233 207/242/233 208/244/233
f 201/221/234 200/236/234 215/243/234
f 194/222/235 193/220/235 208/244/235
f 202/223/236 201/221/236 216/245/236
f 195/224/237 194/222/237 209/246/237
f 195/224/240 210/248/240 211/252/240
f 188/226/241 203/250/241 204/253/241
f 216/245/242 215/243/242 230/254/242
f 209/246/243 208/244/243 223/256/243
f 217/247/244 216/245/244 231/255/244
f 210/248/245 209/246/553 224/257/245
f 210/248/248 225/259/248 226/263/248
f 203/250/250 218/261/250 219/264/250
f 211/252/251 226/263/251 227/265/251
f 204/253/252 219/264/252 220/266/252
f 213/239/253 212/237/253 227/265/253
f 205/238/254 220/266/254 221/268/254
f 213/239/255 228/267/255 229/269/255
f 207/242/256 206/240/256 221/268/256
f 215/243/257 214/241/257 229/269/257
f 207/242/258 222/270/258 223/256/258
f 228/267/259 227/265/259 242/271/259
f 220/266/260 235/287/260 236/273/260
f 228/267/261 243/272/261 244/274/261
f 222/270/262 221/268/262 236/273/262
f 230/254/263 229/269/263 244/274/263
f 222/270/264 237/275/264 238/277/264
f 231/255/265 230/254/265 245/276/265
f 224/257/266 223/256/266 238/277/266
f 231/255/267 246/278/267 247/280/267
f 225/259/268 224/257/554 239/279/268
f 225/259/271 240/281/271 241/285/271
f 219/264/273 218/261/555 233/283/273
f 226/263/274 241/285/274 242/271/274
f 219/264/275 234/286/275 235/287/275
f 246/278/276 261/304/276 262/288/276
f 240/281/277 239/279/556 254/289/277
f 240/281/281 255/290/557 256/294/281
f 234/286/283 233/283/283 248/292/283
f 241/285/284 256/294/284 257/296/284
f 235/287/285 234/286/285 249/295/285
f 243/272/286 242/271/286 257/296/286
f 235/287/287 250/297/287 251/299/287
f 243/272/288 258/298/288 259/300/288
f 237/275/289 236/273/289 251/299/289
f 245/276/290 244/274/290 259/300/290
f 237/275/291 252/301/291 253/303/291
f 245/276/292 260/302/292 261/304/292
f 239/279/293 238/277/293 253/303/293
f 250/297/294 265/320/294 266/305/294
f 258/298/295 273/321/295 274/306/295
f 252/301/296 251/299/296 266/305/296
f 260/302/297 259/300/297 274/306/297
f 252/301/298 267/307/298 268/309/298
f 261/304/299 260/302/299 275/308/299
f 254/289/300 253/303/300 268/309/300
f 261/304/301 276/310/301 277/312/301
f 255/290/302 254/289/302 269/311/302
f 255/290/306 270/313/558 271/317/306
f 249/295/307 248/292/307 263/315/307
f 256/294/308 271/317/308 272/319/308
f 249/295/309 264/318/309 265/320/309
f 258/298/310 257/296/310 272/319/310
f 270/313/311 269/311/311 284/322/311
f 270/313/314 285/323/314 286/328/314
f 263/315/315 278/325/315 279/329/315
f 271/317/316 286/328/316 287/330/316
f 264/318/317 279/329/317 280/331/318
f 273/321/319 272/319/319 287/330/319
f 265/320/320 280/331/320 281/333/320
f 273/321/321 288/332/321 289/334/321
f 267/307/322 266/305/322 281/333/322
f 275/308/323 274/306/323 289/334/323
f 267/307/324 282/335/324 283/337/324
f 275/308/325 290/336/325 291/338/326
f 269/311/327 268/309/327 283/337/327
f 276/310/328 291/338/328 292/327/328
f 288/332/329 303/355/329 304/339/329
f 282/335/330 281/333/330 296/340/330
f 290/336/331 289/334/331 304/339/331
f 282/335/332 297/341/332 298/343/332
f 290/336/333 305/342/333 306/344/333
f 284/322/334 283/337/334 298/343/334
f 292/327/335 291/338/336 306/344/336
f 285/323/337 284/322/337 299/345/337
f 285/323/340 300/347/340 301/351/340
f 278/325/341 293/349/341 294/352/342
f 286/328/343 301/351/343 302/353/343
f 280/331/344 279/329/344 294/352/344
f 288/332/345 287/330/345 302/353/345
f 280/331/346 295/354/346 296/340/346
f 300/347/349 316/372/349 317/360/349
f 294/352/350 293/349/350 309/357/350
f 301/351/351 317/360/351 318/362/351
f 295/354/352 294/352/352 310/361/352
f 303/355/353 302/353/353 318/362/353
f 295/354/354 311/363/354 312/365/354
f 303/355/355 319/364/355 320/366/355
f 297/341/356 296/340/356 312/365/356
f 305/342/357 304/339/357 320/366/357
f 297/341/358 313/367/358 314/369/358
f 305/342/359 321/368/359 322/370/359
f 299/345/360 298/343/360 314/369/360
f 306/344/361 322/370/361 323/359/361
f 300/347/362 299/345/362 315/371/362
f 313/367/363 312/365/363 327/373/363
f 321/368/364 320/366/364 335/375/364
f 313/367/365 328/374/365 329/377/365
f 321/368/366 336/376/366 337/378/366
f 315/371/367 314/369/367 329/377/367
f 323/359/368 322/370/368 337/378/368
f 316/372/369 315/371/369 330/379/369
f 316/372/373 331/381/559 332/385/373
f 309/357/374 324/383/374 325/386/374
f 317/360/375 332/385/375 333/387/375
f 310/361/376 325/386/376 326/388/376
f 319/364/377 318/362/377 333/387/377
f 311/363/378 326/388/378 327/373/378
f 319/364/379 334/389/379 335/375/379
f 331/381/380 346/403/380 347/390/380
f 324/383/381 339/405/381 340/391/381
f 332/385/382 347/390/382 348/392/382
f 326/388/383 325/386/383 340/391/383
f 334/389/384 333/387/384 348/392/384
f 326/388/385 341/393/385 342/395/385
f 334/389/386 349/394/386 350/396/386
f 328/374/387 327/373/387 342/395/387
f 336/376/388 335/375/388 350/396/388
f 328/374/389 343/397/389 344/399/389
f 336/376/390 351/398/390 352/400/390
f 330/379/391 329/377/391 344/399/391
f 338/380/392 337/378/392 352/400/392
f 331/381/393 330/379/393 345/401/393
f 351/398/396 350/396/396 365/407/396
f 343/397/397 358/423/397 359/409/397
f 351/398/398 366/408/398 367/410/398
f 345/401/399 344/399/399 359/409/399
f 353/402/400 352/400/400 367/410/400
f 346/403/401 345/401/401 360/411/401
f 346/403/404 361/413/404 362/417/404
f 339/405/405 354/415/405 355/418/405
f 347/390/406 362/417/406 363/419/406
f 341/393/407 340/391/407 355/418/407
f 349/394/408 348/392/408 363/419/408
f 341/393/409 356/420/409 357/422/409
f 349/394/410 364/421/410 365/407/410
f 343/397/411 342/395/411 357/422/411
f 362/424/412 377/454/412 378/425/412
f 356/427/413 355/455/413 370/428/413
f 364/430/414 363/426/414 378/425/414
f 356/427/415 371/429/415 372/432/415
f 364/430/416 379/431/416 380/434/416
f 358/436/417 357/433/417 372/432/417
f 366/438/418 365/435/418 380/434/418
f 358/436/419 373/437/419 374/440/419
f 366/438/420 381/439/420 382/442/420
f 360/444/421 359/441/421 374/440/421
f 367/443/422 382/442/422 383/446/422
f 361/448/423 360/444/423 375/445/423
f 361/448/426 376/449/426 377/454/426
f 355/455/427 354/450/427 369/452/427
f 381/439/428 396/472/428 397/456/428
f 375/445/429 374/440/429 389/457/429
f 382/442/430 397/456/430 398/459/430
f 376/449/431 375/445/431 390/458/431
f 376/449/434 391/460/434 392/464/434
f 370/428/435 369/452/435 384/462/435
f 377/454/436 392/464/436 393/466/436
f 371/429/437 370/428/437 385/465/437
f 379/431/438 378/425/438 393/466/438
f 371/429/439 386/467/439 387/469/439
f 379/431/440 394/468/440 395/470/440
f 373/437/441 372/432/441 387/469/441
f 381/439/442 380/434/442 395/470/442
f 373/437/443 388/471/443 389/457/443
f 386/467/444 385/465/445 400/473/445
f 394/468/446 393/466/446 408/475/446
f 386/467/447 401/474/447 402/477/447
f 394/468/448 409/476/448 410/478/448
f 388/471/449 387/469/449 402/477/449
f 396/472/450 395/470/450 410/478/450
f 388/471/451 403/479/451 404/481/451
f 396/472/452 411/480/452 412/482/453
f 390/458/454 389/457/454 404/481/454
f 398/459/455 397/456/455 412/482/455
f 391/460/456 390/458/456 405/483/456
f 391/460/459 406/485/459 407/489/459
f 384/462/460 399/487/460 400/473/460
f 392/464/461 407/489/461 408/475/461
f 405/483/462 404/481/462 419/490/462
f 412/482/463 427/506/463 428/492/463
f 406/485/464 405/483/464 420/491/464
f 406/485/467 421/493/467 422/497/467
f 399/487/468 414/495/468 415/498/468
f 407/489/469 422/497/469 423/499/469
f 401/474/470 400/473/470 415/498/470
f 409/476/471 408/475/471 423/499/471
f 401/474/472 416/500/472 417/502/472
f 409/476/473 424/501/473 425/503/473
f 403/479/474 402/477/474 417/502/474
f 411/480/475 410/478/475 425/503/475
f 403/479/476 418/504/476 419/490/476
f 411/480/477 426/505/477 427/506/477
f 424/501/478 423/499/478 438/507/478
f 416/500/479 431/523/479 432/509/479
f 424/501/480 439/508/480 440/510/480
f 418/504/481 417/502/481 432/509/481
f 426/505/482 425/503/482 440/510/482
f 418/504/483 433/511/483 434/513/483
f 426/505/484 441/512/484 442/514/484
f 420/491/485 419/490/485 434/513/485
f 428/492/486 427/506/486 442/514/486
f 421/493/487 420/491/487 435/515/487
f 421/493/490 436/517/490 437/521/490
f 414/495/491 429/519/491 430/522/491
f 422/497/492 437/521/492 438/507/492
f 416/500/493 415/498/493 430/522/493
f 442/514/494 457/540/494 458/524/494
f 436/517/495 435/515/495 450/525/495
f 436/517/499 451/526/560 452/530/499
f 430/522/500 429/519/561 444/528/500
f 437/521/501 452/530/501 453/532/501
f 431/523/502 430/522/502 445/531/502
f 439/508/503 438/507/503 453/532/503
f 431/523/504 446/533/504 447/535/504
f 439/508/505 454/534/505 455/536/505
f 433/511/506 432/509/506 447/535/506
f 441/512/507 440/510/507 455/536/507
f 433/511/508 448/537/508 449/539/508
f 441/512/509 456/538/509 457/540/509
f 435/515/510 434/513/510 449/539/510
f 446/533/511 461/556/511 462/541/511
f 454/534/512 469/557/512 470/542/512
f 448/537/513 447/535/513 462/541/513
f 456/538/514 455/536/514 470/542/514
f 448/537/515 463/543/515 464/545/515
f 456/538/516 471/544/516 472/546/516
f 450/525/517 449/539/517 464/545/517
f 458/524/518 457/540/518 472/546/518
f 451/526/519 450/525/519 465/547/519
f 451/526/522 466/549/522 467/553/522
f 444/528/523 459/551/523 460/554/523
f 452/530/524 467/553/524 468/555/524
f 446/533/525 445/531/525 460/554/525
f 454/534/526 453/532/526 468/555/526
f 466/549/527 465/547/527 3/4/527
f 466/549/531 4/6/562 5/12/531
f 459/551/532 474/7/532 475/13/532
f 467/553/533 5/12/533 478/16/533
f 461/556/534 460/554/534 475/13/534
f 468/555/535 478/16/535 6/20/535
f 462/541/536 461/556/536 1/17/536
f 469/557/537 6/20/537 479/23/537
f 463/543/538 462/541/538 476/21/538
f 471/544/539 470/542/539 479/23/539
f 464/545/540 463/543/540 2/26/540
f 471/544/541 480/28/541 481/1/541
f 465/547/542 464/545/542 477/29/542
f 472/546/543 481/1/543 482/3/543
