# Blender 4.4.3
# www.blender.org
mtllib uvsphere-weight-norm.mtl
o Sphere
v 0.000000 0.831469 -6.750547
v 0.000000 0.555569 -7.026447
v 0.000000 0.195089 -7.175762
v 0.000000 -0.000001 -7.194977
v 0.000000 -0.195091 -7.175762
v 0.000000 -0.555571 -7.026447
v 0.038060 0.980785 -6.386319
v 0.074658 0.923880 -6.570307
v 0.108386 0.831469 -6.739872
v 0.137950 0.707106 -6.888497
v 0.162212 0.555569 -7.010470
v 0.180240 0.382682 -7.101104
v 0.191342 0.195089 -7.156917
v 0.195090 -0.000001 -7.175762
v 0.191342 -0.195091 -7.156917
v 0.180240 -0.382684 -7.101104
v 0.162212 -0.555571 -7.010470
v 0.137950 -0.707108 -6.888497
v 0.108386 -0.831471 -6.739872
v 0.074658 -0.923880 -6.570307
v 0.038060 -0.980785 -6.386319
v 0.074658 0.980785 -6.375217
v 0.146447 0.923880 -6.548531
v 0.212608 0.831470 -6.708257
v 0.270598 0.707106 -6.848258
v 0.318190 0.555569 -6.963155
v 0.353553 0.382682 -7.048530
v 0.375330 0.195089 -7.101104
v 0.382683 -0.000001 -7.118856
v 0.375330 -0.195091 -7.101104
v 0.353553 -0.382684 -7.048530
v 0.318190 -0.555571 -6.963155
v 0.270598 -0.707108 -6.848258
v 0.212608 -0.831470 -6.708257
v 0.146447 -0.923880 -6.548530
v 0.074658 -0.980785 -6.375217
v 0.108386 0.980785 -6.357189
v 0.212608 0.923880 -6.513167
v 0.308658 0.831470 -6.656918
v 0.392847 0.707106 -6.782915
v 0.461940 0.555569 -6.886319
v 0.513280 0.382682 -6.963155
v 0.544895 0.195089 -7.010470
v 0.555570 -0.000001 -7.026446
v 0.544895 -0.195091 -7.010470
v 0.513280 -0.382684 -6.963155
v 0.461940 -0.555571 -6.886319
v 0.392847 -0.707108 -6.782915
v 0.308658 -0.831470 -6.656917
v 0.212608 -0.923880 -6.513167
v 0.108386 -0.980785 -6.357189
v 0.137950 0.980785 -6.332927
v 0.270598 0.923880 -6.465575
v 0.392847 0.831470 -6.587824
v 0.500000 0.707107 -6.694977
v 0.587938 0.555569 -6.782915
v 0.653281 0.382683 -6.848258
v 0.693520 0.195089 -6.888497
v 0.707107 -0.000001 -6.902084
v 0.693520 -0.195091 -6.888497
v 0.653281 -0.382684 -6.848258
v 0.587938 -0.555571 -6.782915
v 0.500000 -0.707107 -6.694977
v 0.392847 -0.831470 -6.587824
v 0.270598 -0.923880 -6.465575
v 0.137950 -0.980785 -6.332927
v 0.162212 0.980785 -6.303363
v 0.318190 0.923880 -6.407585
v 0.461940 0.831470 -6.503635
v 0.587938 0.707107 -6.587824
v 0.691342 0.555570 -6.656917
v 0.768178 0.382683 -6.708257
v 0.815493 0.195089 -6.739872
v 0.831470 -0.000001 -6.750547
v 0.815493 -0.195091 -6.739872
v 0.768178 -0.382684 -6.708257
v 0.691342 -0.555570 -6.656917
v 0.587938 -0.707107 -6.587824
v 0.461940 -0.831470 -6.503635
v 0.318190 -0.923880 -6.407585
v 0.162212 -0.980785 -6.303363
v 0.000000 1.000000 -6.194977
v 0.180240 0.980785 -6.269635
v 0.353553 0.923880 -6.341424
v 0.513280 0.831470 -6.407584
v 0.653281 0.707107 -6.465575
v 0.768178 0.555570 -6.513167
v 0.853553 0.382683 -6.548530
v 0.906127 0.195090 -6.570307
v 0.923879 -0.000000 -6.577660
v 0.906127 -0.195090 -6.570307
v 0.853553 -0.382684 -6.548530
v 0.768178 -0.555570 -6.513167
v 0.653281 -0.707107 -6.465575
v 0.513280 -0.831470 -6.407584
v 0.353553 -0.923880 -6.341424
v 0.180240 -0.980785 -6.269635
v 0.191342 0.980785 -6.233037
v 0.375330 0.923880 -6.269635
v 0.544895 0.831470 -6.303363
v 0.693520 0.707107 -6.332927
v 0.815493 0.555570 -6.357189
v 0.906127 0.382683 -6.375217
v 0.961940 0.195090 -6.386319
v 0.980785 -0.000000 -6.390067
v 0.961940 -0.195090 -6.386319
v 0.906127 -0.382683 -6.375217
v 0.815493 -0.555570 -6.357189
v 0.693520 -0.707107 -6.332927
v 0.544895 -0.831470 -6.303363
v 0.375330 -0.923880 -6.269635
v 0.191342 -0.980785 -6.233037
v 0.195090 0.980785 -6.194977
v 0.382683 0.923880 -6.194977
v 0.555570 0.831470 -6.194977
v 0.707107 0.707107 -6.194977
v 0.831469 0.555570 -6.194977
v 0.923879 0.382683 -6.194977
v 0.980785 0.195090 -6.194977
v 1.000000 -0.000000 -6.194977
v 0.980785 -0.195090 -6.194977
v 0.923879 -0.382683 -6.194977
v 0.831469 -0.555570 -6.194977
v 0.707107 -0.707107 -6.194977
v 0.555570 -0.831470 -6.194977
v 0.382683 -0.923880 -6.194977
v 0.195090 -0.980785 -6.194977
v 0.191342 0.980785 -6.156918
v 0.375330 0.923880 -6.120319
v 0.544895 0.831470 -6.086591
v 0.693520 0.707107 -6.057027
v 0.815493 0.555570 -6.032765
v 0.906127 0.382683 -6.014737
v 0.961940 0.195090 -6.003635
v 0.980785 -0.000000 -5.999887
v 0.961940 -0.195090 -6.003635
v 0.906127 -0.382683 -6.014737
v 0.815493 -0.555570 -6.032765
v 0.693520 -0.707107 -6.057027
v 0.544895 -0.831470 -6.086591
v 0.375330 -0.923880 -6.120319
v 0.191342 -0.980785 -6.156917
v 0.180240 0.980785 -6.120319
v 0.353553 0.923880 -6.048531
v 0.513280 0.831470 -5.982369
v 0.653281 0.707107 -5.924379
v 0.768178 0.555570 -5.876787
v 0.853553 0.382683 -5.841424
v 0.906127 0.195090 -5.819647
v 0.923879 -0.000000 -5.812294
v 0.906127 -0.195090 -5.819647
v 0.853553 -0.382683 -5.841424
v 0.768178 -0.555570 -5.876787
v 0.653281 -0.707107 -5.924379
v 0.513280 -0.831470 -5.982369
v 0.353553 -0.923880 -6.048530
v 0.180240 -0.980785 -6.120319
v 0.162212 0.980785 -6.086591
v 0.318190 0.923880 -5.982369
v 0.461940 0.831470 -5.886319
v 0.587938 0.707107 -5.802130
v 0.691341 0.555570 -5.733037
v 0.768178 0.382683 -5.681697
v 0.815493 0.195090 -5.650082
v 0.831469 -0.000000 -5.639407
v 0.815493 -0.195090 -5.650082
v 0.768178 -0.382683 -5.681697
v 0.691341 -0.555570 -5.733037
v 0.587938 -0.707107 -5.802130
v 0.461940 -0.831470 -5.886319
v 0.318190 -0.923880 -5.982369
v 0.162212 -0.980785 -6.086591
v 0.137950 0.980785 -6.057027
v 0.270598 0.923880 -5.924379
v 0.392847 0.831470 -5.802130
v 0.500000 0.707107 -5.694977
v 0.587938 0.555570 -5.607039
v 0.653281 0.382683 -5.541697
v 0.693520 0.195090 -5.501457
v 0.707106 -0.000000 -5.487870
v 0.693520 -0.195090 -5.501457
v 0.653281 -0.382683 -5.541697
v 0.587938 -0.555570 -5.607039
v 0.500000 -0.707107 -5.694977
v 0.392847 -0.831470 -5.802130
v 0.270598 -0.923880 -5.924379
v 0.137950 -0.980785 -6.057027
v 0.108386 0.980785 -6.032765
v 0.212607 0.923880 -5.876787
v 0.308658 0.831470 -5.733037
v 0.392847 0.707107 -5.607039
v 0.461940 0.555570 -5.503635
v 0.513280 0.382683 -5.426799
v 0.544895 0.195090 -5.379484
v 0.555570 -0.000000 -5.363508
v 0.544895 -0.195090 -5.379484
v 0.513280 -0.382683 -5.426799
v 0.461940 -0.555570 -5.503635
v 0.392847 -0.707107 -5.607039
v 0.308658 -0.831470 -5.733037
v 0.212607 -0.923880 -5.876787
v 0.108386 -0.980785 -6.032765
v 0.074658 0.980785 -6.014737
v 0.146447 0.923880 -5.841424
v 0.212607 0.831470 -5.681697
v 0.270598 0.707107 -5.541697
v 0.318189 0.555570 -5.426799
v 0.353553 0.382683 -5.341424
v 0.375330 0.195090 -5.288850
v 0.382683 -0.000000 -5.271098
v 0.375330 -0.195090 -5.288850
v 0.353553 -0.382683 -5.341424
v 0.318189 -0.555570 -5.426799
v 0.270598 -0.707107 -5.541696
v 0.212607 -0.831470 -5.681697
v 0.146447 -0.923880 -5.841424
v 0.074658 -0.980785 -6.014737
v 0.038060 0.980785 -6.003635
v 0.074658 0.923880 -5.819647
v 0.108386 0.831470 -5.650083
v 0.137950 0.707107 -5.501457
v 0.162212 0.555570 -5.379484
v 0.180240 0.382683 -5.288850
v 0.191342 0.195090 -5.233038
v 0.195090 -0.000000 -5.214192
v 0.191342 -0.195090 -5.233038
v 0.180240 -0.382683 -5.288850
v 0.162212 -0.555570 -5.379484
v 0.137950 -0.707107 -5.501457
v 0.108386 -0.831470 -5.650082
v 0.074658 -0.923880 -5.819647
v 0.038060 -0.980785 -6.003635
v 0.000000 0.980785 -5.999887
v 0.000000 0.923880 -5.812294
v 0.000000 0.831470 -5.639407
v 0.000000 0.707107 -5.487870
v 0.000000 0.555570 -5.363508
v 0.000000 0.382683 -5.271098
v 0.000000 0.195090 -5.214192
v 0.000000 -0.000000 -5.194978
v 0.000000 -0.195090 -5.214192
v 0.000000 -0.382683 -5.271098
v 0.000000 -0.555570 -5.363508
v 0.000000 -0.707107 -5.487870
v 0.000000 -0.831470 -5.639407
v 0.000000 -0.923880 -5.812294
v 0.000000 -0.980785 -5.999887
v -0.038060 0.980785 -6.003635
v -0.074658 0.923880 -5.819647
v -0.108386 0.831470 -5.650083
v -0.137950 0.707107 -5.501457
v -0.162212 0.555570 -5.379484
v -0.180240 0.382683 -5.288850
v -0.191342 0.195090 -5.233038
v -0.195091 -0.000000 -5.214192
v -0.191342 -0.195090 -5.233038
v -0.180240 -0.382683 -5.288850
v -0.162212 -0.555570 -5.379484
v -0.137950 -0.707107 -5.501457
v -0.108386 -0.831470 -5.650082
v -0.074658 -0.923880 -5.819647
v -0.038060 -0.980785 -6.003635
v -0.074658 0.980785 -6.014737
v -0.146447 0.923880 -5.841424
v -0.212608 0.831470 -5.681697
v -0.270598 0.707107 -5.541697
v -0.318190 0.555570 -5.426800
v -0.353553 0.382683 -5.341424
v -0.375330 0.195090 -5.288850
v -0.382683 -0.000000 -5.271098
v -0.375330 -0.195090 -5.288850
v -0.353553 -0.382683 -5.341424
v -0.318190 -0.555570 -5.426800
v -0.270598 -0.707107 -5.541696
v -0.212608 -0.831470 -5.681697
v -0.146447 -0.923880 -5.841424
v -0.074658 -0.980785 -6.014737
v -0.108386 0.980785 -6.032765
v -0.212608 0.923880 -5.876787
v -0.308658 0.831470 -5.733038
v -0.392847 0.707107 -5.607039
v -0.461940 0.555570 -5.503636
v -0.513280 0.382683 -5.426799
v -0.544895 0.195090 -5.379484
v -0.555570 -0.000000 -5.363508
v -0.544895 -0.195090 -5.379484
v -0.513280 -0.382683 -5.426799
v -0.461940 -0.555570 -5.503636
v -0.392847 -0.707107 -5.607039
v -0.308658 -0.831470 -5.733038
v -0.212608 -0.923880 -5.876787
v -0.108386 -0.980785 -6.032765
v -0.137950 0.980785 -6.057027
v -0.270598 0.923880 -5.924379
v -0.392847 0.831470 -5.802130
v -0.500000 0.707107 -5.694977
v -0.587938 0.555570 -5.607040
v -0.653281 0.382683 -5.541697
v -0.693520 0.195090 -5.501457
v -0.707106 -0.000000 -5.487871
v -0.693520 -0.195090 -5.501457
v -0.653281 -0.382683 -5.541697
v -0.587938 -0.555570 -5.607040
v -0.500000 -0.707107 -5.694977
v -0.392847 -0.831470 -5.802130
v -0.270598 -0.923880 -5.924379
v -0.137950 -0.980785 -6.057027
v 0.000000 -1.000000 -6.194977
v -0.162212 0.980785 -6.086591
v -0.318190 0.923880 -5.982370
v -0.461940 0.831470 -5.886319
v -0.587938 0.707107 -5.802130
v -0.691341 0.555570 -5.733038
v -0.768177 0.382683 -5.681697
v -0.815493 0.195090 -5.650082
v -0.831469 -0.000000 -5.639408
v -0.815493 -0.195090 -5.650082
v -0.768177 -0.382683 -5.681697
v -0.691341 -0.555570 -5.733038
v -0.587938 -0.707107 -5.802130
v -0.461940 -0.831470 -5.886319
v -0.318190 -0.923880 -5.982370
v -0.162212 -0.980785 -6.086591
v -0.180240 0.980785 -6.120319
v -0.353553 0.923880 -6.048531
v -0.513280 0.831470 -5.982370
v -0.653281 0.707107 -5.924379
v -0.768177 0.555570 -5.876788
v -0.853553 0.382683 -5.841424
v -0.906127 0.195090 -5.819647
v -0.923879 -0.000000 -5.812294
v -0.906127 -0.195090 -5.819647
v -0.853553 -0.382683 -5.841424
v -0.768177 -0.555570 -5.876788
v -0.653281 -0.707107 -5.924379
v -0.513280 -0.831470 -5.982370
v -0.353553 -0.923880 -6.048530
v -0.180240 -0.980785 -6.120319
v -0.191342 0.980785 -6.156918
v -0.375330 0.923880 -6.120319
v -0.544895 0.831470 -6.086591
v -0.693520 0.707107 -6.057027
v -0.815493 0.555570 -6.032766
v -0.906127 0.382683 -6.014737
v -0.961939 0.195090 -6.003636
v -0.980784 -0.000000 -5.999887
v -0.961939 -0.195090 -6.003636
v -0.906127 -0.382683 -6.014737
v -0.815493 -0.555570 -6.032766
v -0.693520 -0.707107 -6.057027
v -0.544895 -0.831470 -6.086591
v -0.375330 -0.923880 -6.120319
v -0.191342 -0.980785 -6.156917
v -0.195090 0.980785 -6.194977
v -0.382683 0.923880 -6.194977
v -0.555570 0.831470 -6.194977
v -0.707107 0.707107 -6.194977
v -0.831469 0.555570 -6.194977
v -0.923879 0.382683 -6.194977
v -0.980785 0.195090 -6.194977
v -0.999999 -0.000000 -6.194977
v -0.980785 -0.195090 -6.194977
v -0.923879 -0.382683 -6.194977
v -0.831469 -0.555570 -6.194977
v -0.707107 -0.707107 -6.194977
v -0.555570 -0.831470 -6.194977
v -0.382683 -0.923880 -6.194977
v -0.195090 -0.980785 -6.194977
v -0.191342 0.980785 -6.233037
v -0.375330 0.923880 -6.269635
v -0.544895 0.831470 -6.303363
v -0.693520 0.707107 -6.332927
v -0.815493 0.555570 -6.357189
v -0.906127 0.382683 -6.375217
v -0.961939 0.195090 -6.386319
v -0.980784 -0.000000 -6.390068
v -0.961939 -0.195090 -6.386319
v -0.906127 -0.382683 -6.375217
v -0.815493 -0.555570 -6.357189
v -0.693520 -0.707107 -6.332927
v -0.544895 -0.831470 -6.303363
v -0.375330 -0.923880 -6.269635
v -0.191342 -0.980785 -6.233037
v -0.180240 0.980785 -6.269635
v -0.353553 0.923880 -6.341424
v -0.513279 0.831470 -6.407584
v -0.653281 0.707107 -6.465575
v -0.768177 0.555570 -6.513167
v -0.853553 0.382683 -6.548530
v -0.906127 0.195090 -6.570307
v -0.923878 -0.000000 -6.577660
v -0.906127 -0.195090 -6.570307
v -0.853553 -0.382684 -6.548530
v -0.768177 -0.555570 -6.513167
v -0.653281 -0.707107 -6.465575
v -0.513279 -0.831470 -6.407584
v -0.353553 -0.923880 -6.341424
v -0.180240 -0.980785 -6.269635
v -0.162212 0.980785 -6.303363
v -0.318189 0.923880 -6.407584
v -0.461939 0.831470 -6.503635
v -0.587938 0.707107 -6.587824
v -0.691341 0.555570 -6.656917
v -0.768177 0.382683 -6.708257
v -0.815493 0.195089 -6.739872
v -0.831468 -0.000001 -6.750547
v -0.815493 -0.195091 -6.739872
v -0.768177 -0.382684 -6.708257
v -0.691341 -0.555570 -6.656917
v -0.587938 -0.707107 -6.587824
v -0.461939 -0.831470 -6.503635
v -0.318189 -0.923880 -6.407584
v -0.162212 -0.980785 -6.303363
v -0.137950 0.980785 -6.332927
v -0.270598 0.923880 -6.465575
v -0.392847 0.831470 -6.587824
v -0.500000 0.707107 -6.694977
v -0.587937 0.555569 -6.782915
v -0.653281 0.382683 -6.848258
v -0.693519 0.195089 -6.888497
v -0.707106 -0.000001 -6.902083
v -0.693519 -0.195091 -6.888497
v -0.653281 -0.382684 -6.848258
v -0.587937 -0.555571 -6.782915
v -0.500000 -0.707107 -6.694977
v -0.392847 -0.831470 -6.587824
v -0.270598 -0.923880 -6.465575
v -0.137950 -0.980785 -6.332927
v -0.108386 0.980785 -6.357189
v -0.212607 0.923880 -6.513167
v -0.308658 0.831470 -6.656916
v -0.392847 0.707106 -6.782915
v -0.461939 0.555569 -6.886318
v -0.513280 0.382682 -6.963154
v -0.544895 0.195089 -7.010470
v -0.555569 -0.000001 -7.026446
v -0.544895 -0.195091 -7.010470
v -0.513280 -0.382684 -6.963154
v -0.461939 -0.555571 -6.886318
v -0.392847 -0.707108 -6.782915
v -0.308658 -0.831470 -6.656916
v -0.212607 -0.923880 -6.513167
v -0.108386 -0.980785 -6.357189
v -0.074658 0.980785 -6.375217
v -0.146446 0.923880 -6.548531
v -0.212607 0.831470 -6.708256
v -0.270598 0.707106 -6.848258
v -0.318189 0.555569 -6.963154
v -0.353553 0.382682 -7.048530
v -0.375330 0.195089 -7.101104
v -0.382683 -0.000001 -7.118856
v -0.375330 -0.195091 -7.101104
v -0.353553 -0.382684 -7.048530
v -0.318189 -0.555571 -6.963154
v -0.270598 -0.707108 -6.848258
v -0.212607 -0.831470 -6.708256
v -0.146446 -0.923880 -6.548530
v -0.074658 -0.980785 -6.375217
v -0.038060 0.980785 -6.386319
v -0.074658 0.923880 -6.570307
v -0.108386 0.831469 -6.739872
v -0.137950 0.707106 -6.888497
v -0.162211 0.555569 -7.010470
v -0.180240 0.382682 -7.101104
v -0.191341 0.195089 -7.156916
v -0.195090 -0.000001 -7.175761
v -0.191341 -0.195091 -7.156916
v -0.180240 -0.382684 -7.101104
v -0.162211 -0.555571 -7.010470
v -0.137950 -0.707108 -6.888497
v -0.108386 -0.831471 -6.739872
v -0.074658 -0.923880 -6.570307
v -0.038060 -0.980785 -6.386319
v 0.000000 0.980785 -6.390068
v 0.000000 0.923880 -6.577661
v 0.000000 0.707106 -6.902084
v 0.000000 0.382682 -7.118856
v 0.000000 -0.382684 -7.118856
v 0.000000 -0.707108 -6.902084
v 0.000000 -0.831471 -6.750547
v 0.000000 -0.923880 -6.577660
v 0.000000 -0.980785 -6.390067
vn -0.0089 -0.9178 -0.3970
vn 0.0350 -0.9739 -0.2243
vn -0.0094 -0.9739 -0.2268
vn 0.0128 0.1799 -0.9836
vn 0.1950 -0.0000 -0.9808
vn 0.0194 -0.0194 -0.9996
vn -0.0000 0.9808 -0.1951
vn -0.0000 1.0000 -0.0000
vn 0.0473 0.9701 -0.2379
vn -0.0000 -1.0000 -0.0000
vn -0.0094 -0.9739 -0.2267
vn 0.0350 -0.9739 -0.2242
vn 0.1895 -0.1938 -0.9626
vn -0.0018 -0.1938 -0.9810
vn -0.0104 0.9213 -0.3887
vn 0.0473 0.9701 -0.2380
vn 0.0820 0.9073 -0.4125
vn -0.0019 -0.1938 -0.9810
vn 0.1622 -0.3634 -0.9174
vn -0.0037 -0.3802 -0.9249
vn -0.0080 0.8261 -0.5635
vn 0.0821 0.9072 -0.4125
vn 0.1145 0.8096 -0.5757
vn 0.1552 -0.5396 -0.8275
vn -0.0189 -0.5375 -0.8430
vn 0.0069 0.6917 -0.7222
vn 0.1580 0.6910 -0.7054
vn -0.0000 -0.7002 -0.7139
vn 0.1580 -0.6910 -0.7054
vn 0.0069 0.6916 -0.7222
vn 0.1552 0.5396 -0.8275
vn -0.0189 0.5376 -0.8430
vn 0.1145 -0.8096 -0.5757
vn 0.0069 -0.8394 -0.5435
vn -0.0037 0.3802 -0.9249
vn 0.1622 0.3635 -0.9174
vn 0.0823 -0.9112 -0.4036
vn 0.1622 0.3634 -0.9174
vn 0.2225 0.1937 -0.9555
vn 0.2230 -0.8261 -0.5176
vn 0.1671 -0.9135 -0.3710
vn 0.2225 0.1938 -0.9555
vn 0.3260 0.3800 -0.8656
vn 0.3904 0.2135 -0.8955
vn 0.0823 -0.9113 -0.4035
vn 0.0929 -0.9701 -0.2242
vn 0.3954 0.0139 -0.9184
vn 0.1951 -0.0000 -0.9808
vn 0.0955 0.9739 -0.2058
vn 0.0928 -0.9701 -0.2241
vn 0.3737 -0.1938 -0.9071
vn 0.1601 0.9178 -0.3633
vn 0.0821 0.9073 -0.4125
vn 0.1896 -0.1938 -0.9625
vn 0.3260 -0.3800 -0.8656
vn 0.1623 -0.3634 -0.9174
vn 0.2230 0.8261 -0.5176
vn 0.1553 -0.5395 -0.8275
vn 0.3260 -0.3801 -0.8656
vn 0.3240 -0.5519 -0.7684
vn 0.2786 0.7025 -0.6548
vn 0.3240 -0.5520 -0.7683
vn 0.2786 -0.7025 -0.6549
vn 0.3240 0.5520 -0.7683
vn 0.2786 -0.7025 -0.6548
vn 0.2230 -0.8260 -0.5176
vn 0.1553 0.5395 -0.8275
vn 0.3260 0.3801 -0.8656
vn 0.1623 0.3635 -0.9174
vn 0.1602 0.9178 -0.3634
vn 0.3197 0.8261 -0.4641
vn 0.2231 0.8261 -0.5176
vn 0.3241 -0.5520 -0.7683
vn 0.4886 -0.3801 -0.7854
vn 0.4711 -0.5626 -0.6794
vn 0.2231 0.8260 -0.5176
vn 0.3778 0.7184 -0.5840
vn 0.2787 -0.7025 -0.6549
vn 0.3779 -0.7184 -0.5841
vn 0.2787 0.7025 -0.6549
vn 0.4711 0.5626 -0.6794
vn 0.3241 0.5520 -0.7683
vn 0.2231 -0.8260 -0.5176
vn 0.3778 -0.7184 -0.5840
vn 0.3197 -0.8260 -0.4642
vn 0.4886 0.3801 -0.7854
vn 0.3261 0.3801 -0.8656
vn 0.3197 -0.8261 -0.4641
vn 0.2280 -0.9178 -0.3252
vn 0.3905 0.2135 -0.8955
vn 0.4886 0.3800 -0.7854
vn 0.5435 0.1938 -0.8168
vn 0.2279 -0.9178 -0.3251
vn 0.1338 -0.9739 -0.1833
vn 0.3955 0.0139 -0.9184
vn 0.5822 -0.0000 -0.8131
vn 0.1338 0.9739 -0.1833
vn 0.5434 -0.1938 -0.8168
vn 0.0955 0.9739 -0.2059
vn 0.2279 0.9178 -0.3251
vn 0.1601 0.9178 -0.3634
vn 0.4886 -0.3800 -0.7854
vn 0.3261 -0.3800 -0.8656
vn 0.5435 0.1938 -0.8167
vn 0.6325 0.3800 -0.6750
vn 0.6924 0.1938 -0.6950
vn 0.2575 -0.9314 -0.2575
vn 0.1380 -0.9808 -0.1380
vn 0.5822 -0.0000 -0.8130
vn 0.7296 -0.0000 -0.6838
vn 0.1379 0.9808 -0.1379
vn 0.1379 -0.9808 -0.1379
vn 0.6924 -0.1938 -0.6950
vn 0.5435 -0.1938 -0.8167
vn 0.1339 0.9739 -0.1833
vn 0.2575 0.9314 -0.2575
vn 0.2280 0.9178 -0.3251
vn 0.6325 -0.3800 -0.6750
vn 0.4887 -0.3800 -0.7854
vn 0.2280 0.9178 -0.3252
vn 0.4004 0.8323 -0.3834
vn 0.3198 0.8261 -0.4641
vn 0.6324 -0.3801 -0.6750
vn 0.6086 -0.5518 -0.5702
vn 0.3198 0.8260 -0.4641
vn 0.4865 0.7024 -0.5196
vn 0.3779 0.7184 -0.5840
vn 0.4866 -0.7023 -0.5196
vn 0.4866 0.7023 -0.5196
vn 0.6086 0.5518 -0.5702
vn 0.3198 -0.8260 -0.4641
vn 0.4865 -0.7024 -0.5196
vn 0.4004 -0.8323 -0.3834
vn 0.6324 0.3801 -0.6749
vn 0.4887 0.3801 -0.7853
vn 0.2575 -0.9313 -0.2575
vn 0.6087 -0.5517 -0.5702
vn 0.7520 -0.3800 -0.5386
vn 0.7082 -0.5518 -0.4405
vn 0.5786 0.7024 -0.4147
vn 0.4866 0.7024 -0.5195
vn 0.5786 -0.7023 -0.4147
vn 0.5786 0.7023 -0.4147
vn 0.7082 0.5518 -0.4405
vn 0.5786 -0.7024 -0.4147
vn 0.4866 -0.8179 -0.3069
vn 0.6087 0.5517 -0.5702
vn 0.7520 0.3800 -0.5386
vn 0.6325 0.3801 -0.6749
vn 0.3497 -0.9072 -0.2337
vn 0.8147 0.1938 -0.5466
vn 0.2017 -0.9701 -0.1348
vn 0.8490 -0.0000 -0.5284
vn 0.2017 0.9701 -0.1348
vn 0.7297 -0.0000 -0.6838
vn 0.8147 -0.1938 -0.5466
vn 0.3497 0.9073 -0.2337
vn 0.6325 -0.3800 -0.6749
vn 0.3497 0.9072 -0.2337
vn 0.4866 0.8180 -0.3069
vn 0.2018 -0.9701 -0.1348
vn 0.3364 -0.9314 -0.1393
vn 0.1803 -0.9808 -0.0747
vn 0.8490 -0.0000 -0.5283
vn 0.9056 0.1938 -0.3772
vn 0.9358 -0.0000 -0.3526
vn 0.2131 0.9739 -0.0780
vn 0.1802 -0.9808 -0.0747
vn 0.9056 -0.1938 -0.3772
vn 0.2018 0.9701 -0.1348
vn 0.3427 0.9281 -0.1455
vn 0.3497 0.9073 -0.2336
vn 0.8426 -0.3800 -0.3816
vn 0.5166 0.8323 -0.2010
vn 0.8426 -0.3801 -0.3815
vn 0.7805 -0.5518 -0.2939
vn 0.4866 0.8179 -0.3069
vn 0.6483 0.7024 -0.2938
vn 0.5786 0.7024 -0.4146
vn 0.6484 -0.7023 -0.2939
vn 0.6484 0.7023 -0.2939
vn 0.7805 0.5518 -0.2939
vn 0.6484 -0.7024 -0.2938
vn 0.5167 -0.8323 -0.2010
vn 0.8426 0.3801 -0.3815
vn 0.7520 0.3801 -0.5386
vn 0.5166 -0.8323 -0.2010
vn 0.3364 -0.9313 -0.1394
vn 0.8426 0.3800 -0.3816
vn 0.9056 0.1939 -0.3772
vn 0.6933 -0.7023 -0.1617
vn 0.6484 -0.7023 -0.2938
vn 0.6932 0.7023 -0.1617
vn 0.8228 0.5518 -0.1360
vn 0.6932 -0.7024 -0.1617
vn 0.5670 -0.8179 -0.0974
vn 0.9008 0.3801 -0.2098
vn 0.4043 -0.9112 -0.0784
vn 0.3364 -0.9313 -0.1393
vn 0.9009 0.3800 -0.2098
vn 0.9618 0.1938 -0.1933
vn 0.2206 -0.9739 -0.0535
vn 0.9358 -0.0000 -0.3525
vn 0.9618 0.1938 -0.1932
vn 0.9866 -0.0000 -0.1632
vn 0.2242 0.9739 -0.0350
vn 0.1802 -0.9808 -0.0746
vn 0.2205 -0.9739 -0.0535
vn 0.9618 -0.1938 -0.1932
vn 0.9057 -0.1938 -0.3771
vn 0.4035 0.9113 -0.0823
vn 0.3428 0.9281 -0.1455
vn 0.9009 -0.3800 -0.2098
vn 0.8426 -0.3800 -0.3815
vn 0.4036 0.9112 -0.0823
vn 0.5670 0.8180 -0.0973
vn 0.9008 -0.3801 -0.2098
vn 0.8228 -0.5518 -0.1360
vn 0.5167 0.8323 -0.2010
vn 0.6932 0.7024 -0.1617
vn 0.1951 0.9808 -0.0000
vn 0.2267 -0.9739 -0.0094
vn 0.9810 -0.1938 -0.0019
vn 0.2243 0.9739 -0.0350
vn 0.3641 0.9314 -0.0000
vn 0.9245 -0.3800 -0.0301
vn 0.5542 0.8323 0.0120
vn 0.8229 -0.5517 -0.1359
vn 0.9245 -0.3801 -0.0300
vn 0.8336 -0.5518 0.0272
vn 0.5670 0.8179 -0.0973
vn 0.7114 0.7024 -0.0234
vn 0.7115 -0.7023 -0.0234
vn 0.7115 0.7023 -0.0234
vn 0.8335 0.5518 0.0271
vn 0.5670 -0.8179 -0.0973
vn 0.7114 -0.7024 -0.0234
vn 0.5543 -0.8323 0.0120
vn 0.8229 0.5517 -0.1359
vn 0.9245 0.3801 -0.0300
vn 0.9009 0.3801 -0.2098
vn 0.4044 -0.9112 -0.0784
vn 0.5542 -0.8323 0.0120
vn 0.3724 -0.9281 0.0032
vn 0.9245 0.3800 -0.0300
vn 0.9810 0.1938 -0.0019
vn 0.4043 -0.9113 -0.0784
vn 0.2268 -0.9739 -0.0095
vn 0.9995 -0.0000 0.0324
vn 0.8335 0.5518 0.0272
vn 0.7024 0.7023 0.1159
vn 0.8122 0.5518 0.1892
vn 0.7023 -0.7024 0.1159
vn 0.5611 -0.8179 0.1270
vn 0.8336 0.5517 0.0272
vn 0.9126 0.3801 0.1509
vn 0.4036 -0.9112 0.0823
vn 0.3724 -0.9281 0.0033
vn 0.9126 0.3800 0.1509
vn 0.9626 0.1938 0.1895
vn 0.3723 -0.9281 0.0033
vn 0.2243 -0.9739 0.0350
vn 0.2268 -0.9739 -0.0094
vn 0.9740 -0.0000 0.2267
vn 0.2379 0.9701 0.0473
vn 0.2242 -0.9739 0.0350
vn 0.9626 -0.1938 0.1895
vn 0.9810 -0.1938 -0.0018
vn 0.2380 0.9701 0.0473
vn 0.4125 0.9073 0.0821
vn 0.9126 -0.3800 0.1509
vn 0.9245 -0.3800 -0.0300
vn 0.4125 0.9072 0.0821
vn 0.5611 0.8180 0.1270
vn 0.8336 -0.5517 0.0272
vn 0.9126 -0.3801 0.1509
vn 0.8122 -0.5518 0.1893
vn 0.5543 0.8323 0.0120
vn 0.7023 0.7024 0.1159
vn 0.7114 0.7024 -0.0233
vn 0.8335 -0.5518 0.0272
vn 0.7024 -0.7023 0.1159
vn 0.7115 -0.7023 -0.0233
vn 0.9739 -0.0000 0.2268
vn 0.9071 -0.1938 0.3737
vn 0.9625 -0.1938 0.1896
vn 0.3633 0.9178 0.1601
vn 0.8656 -0.3800 0.3260
vn 0.5176 0.8261 0.2230
vn 0.5611 0.8180 0.1271
vn 0.8656 -0.3801 0.3260
vn 0.7597 -0.5518 0.3441
vn 0.5611 0.8179 0.1271
vn 0.6662 0.7024 0.2507
vn 0.6663 -0.7023 0.2507
vn 0.8122 0.5518 0.1893
vn 0.6663 0.7023 0.2507
vn 0.7597 0.5518 0.3441
vn 0.5611 -0.8179 0.1271
vn 0.6662 -0.7024 0.2507
vn 0.5176 -0.8260 0.2230
vn 0.8656 0.3801 0.3260
vn 0.5176 -0.8261 0.2230
vn 0.3710 -0.9135 0.1671
vn 0.9625 0.1938 0.1896
vn 0.8656 0.3800 0.3260
vn 0.9071 0.1938 0.3737
vn 0.4035 -0.9113 0.0823
vn 0.2242 -0.9701 0.0929
vn 0.9110 -0.0000 0.4124
vn 0.2058 0.9739 0.0955
vn 0.2241 -0.9701 0.0928
vn 0.5176 -0.8260 0.2231
vn 0.6045 -0.7024 0.3758
vn 0.4642 -0.8260 0.3197
vn 0.7597 0.5517 0.3441
vn 0.7854 0.3801 0.4886
vn 0.4641 -0.8261 0.3197
vn 0.3252 -0.9178 0.2280
vn 0.9071 0.1939 0.3737
vn 0.7854 0.3800 0.4887
vn 0.8167 0.1938 0.5435
vn 0.3251 -0.9178 0.2279
vn 0.1833 -0.9739 0.1338
vn 0.8168 0.1938 0.5435
vn 0.8130 -0.0000 0.5822
vn 0.2059 0.9739 0.0955
vn 0.1833 0.9739 0.1338
vn 0.8168 -0.1938 0.5435
vn 0.3251 0.9178 0.2279
vn 0.3634 0.9178 0.1602
vn 0.9071 -0.1939 0.3737
vn 0.7854 -0.3800 0.4886
vn 0.8656 -0.3800 0.3261
vn 0.4641 0.8261 0.3197
vn 0.5176 0.8261 0.2231
vn 0.7597 -0.5517 0.3441
vn 0.7854 -0.3801 0.4886
vn 0.6780 -0.5517 0.4857
vn 0.5176 0.8260 0.2231
vn 0.6045 0.7024 0.3758
vn 0.6046 -0.7023 0.3758
vn 0.6662 -0.7023 0.2507
vn 0.6046 0.7023 0.3758
vn 0.6780 0.5518 0.4856
vn 0.1833 0.9739 0.1339
vn 0.2575 0.9314 0.2575
vn 0.3251 0.9178 0.2280
vn 0.8167 -0.1938 0.5435
vn 0.6750 -0.3800 0.6325
vn 0.7854 -0.3800 0.4887
vn 0.3252 0.9178 0.2280
vn 0.3834 0.8323 0.4004
vn 0.6780 -0.5518 0.4857
vn 0.6750 -0.3801 0.6324
vn 0.5702 -0.5518 0.6086
vn 0.4641 0.8260 0.3198
vn 0.5196 0.7024 0.4866
vn 0.6779 -0.5518 0.4857
vn 0.5196 -0.7023 0.4866
vn 0.6045 -0.7023 0.3759
vn 0.6779 0.5518 0.4857
vn 0.5196 0.7023 0.4866
vn 0.5702 0.5518 0.6086
vn 0.4641 -0.8260 0.3198
vn 0.5196 -0.7024 0.4865
vn 0.3834 -0.8323 0.4004
vn 0.6780 0.5518 0.4857
vn 0.6749 0.3801 0.6324
vn 0.7853 0.3801 0.4887
vn 0.2575 -0.9313 0.2575
vn 0.6750 0.3800 0.6325
vn 0.6950 0.1938 0.6924
vn 0.1833 -0.9739 0.1339
vn 0.1380 -0.9808 0.1380
vn 0.6838 -0.0000 0.7296
vn 0.1379 0.9808 0.1379
vn 0.1379 -0.9808 0.1379
vn 0.6950 -0.1938 0.6923
vn 0.5702 0.5517 0.6087
vn 0.5386 0.3801 0.7520
vn 0.6749 0.3801 0.6325
vn 0.2337 -0.9072 0.3497
vn 0.5386 0.3800 0.7520
vn 0.5466 0.1938 0.8146
vn 0.2575 -0.9314 0.2575
vn 0.1348 -0.9701 0.2017
vn 0.5466 0.1938 0.8147
vn 0.5284 -0.0000 0.8490
vn 0.1348 0.9701 0.2017
vn 0.6838 -0.0000 0.7297
vn 0.5466 -0.1938 0.8147
vn 0.6950 -0.1938 0.6924
vn 0.2337 0.9073 0.3497
vn 0.5386 -0.3800 0.7520
vn 0.6749 -0.3800 0.6325
vn 0.2337 0.9072 0.3497
vn 0.3069 0.8180 0.4866
vn 0.5702 -0.5517 0.6087
vn 0.5386 -0.3801 0.7520
vn 0.4405 -0.5518 0.7082
vn 0.4147 0.7024 0.5786
vn 0.4147 -0.7023 0.5786
vn 0.4147 0.7023 0.5786
vn 0.4405 0.5518 0.7082
vn 0.4147 -0.7024 0.5786
vn 0.3069 -0.8179 0.4866
vn 0.3816 -0.3800 0.8426
vn 0.2083 0.8261 0.5237
vn 0.3815 -0.3801 0.8426
vn 0.2939 -0.5518 0.7805
vn 0.3069 0.8179 0.4866
vn 0.2938 0.7024 0.6484
vn 0.4146 0.7024 0.5786
vn 0.2939 -0.7023 0.6484
vn 0.2939 0.7023 0.6484
vn 0.2939 0.5518 0.7805
vn 0.2938 -0.7024 0.6483
vn 0.2083 -0.8260 0.5237
vn 0.3815 0.3801 0.8426
vn 0.2083 -0.8261 0.5237
vn 0.1437 -0.9178 0.3702
vn 0.3815 0.3800 0.8426
vn 0.3772 0.1938 0.9056
vn 0.1348 -0.9701 0.2018
vn 0.1437 -0.9178 0.3701
vn 0.0781 -0.9739 0.2131
vn 0.5283 -0.0000 0.8490
vn 0.3526 -0.0000 0.9358
vn 0.0780 0.9739 0.2131
vn 0.0780 -0.9739 0.2131
vn 0.3772 -0.1938 0.9056
vn 0.1348 0.9701 0.2018
vn 0.1437 0.9178 0.3701
vn 0.2336 0.9073 0.3497
vn 0.1021 -0.8261 0.5543
vn 0.0656 -0.9213 0.3833
vn 0.2098 0.3800 0.9009
vn 0.1933 0.1938 0.9618
vn 0.0381 -0.9808 0.1914
vn 0.3525 -0.0000 0.9358
vn 0.1932 0.1938 0.9618
vn 0.1632 -0.0000 0.9866
vn 0.0381 0.9808 0.1913
vn 0.0381 -0.9808 0.1913
vn 0.1932 -0.1938 0.9618
vn 0.0781 0.9739 0.2131
vn 0.0656 0.9213 0.3833
vn 0.1437 0.9178 0.3702
vn 0.2098 -0.3800 0.9009
vn 0.3815 -0.3800 0.8426
vn 0.1021 0.8261 0.5543
vn 0.2082 0.8261 0.5237
vn 0.2939 -0.5517 0.7805
vn 0.2098 -0.3801 0.9008
vn 0.1360 -0.5518 0.8228
vn 0.2083 0.8260 0.5237
vn 0.1617 0.7024 0.6932
vn 0.2938 0.7024 0.6483
vn 0.1617 -0.7023 0.6933
vn 0.2938 -0.7023 0.6484
vn 0.1617 0.7023 0.6932
vn 0.1360 0.5518 0.8228
vn 0.1617 -0.7024 0.6932
vn 0.1021 -0.8260 0.5543
vn 0.2098 0.3801 0.9008
vn 0.1359 -0.5517 0.8229
vn 0.0300 -0.3801 0.9245
vn -0.0272 -0.5518 0.8336
vn 0.1021 0.8260 0.5543
vn 0.0234 0.7024 0.7114
vn 0.0234 -0.7023 0.7115
vn 0.0234 0.7023 0.7115
vn -0.0271 0.5518 0.8335
vn 0.0234 -0.7024 0.7114
vn -0.0120 -0.8323 0.5543
vn 0.1359 0.5517 0.8229
vn 0.0300 0.3801 0.9245
vn 0.2098 0.3801 0.9009
vn -0.0120 -0.8323 0.5542
vn -0.0032 -0.9281 0.3724
vn 0.0301 0.3800 0.9245
vn 0.0019 0.1938 0.9810
vn 0.0095 -0.9739 0.2268
vn -0.0323 -0.0000 0.9995
vn 0.0380 0.9808 0.1913
vn 0.0095 0.9739 0.2267
vn 0.0095 -0.9739 0.2267
vn 0.0019 -0.1938 0.9810
vn 0.0095 0.9739 0.2268
vn -0.0032 0.9281 0.3724
vn 0.0301 -0.3800 0.9245
vn -0.0120 0.8323 0.5542
vn -0.0033 -0.9281 0.3723
vn -0.0350 -0.9739 0.2243
vn 0.0094 -0.9739 0.2268
vn -0.0324 -0.0000 0.9995
vn -0.1895 0.1938 0.9626
vn -0.2267 -0.0000 0.9740
vn 0.0094 0.9739 0.2267
vn -0.0350 0.9739 0.2242
vn 0.0094 -0.9739 0.2267
vn -0.0350 -0.9739 0.2242
vn -0.1895 -0.1938 0.9626
vn -0.0033 0.9281 0.3723
vn -0.0350 0.9739 0.2243
vn -0.0823 0.9113 0.4035
vn 0.0018 -0.1939 0.9810
vn -0.1509 -0.3800 0.9126
vn 0.0300 -0.3800 0.9245
vn -0.0823 0.9112 0.4036
vn -0.1270 0.8180 0.5611
vn -0.0272 -0.5517 0.8336
vn -0.1893 -0.5518 0.8122
vn -0.0120 0.8323 0.5543
vn -0.1159 0.7024 0.7023
vn -0.0272 -0.5518 0.8335
vn -0.1159 -0.7023 0.7024
vn 0.0233 -0.7023 0.7115
vn -0.0272 0.5518 0.8335
vn -0.1159 0.7023 0.7024
vn -0.1893 0.5518 0.8122
vn -0.1159 -0.7024 0.7023
vn -0.1270 -0.8179 0.5611
vn -0.0272 0.5517 0.8336
vn -0.1509 0.3800 0.9126
vn -0.0823 -0.9112 0.4036
vn -0.0033 -0.9281 0.3724
vn 0.0018 0.1939 0.9810
vn -0.1271 0.8179 0.5611
vn -0.2507 0.7024 0.6662
vn -0.2507 -0.7023 0.6663
vn -0.2507 0.7023 0.6663
vn -0.3441 0.5518 0.7597
vn -0.1271 -0.8179 0.5611
vn -0.2507 -0.7024 0.6662
vn -0.2232 -0.8323 0.5075
vn -0.1893 0.5517 0.8122
vn -0.3260 0.3801 0.8656
vn -0.1509 0.3801 0.9126
vn -0.2232 -0.8323 0.5074
vn -0.1455 -0.9281 0.3428
vn -0.1896 0.1938 0.9625
vn -0.3260 0.3800 0.8656
vn -0.3737 0.1938 0.9071
vn -0.0823 -0.9113 0.4035
vn -0.0781 -0.9739 0.2131
vn -0.2268 -0.0000 0.9739
vn -0.4124 -0.0000 0.9110
vn -0.0928 0.9701 0.2241
vn -0.0780 -0.9739 0.2131
vn -0.3737 -0.1938 0.9071
vn -0.0928 0.9701 0.2242
vn -0.1671 0.9135 0.3710
vn -0.1896 -0.1938 0.9625
vn -0.3260 -0.3800 0.8656
vn -0.2230 0.8261 0.5176
vn -0.1271 0.8180 0.5611
vn -0.1893 -0.5517 0.8122
vn -0.3260 -0.3801 0.8656
vn -0.3441 -0.5518 0.7597
vn -0.5435 0.1938 0.8168
vn -0.5822 -0.0000 0.8130
vn -0.1338 0.9739 0.1833
vn -0.1348 -0.9701 0.2017
vn -0.5435 -0.1938 0.8168
vn -0.0929 0.9701 0.2242
vn -0.2041 0.9281 0.3114
vn -0.3737 -0.1939 0.9071
vn -0.4886 -0.3800 0.7854
vn -0.3261 -0.3800 0.8656
vn -0.3179 0.8323 0.4541
vn -0.2231 0.8261 0.5176
vn -0.3441 -0.5517 0.7597
vn -0.4886 -0.3801 0.7854
vn -0.4857 -0.5518 0.6780
vn -0.2231 0.8260 0.5176
vn -0.3758 0.7024 0.6045
vn -0.3758 -0.7023 0.6046
vn -0.2507 -0.7023 0.6662
vn -0.3758 0.7023 0.6046
vn -0.4856 0.5518 0.6780
vn -0.3758 -0.7024 0.6045
vn -0.3287 -0.8259 0.4581
vn -0.3441 0.5517 0.7597
vn -0.4886 0.3800 0.7854
vn -0.3261 0.3801 0.8656
vn -0.2157 -0.9135 0.3451
vn -0.3737 0.1939 0.9071
vn -0.4887 0.3800 0.7854
vn -0.5434 0.1939 0.8168
vn -0.1455 -0.9281 0.3427
vn -0.4866 -0.7023 0.5196
vn -0.3759 -0.7023 0.6045
vn -0.4857 0.5518 0.6780
vn -0.4866 0.7023 0.5196
vn -0.6086 0.5518 0.5702
vn -0.4865 -0.7024 0.5196
vn -0.4117 -0.8259 0.3852
vn -0.4857 0.5517 0.6780
vn -0.6324 0.3801 0.6749
vn -0.4887 0.3801 0.7853
vn -0.3287 -0.8259 0.4580
vn -0.2675 -0.9213 0.2823
vn -0.5435 0.1938 0.8167
vn -0.6325 0.3800 0.6750
vn -0.6924 0.1938 0.6950
vn -0.1380 -0.9808 0.1380
vn -0.7296 -0.0000 0.6838
vn -0.1379 0.9808 0.1379
vn -0.1379 -0.9808 0.1379
vn -0.6924 -0.1938 0.6950
vn -0.5435 -0.1938 0.8167
vn -0.1339 0.9739 0.1833
vn -0.2675 0.9213 0.2823
vn -0.2042 0.9281 0.3114
vn -0.6325 -0.3800 0.6750
vn -0.4887 -0.3800 0.7854
vn -0.4117 0.8259 0.3851
vn -0.4857 -0.5517 0.6780
vn -0.6324 -0.3801 0.6749
vn -0.6086 -0.5518 0.5702
vn -0.3179 0.8323 0.4542
vn -0.4865 0.7024 0.5196
vn -0.2017 0.9701 0.1348
vn -0.2017 -0.9701 0.1348
vn -0.7297 -0.0000 0.6838
vn -0.8146 -0.1938 0.5466
vn -0.2675 0.9213 0.2822
vn -0.3497 0.9073 0.2336
vn -0.7520 -0.3800 0.5386
vn -0.6325 -0.3800 0.6749
vn -0.3497 0.9072 0.2337
vn -0.4866 0.8180 0.3069
vn -0.6087 -0.5517 0.5702
vn -0.7520 -0.3801 0.5386
vn -0.7082 -0.5518 0.4405
vn -0.4117 0.8259 0.3852
vn -0.5786 0.7024 0.4147
vn -0.4866 0.7024 0.5195
vn -0.5786 -0.7023 0.4147
vn -0.5786 0.7023 0.4147
vn -0.7081 0.5518 0.4405
vn -0.4117 -0.8259 0.3851
vn -0.5786 -0.7024 0.4147
vn -0.4790 -0.8259 0.2975
vn -0.6087 0.5517 0.5702
vn -0.7520 0.3801 0.5386
vn -0.6325 0.3801 0.6749
vn -0.3313 -0.9135 0.2363
vn -0.7520 0.3800 0.5386
vn -0.8146 0.1938 0.5466
vn -0.2675 -0.9213 0.2822
vn -0.8147 0.1938 0.5466
vn -0.8490 -0.0000 0.5284
vn -0.7082 0.5518 0.4405
vn -0.6484 0.7023 0.2939
vn -0.7805 0.5518 0.2939
vn -0.4789 -0.8259 0.2974
vn -0.6483 -0.7024 0.2939
vn -0.5278 -0.8259 0.1983
vn -0.7082 0.5517 0.4405
vn -0.8426 0.3801 0.3815
vn -0.3615 -0.9177 0.1647
vn -0.8426 0.3800 0.3816
vn -0.9056 0.1938 0.3772
vn -0.3614 -0.9177 0.1647
vn -0.2131 -0.9739 0.0781
vn -0.8490 -0.0000 0.5283
vn -0.9358 -0.0000 0.3526
vn -0.2131 0.9739 0.0780
vn -0.2131 -0.9739 0.0780
vn -0.9056 -0.1938 0.3772
vn -0.8147 -0.1938 0.5466
vn -0.3427 0.9281 0.1455
vn -0.8426 -0.3800 0.3816
vn -0.5166 0.8323 0.2010
vn -0.7082 -0.5517 0.4405
vn -0.8426 -0.3801 0.3815
vn -0.7805 -0.5518 0.2939
vn -0.4866 0.8179 0.3069
vn -0.6483 0.7024 0.2938
vn -0.5786 0.7024 0.4146
vn -0.6484 -0.7023 0.2939
vn -0.9358 -0.0000 0.3525
vn -0.9618 -0.1938 0.1933
vn -0.3866 0.9177 0.0910
vn -0.3428 0.9281 0.1455
vn -0.9009 -0.3800 0.2098
vn -0.8426 -0.3800 0.3815
vn -0.3867 0.9177 0.0910
vn -0.5563 0.8259 0.0915
vn -0.7805 -0.5517 0.2939
vn -0.9009 -0.3801 0.2098
vn -0.8228 -0.5518 0.1360
vn -0.5167 0.8323 0.2010
vn -0.6932 0.7024 0.1617
vn -0.6933 -0.7023 0.1617
vn -0.6484 -0.7023 0.2938
vn -0.6933 0.7023 0.1617
vn -0.8228 0.5518 0.1360
vn -0.6932 -0.7024 0.1617
vn -0.5563 -0.8259 0.0915
vn -0.7805 0.5517 0.2939
vn -0.9009 0.3800 0.2098
vn -0.5277 -0.8259 0.1983
vn -0.3867 -0.9177 0.0910
vn -0.9618 0.1939 0.1933
vn -0.3866 -0.9177 0.0910
vn -0.2243 -0.9739 0.0350
vn -0.9618 0.1938 0.1932
vn -0.9866 -0.0000 0.1633
vn -0.2242 0.9739 0.0350
vn -0.2242 -0.9739 0.0350
vn -0.7114 -0.7024 0.0234
vn -0.5635 -0.8259 -0.0188
vn -0.8229 0.5517 0.1359
vn -0.9245 0.3801 0.0300
vn -0.9009 0.3801 0.2098
vn -0.3888 -0.9213 0.0105
vn -0.9245 0.3800 0.0300
vn -0.9810 0.1938 0.0019
vn -0.3887 -0.9213 0.0105
vn -0.1951 -0.9808 -0.0000
vn -0.9866 -0.0000 0.1632
vn -0.9995 -0.0000 -0.0324
vn -0.1951 0.9808 -0.0000
vn -0.9810 -0.1938 0.0019
vn -0.9618 -0.1938 0.1932
vn -0.2243 0.9739 0.0350
vn -0.3887 0.9213 0.0105
vn -0.9245 -0.3800 0.0301
vn -0.3888 0.9213 0.0105
vn -0.5634 0.8259 -0.0188
vn -0.8229 -0.5517 0.1360
vn -0.9245 -0.3801 0.0300
vn -0.8336 -0.5518 -0.0272
vn -0.7114 0.7024 0.0234
vn -0.7115 -0.7023 0.0234
vn -0.7115 0.7023 0.0234
vn -0.8335 0.5518 -0.0271
vn -0.9126 -0.3800 -0.1509
vn -0.9245 -0.3800 0.0300
vn -0.3911 0.9178 -0.0687
vn -0.5490 0.8259 -0.1283
vn -0.8336 -0.5517 -0.0272
vn -0.8122 -0.5518 -0.1893
vn -0.5635 0.8259 -0.0188
vn -0.7023 0.7024 -0.1159
vn -0.7114 0.7024 0.0233
vn -0.8335 -0.5518 -0.0272
vn -0.7024 -0.7023 -0.1159
vn -0.7115 -0.7023 0.0233
vn -0.8335 0.5518 -0.0272
vn -0.7024 0.7023 -0.1159
vn -0.8122 0.5518 -0.1893
vn -0.7023 -0.7024 -0.1159
vn -0.5490 -0.8259 -0.1283
vn -0.8336 0.5517 -0.0272
vn -0.9126 0.3800 -0.1509
vn -0.5634 -0.8259 -0.0188
vn -0.3911 -0.9178 -0.0687
vn -0.9626 0.1938 -0.1895
vn -0.2243 -0.9739 -0.0350
vn -0.9740 -0.0000 -0.2267
vn -0.2242 0.9739 -0.0350
vn -0.2242 -0.9739 -0.0350
vn -0.9626 -0.1938 -0.1895
vn -0.3887 0.9213 0.0104
vn -0.2243 0.9739 -0.0350
vn -0.5490 -0.8259 -0.1284
vn -0.3805 -0.9135 -0.1442
vn -0.9625 0.1938 -0.1896
vn -0.8656 0.3800 -0.3260
vn -0.9071 0.1938 -0.3737
vn -0.2242 -0.9701 -0.0929
vn -0.9739 -0.0000 -0.2268
vn -0.9110 -0.0000 -0.4124
vn -0.2241 0.9701 -0.0928
vn -0.2241 -0.9701 -0.0928
vn -0.9071 -0.1938 -0.3737
vn -0.9625 -0.1938 -0.1896
vn -0.2242 0.9701 -0.0929
vn -0.3805 0.9135 -0.1442
vn -0.8656 -0.3800 -0.3260
vn -0.5490 0.8259 -0.1284
vn -0.5134 0.8259 -0.2330
vn -0.8123 -0.5517 -0.1893
vn -0.8656 -0.3801 -0.3260
vn -0.7597 -0.5517 -0.3441
vn -0.6662 0.7024 -0.2507
vn -0.6663 -0.7023 -0.2507
vn -0.6663 0.7023 -0.2507
vn -0.7597 0.5518 -0.3440
vn -0.6662 -0.7024 -0.2507
vn -0.5134 -0.8259 -0.2330
vn -0.8122 0.5517 -0.1893
vn -0.8656 0.3801 -0.3260
vn -0.9126 0.3801 -0.1509
vn -0.3378 0.9177 -0.2091
vn -0.4581 0.8259 -0.3286
vn -0.7854 -0.3801 -0.4886
vn -0.6780 -0.5518 -0.4857
vn -0.6045 0.7024 -0.3758
vn -0.7597 -0.5518 -0.3441
vn -0.6046 -0.7023 -0.3758
vn -0.6662 -0.7023 -0.2507
vn -0.7597 0.5518 -0.3441
vn -0.6046 0.7023 -0.3758
vn -0.6780 0.5518 -0.4856
vn -0.6045 -0.7024 -0.3758
vn -0.4581 -0.8259 -0.3287
vn -0.7597 0.5517 -0.3441
vn -0.7854 0.3801 -0.4886
vn -0.8656 0.3801 -0.3261
vn -0.3291 -0.9213 -0.2073
vn -0.7854 0.3800 -0.4886
vn -0.8168 0.1938 -0.5435
vn -0.3290 -0.9213 -0.2073
vn -0.1622 -0.9808 -0.1084
vn -0.8130 -0.0000 -0.5822
vn -0.1833 0.9739 -0.1338
vn -0.8168 -0.1938 -0.5435
vn -0.3377 0.9177 -0.2090
vn -0.7854 -0.3800 -0.4886
vn -0.8656 -0.3800 -0.3261
vn -0.8167 0.1938 -0.5435
vn -0.6750 0.3800 -0.6325
vn -0.6950 0.1938 -0.6924
vn -0.3290 -0.9213 -0.2072
vn -0.1716 -0.9701 -0.1716
vn -0.6838 -0.0000 -0.7296
vn -0.1536 0.9739 -0.1670
vn -0.1715 -0.9701 -0.1715
vn -0.6950 -0.1938 -0.6924
vn -0.8167 -0.1938 -0.5435
vn -0.1833 0.9739 -0.1339
vn -0.2904 0.9177 -0.2709
vn -0.3377 0.9177 -0.2091
vn -0.6750 -0.3800 -0.6325
vn -0.7854 -0.3800 -0.4887
vn -0.4580 0.8259 -0.3287
vn -0.2905 0.9177 -0.2709
vn -0.3851 0.8259 -0.4117
vn -0.6780 -0.5517 -0.4857
vn -0.6749 -0.3801 -0.6324
vn -0.5702 -0.5518 -0.6086
vn -0.4581 0.8259 -0.3287
vn -0.5196 0.7024 -0.4865
vn -0.5196 -0.7023 -0.4866
vn -0.6045 -0.7023 -0.3759
vn -0.6780 0.5518 -0.4857
vn -0.5196 0.7023 -0.4866
vn -0.5702 0.5518 -0.6086
vn -0.5196 -0.7024 -0.4865
vn -0.3852 -0.8259 -0.4117
vn -0.6780 0.5517 -0.4857
vn -0.6749 0.3801 -0.6324
vn -0.7853 0.3801 -0.4887
vn -0.4580 -0.8259 -0.3287
vn -0.2964 -0.9135 -0.2788
vn -0.5702 -0.5517 -0.6087
vn -0.5386 -0.3801 -0.7520
vn -0.4405 -0.5518 -0.7082
vn -0.3852 0.8259 -0.4117
vn -0.4147 0.7024 -0.5786
vn -0.5195 0.7024 -0.4866
vn -0.4147 -0.7023 -0.5786
vn -0.4147 0.7023 -0.5786
vn -0.4405 0.5518 -0.7081
vn -0.3851 -0.8259 -0.4117
vn -0.4147 -0.7024 -0.5786
vn -0.2975 -0.8259 -0.4790
vn -0.5702 0.5517 -0.6087
vn -0.5386 0.3801 -0.7520
vn -0.6749 0.3801 -0.6325
vn -0.2247 -0.9213 -0.3174
vn -0.5386 0.3800 -0.7520
vn -0.5466 0.1938 -0.8146
vn -0.1084 -0.9808 -0.1622
vn -0.5466 0.1938 -0.8147
vn -0.5284 -0.0000 -0.8490
vn -0.1084 0.9808 -0.1622
vn -0.6838 -0.0000 -0.7297
vn -0.5466 -0.1938 -0.8146
vn -0.1537 0.9739 -0.1670
vn -0.2247 0.9213 -0.3174
vn -0.5386 -0.3800 -0.7520
vn -0.6749 -0.3800 -0.6325
vn -0.2974 0.8259 -0.4789
vn -0.2246 -0.9213 -0.3174
vn -0.0929 -0.9701 -0.2242
vn -0.5283 -0.0000 -0.8490
vn -0.3772 0.1938 -0.9056
vn -0.3526 -0.0000 -0.9358
vn -0.0928 0.9701 -0.2241
vn -0.0928 -0.9701 -0.2241
vn -0.3772 -0.1938 -0.9056
vn -0.5466 -0.1938 -0.8147
vn -0.2246 0.9213 -0.3174
vn -0.0929 0.9701 -0.2242
vn -0.1671 0.9135 -0.3710
vn -0.3816 -0.3800 -0.8426
vn -0.1983 0.8259 -0.5277
vn -0.4405 -0.5517 -0.7082
vn -0.3815 -0.3801 -0.8426
vn -0.2939 -0.5518 -0.7805
vn -0.2938 0.7024 -0.6483
vn -0.4146 0.7024 -0.5786
vn -0.2939 -0.7023 -0.6484
vn -0.4405 0.5518 -0.7082
vn -0.2939 0.7023 -0.6484
vn -0.2939 0.5518 -0.7805
vn -0.2974 -0.8259 -0.4789
vn -0.2938 -0.7024 -0.6483
vn -0.1983 -0.8259 -0.5278
vn -0.4405 0.5517 -0.7082
vn -0.3815 0.3800 -0.8426
vn -0.1671 -0.9135 -0.3710
vn -0.3816 0.3800 -0.8426
vn -0.1983 0.8259 -0.5278
vn -0.1502 0.7111 -0.6868
vn -0.1617 -0.7023 -0.6933
vn -0.2938 -0.7023 -0.6484
vn -0.1502 0.7111 -0.6869
vn -0.1472 0.5698 -0.8085
vn -0.1617 -0.7024 -0.6932
vn -0.0915 -0.8259 -0.5563
vn -0.2939 0.5517 -0.7805
vn -0.1938 0.3924 -0.8991
vn -0.3815 0.3801 -0.8426
vn -0.1983 -0.8259 -0.5277
vn -0.0861 -0.9213 -0.3792
vn -0.1938 0.3924 -0.8992
vn -0.1932 0.1938 -0.9618
vn -0.0381 -0.9808 -0.1914
vn -0.3525 -0.0000 -0.9358
vn -0.1632 -0.0000 -0.9866
vn -0.0350 0.9739 -0.2242
vn -0.0381 -0.9808 -0.1913
vn -0.1932 -0.1938 -0.9618
vn -0.3771 -0.1938 -0.9057
vn -0.0910 0.9177 -0.3866
vn -0.1938 -0.3924 -0.8992
vn -0.3815 -0.3800 -0.8426
vn -0.0910 0.9177 -0.3867
vn -0.0993 0.8394 -0.5344
vn -0.2939 -0.5517 -0.7805
vn -0.1938 -0.3924 -0.8991
vn -0.1472 -0.5698 -0.8085
vn 0.0193 -0.0194 -0.9996
vn -0.0095 -0.9739 -0.2267
vn -0.0350 0.9739 -0.2243
vn -0.0105 0.9213 -0.3887
vn -0.0105 0.9213 -0.3888
vn -0.0190 -0.5375 -0.8430
vn -0.1471 -0.5698 -0.8085
vn -0.0080 0.8260 -0.5636
vn -0.0190 0.5376 -0.8430
vn 0.0068 -0.8394 -0.5435
vn -0.0190 0.5375 -0.8430
vn -0.0095 -0.9739 -0.2268
vn -0.0380 -0.9808 -0.1914
vn 0.1895 -0.1939 -0.9625
vn 0.1622 -0.3635 -0.9174
vn -0.0189 -0.5376 -0.8430
vn -0.0189 0.5375 -0.8430
vn 0.1623 0.3634 -0.9174
vn 0.3905 0.2134 -0.8956
vn 0.1623 -0.3635 -0.9174
vn 0.2786 0.7025 -0.6549
vn 0.3240 0.5519 -0.7684
vn 0.3198 0.8260 -0.4642
vn 0.3779 0.7184 -0.5841
vn 0.2231 -0.8261 -0.5176
vn 0.3261 0.3800 -0.8656
vn 0.3905 0.2134 -0.8955
vn 0.4887 0.3800 -0.7853
vn 0.2280 -0.9178 -0.3251
vn 0.1380 0.9808 -0.1380
vn 0.2575 0.9313 -0.2575
vn 0.4887 -0.3801 -0.7853
vn 0.3779 -0.7184 -0.5840
vn 0.4866 -0.7024 -0.5195
vn 0.4866 -0.8180 -0.3069
vn 0.6325 0.3800 -0.6749
vn 0.3497 -0.9073 -0.2337
vn 0.2131 0.9739 -0.0781
vn 0.9056 -0.1939 -0.3772
vn 0.7520 -0.3801 -0.5386
vn 0.5786 -0.7024 -0.4146
vn 0.6484 0.7023 -0.2938
vn 0.6483 -0.7024 -0.2938
vn 0.5670 -0.8180 -0.0974
vn 0.8426 0.3800 -0.3815
vn 0.9057 0.1938 -0.3771
vn 0.3641 0.9313 -0.0000
vn 0.9009 -0.3801 -0.2098
vn 0.8335 -0.5518 0.0271
vn 0.5670 -0.8180 -0.0973
vn 0.7115 0.7023 -0.0233
vn 0.7114 -0.7024 -0.0233
vn 0.5611 -0.8180 0.1270
vn 0.9810 0.1938 -0.0018
vn 0.9625 -0.1938 0.1895
vn 0.3642 0.9313 -0.0000
vn 0.3634 0.9178 0.1601
vn 0.7023 0.7023 0.1159
vn 0.5611 -0.8180 0.1271
vn 0.5176 -0.8261 0.2231
vn 0.8656 0.3800 0.3261
vn 0.4642 0.8260 0.3198
vn 0.6780 -0.5518 0.4856
vn 0.6662 0.7023 0.2507
vn 0.1380 0.9808 0.1380
vn 0.6950 -0.1939 0.6924
vn 0.2575 0.9313 0.2575
vn 0.7853 -0.3801 0.4887
vn 0.6045 0.7023 0.3759
vn 0.6045 -0.7024 0.3759
vn 0.4641 -0.8261 0.3198
vn 0.7853 0.3800 0.4887
vn 0.3251 -0.9178 0.2280
vn 0.3069 -0.8180 0.4866
vn 0.6749 0.3800 0.6325
vn 0.2337 -0.9073 0.3497
vn 0.6749 -0.3801 0.6325
vn 0.4146 -0.7024 0.5786
vn 0.2336 -0.9073 0.3497
vn 0.2082 -0.8261 0.5237
vn 0.0381 0.9808 0.1914
vn 0.2938 0.7023 0.6484
vn 0.2098 -0.3801 0.9009
vn -0.0271 -0.5518 0.8335
vn -0.0272 0.5518 0.8336
vn 0.0094 0.9739 0.2268
vn -0.1895 -0.1938 0.9625
vn -0.0033 0.9281 0.3724
vn 0.0233 0.7023 0.7115
vn -0.1270 -0.8180 0.5611
vn 0.0300 0.3800 0.9245
vn -0.3440 -0.5518 0.7597
vn -0.1159 0.7023 0.7023
vn -0.1271 -0.8180 0.5611
vn -0.1509 -0.3801 0.9126
vn -0.5434 -0.1939 0.8168
vn -0.2042 0.9281 0.3115
vn -0.3261 -0.3801 0.8656
vn -0.4856 -0.5518 0.6780
vn -0.2507 0.7023 0.6662
vn -0.3286 -0.8259 0.4581
vn -0.3261 0.3800 0.8656
vn -0.2156 -0.9135 0.3451
vn -0.3759 0.7023 0.6045
vn -0.3759 -0.7024 0.6045
vn -0.4887 0.3800 0.7853
vn -0.2156 -0.9135 0.3450
vn -0.1380 0.9808 0.1380
vn -0.6924 -0.1939 0.6950
vn -0.4887 -0.3801 0.7853
vn -0.6325 -0.3801 0.6749
vn -0.4866 -0.7024 0.5195
vn -0.6325 0.3800 0.6749
vn -0.5786 -0.7024 0.4146
vn -0.2131 0.9739 0.0781
vn -0.9618 -0.1939 0.1933
vn -0.6484 0.7023 0.2938
vn -0.6484 -0.7024 0.2938
vn -0.8426 0.3800 0.3815
vn -0.6932 -0.7023 0.1617
vn -0.8336 0.5518 -0.0272
vn -0.8335 -0.5518 -0.0271
vn -0.6932 0.7023 0.1617
vn -0.9625 -0.1938 -0.1895
vn -0.7115 0.7023 0.0233
vn -0.7114 -0.7024 0.0233
vn -0.9126 -0.3801 -0.1509
vn -0.7597 -0.5518 -0.3440
vn -0.8656 -0.3801 -0.3261
vn -0.6780 -0.5518 -0.4856
vn -0.6662 0.7023 -0.2507
vn -0.4580 -0.8259 -0.3286
vn -0.8656 0.3800 -0.3261
vn -0.7853 0.3800 -0.4887
vn -0.7853 -0.3801 -0.4887
vn -0.6045 0.7023 -0.3759
vn -0.6045 -0.7023 -0.3758
vn -0.2975 0.8259 -0.4790
vn -0.4405 -0.5518 -0.7081
vn -0.5195 -0.7024 -0.4866
vn -0.6749 0.3800 -0.6325
vn -0.4146 -0.7024 -0.5786
vn -0.2938 0.7023 -0.6484
vn -0.3771 0.1938 -0.9057
vn -0.0190 -0.5376 -0.8430
vn -0.1471 0.5698 -0.8085
vn 0.0068 -0.8394 -0.5434
vt 0.750000 0.125000
vt 0.718750 0.062500
vt 0.750000 0.062500
vt 0.750000 0.562500
vt 0.718750 0.500000
vt 0.750000 0.500000
vt 0.750000 0.937500
vt 0.734375 1.000000
vt 0.718750 0.937500
vt 0.734375 0.000000
vt 0.718750 0.437500
vt 0.750000 0.437500
vt 0.750000 0.875000
vt 0.718750 0.875000
vt 0.718750 0.375000
vt 0.750000 0.375000
vt 0.750000 0.812500
vt 0.718750 0.812500
vt 0.718750 0.312500
vt 0.750000 0.312500
vt 0.750000 0.750000
vt 0.718750 0.750000
vt 0.750000 0.250000
vt 0.718750 0.250000
vt 0.718750 0.687500
vt 0.750000 0.687500
vt 0.718750 0.187500
vt 0.750000 0.187500
vt 0.750000 0.625000
vt 0.718750 0.625000
vt 0.718750 0.125000
vt 0.718750 0.562500
vt 0.687500 0.187500
vt 0.687500 0.125000
vt 0.687500 0.625000
vt 0.687500 0.562500
vt 0.687500 0.062500
vt 0.687500 0.500000
vt 0.703125 1.000000
vt 0.687500 0.937500
vt 0.703125 0.000000
vt 0.687500 0.437500
vt 0.687500 0.875000
vt 0.687500 0.375000
vt 0.687500 0.812500
vt 0.687500 0.312500
vt 0.687500 0.750000
vt 0.687500 0.250000
vt 0.687500 0.687500
vt 0.656250 0.812500
vt 0.656250 0.375000
vt 0.656250 0.312500
vt 0.656250 0.750000
vt 0.656250 0.250000
vt 0.656250 0.687500
vt 0.656250 0.187500
vt 0.656250 0.625000
vt 0.656250 0.125000
vt 0.656250 0.562500
vt 0.656250 0.062500
vt 0.656250 0.500000
vt 0.671875 1.000000
vt 0.656250 0.937500
vt 0.671875 0.000000
vt 0.656250 0.437500
vt 0.656250 0.875000
vt 0.625000 0.625000
vt 0.625000 0.562500
vt 0.625000 0.125000
vt 0.625000 0.062500
vt 0.625000 0.500000
vt 0.640625 1.000000
vt 0.625000 0.937500
vt 0.640625 0.000000
vt 0.625000 0.437500
vt 0.625000 0.875000
vt 0.625000 0.375000
vt 0.625000 0.812500
vt 0.625000 0.312500
vt 0.625000 0.750000
vt 0.625000 0.250000
vt 0.625000 0.687500
vt 0.625000 0.187500
vt 0.593750 0.375000
vt 0.593750 0.312500
vt 0.593750 0.750000
vt 0.593750 0.250000
vt 0.593750 0.687500
vt 0.593750 0.187500
vt 0.593750 0.625000
vt 0.593750 0.125000
vt 0.593750 0.562500
vt 0.593750 0.062500
vt 0.593750 0.500000
vt 0.609375 1.000000
vt 0.593750 0.937500
vt 0.609375 0.000000
vt 0.593750 0.437500
vt 0.593750 0.875000
vt 0.593750 0.812500
vt 0.562500 0.125000
vt 0.562500 0.062500
vt 0.562500 0.562500
vt 0.562500 0.500000
vt 0.578125 1.000000
vt 0.562500 0.937500
vt 0.578125 0.000000
vt 0.562500 0.437500
vt 0.562500 0.875000
vt 0.562500 0.375000
vt 0.562500 0.812500
vt 0.562500 0.312500
vt 0.562500 0.750000
vt 0.562500 0.250000
vt 0.562500 0.687500
vt 0.562500 0.187500
vt 0.562500 0.625000
vt 0.531250 0.250000
vt 0.531250 0.750000
vt 0.531250 0.687500
vt 0.531250 0.187500
vt 0.531250 0.625000
vt 0.531250 0.125000
vt 0.531250 0.562500
vt 0.531250 0.062500
vt 0.531250 0.500000
vt 0.546875 1.000000
vt 0.531250 0.937500
vt 0.546875 0.000000
vt 0.531250 0.437500
vt 0.531250 0.875000
vt 0.531250 0.375000
vt 0.531250 0.812500
vt 0.531250 0.312500
vt 0.515625 1.000000
vt 0.500000 0.937500
vt 0.515625 0.000000
vt 0.500000 0.062500
vt 0.500000 0.437500
vt 0.500000 0.875000
vt 0.500000 0.375000
vt 0.500000 0.812500
vt 0.500000 0.312500
vt 0.500000 0.750000
vt 0.500000 0.250000
vt 0.500000 0.687500
vt 0.500000 0.187500
vt 0.500000 0.625000
vt 0.500000 0.125000
vt 0.500000 0.562500
vt 0.500000 0.500000
vt 0.468750 0.750000
vt 0.468750 0.687500
vt 0.468750 0.250000
vt 0.468750 0.187500
vt 0.468750 0.625000
vt 0.468750 0.125000
vt 0.468750 0.562500
vt 0.468750 0.062500
vt 0.468750 0.500000
vt 0.484375 1.000000
vt 0.468750 0.937500
vt 0.484375 0.000000
vt 0.468750 0.437500
vt 0.468750 0.875000
vt 0.468750 0.375000
vt 0.468750 0.812500
vt 0.468750 0.312500
vt 0.437500 0.437500
vt 0.437500 0.875000
vt 0.437500 0.375000
vt 0.437500 0.812500
vt 0.437500 0.312500
vt 0.437500 0.750000
vt 0.437500 0.250000
vt 0.437500 0.687500
vt 0.437500 0.187500
vt 0.437500 0.625000
vt 0.437500 0.125000
vt 0.437500 0.562500
vt 0.437500 0.062500
vt 0.437500 0.500000
vt 0.453125 1.000000
vt 0.437500 0.937500
vt 0.453125 0.000000
vt 0.406250 0.250000
vt 0.406250 0.187500
vt 0.406250 0.625000
vt 0.406250 0.125000
vt 0.406250 0.562500
vt 0.406250 0.062500
vt 0.406250 0.500000
vt 0.421875 1.000000
vt 0.406250 0.937500
vt 0.421875 0.000000
vt 0.406250 0.437500
vt 0.406250 0.875000
vt 0.406250 0.375000
vt 0.406250 0.812500
vt 0.406250 0.312500
vt 0.406250 0.750000
vt 0.406250 0.687500
vt 0.375000 0.875000
vt 0.375000 0.375000
vt 0.375000 0.812500
vt 0.375000 0.312500
vt 0.375000 0.750000
vt 0.375000 0.250000
vt 0.375000 0.687500
vt 0.375000 0.187500
vt 0.375000 0.625000
vt 0.375000 0.125000
vt 0.375000 0.562500
vt 0.375000 0.062500
vt 0.375000 0.500000
vt 0.390625 1.000000
vt 0.375000 0.937500
vt 0.390625 0.000000
vt 0.375000 0.437500
vt 0.343750 0.625000
vt 0.343750 0.125000
vt 0.343750 0.562500
vt 0.343750 0.062500
vt 0.343750 0.500000
vt 0.359375 1.000000
vt 0.343750 0.937500
vt 0.359375 0.000000
vt 0.343750 0.437500
vt 0.343750 0.875000
vt 0.343750 0.375000
vt 0.343750 0.812500
vt 0.343750 0.312500
vt 0.343750 0.750000
vt 0.343750 0.250000
vt 0.343750 0.687500
vt 0.343750 0.187500
vt 0.312500 0.375000
vt 0.312500 0.812500
vt 0.312500 0.312500
vt 0.312500 0.750000
vt 0.312500 0.250000
vt 0.312500 0.687500
vt 0.312500 0.187500
vt 0.312500 0.625000
vt 0.312500 0.125000
vt 0.312500 0.562500
vt 0.312500 0.062500
vt 0.312500 0.500000
vt 0.328125 1.000000
vt 0.312500 0.937500
vt 0.328125 0.000000
vt 0.312500 0.437500
vt 0.312500 0.875000
vt 0.281250 0.187500
vt 0.281250 0.125000
vt 0.281250 0.625000
vt 0.281250 0.562500
vt 0.281250 0.062500
vt 0.281250 0.500000
vt 0.296875 1.000000
vt 0.281250 0.937500
vt 0.296875 0.000000
vt 0.281250 0.437500
vt 0.281250 0.875000
vt 0.281250 0.375000
vt 0.281250 0.812500
vt 0.281250 0.312500
vt 0.281250 0.750000
vt 0.281250 0.250000
vt 0.281250 0.687500
vt 0.250000 0.375000
vt 0.250000 0.312500
vt 0.250000 0.750000
vt 0.250000 0.250000
vt 0.250000 0.687500
vt 0.250000 0.187500
vt 0.250000 0.625000
vt 0.250000 0.125000
vt 0.250000 0.562500
vt 0.250000 0.062500
vt 0.250000 0.500000
vt 0.265625 1.000000
vt 0.250000 0.937500
vt 0.265625 0.000000
vt 0.250000 0.437500
vt 0.250000 0.875000
vt 0.250000 0.812500
vt 0.218750 0.062500
vt 0.218750 0.562500
vt 0.218750 0.500000
vt 0.234375 1.000000
vt 0.218750 0.937500
vt 0.234375 0.000000
vt 0.218750 0.437500
vt 0.218750 0.875000
vt 0.218750 0.375000
vt 0.218750 0.812500
vt 0.218750 0.312500
vt 0.218750 0.750000
vt 0.218750 0.250000
vt 0.218750 0.687500
vt 0.218750 0.187500
vt 0.218750 0.625000
vt 0.218750 0.125000
vt 0.187500 0.750000
vt 0.187500 0.250000
vt 0.187500 0.687500
vt 0.187500 0.187500
vt 0.187500 0.625000
vt 0.187500 0.125000
vt 0.187500 0.562500
vt 0.187500 0.062500
vt 0.187500 0.500000
vt 0.203125 1.000000
vt 0.187500 0.937500
vt 0.203125 0.000000
vt 0.187500 0.437500
vt 0.187500 0.875000
vt 0.187500 0.375000
vt 0.187500 0.812500
vt 0.187500 0.312500
vt 0.156250 0.562500
vt 0.156250 0.500000
vt 0.171875 1.000000
vt 0.156250 0.937500
vt 0.171875 0.000000
vt 0.156250 0.062500
vt 0.156250 0.437500
vt 0.156250 0.875000
vt 0.156250 0.375000
vt 0.156250 0.812500
vt 0.156250 0.312500
vt 0.156250 0.750000
vt 0.156250 0.250000
vt 0.156250 0.687500
vt 0.156250 0.187500
vt 0.156250 0.625000
vt 0.156250 0.125000
vt 0.125000 0.250000
vt 0.125000 0.750000
vt 0.125000 0.687500
vt 0.125000 0.187500
vt 0.125000 0.625000
vt 0.125000 0.125000
vt 0.125000 0.562500
vt 0.125000 0.062500
vt 0.125000 0.500000
vt 0.140625 1.000000
vt 0.125000 0.937500
vt 0.140625 0.000000
vt 0.125000 0.437500
vt 0.125000 0.875000
vt 0.125000 0.375000
vt 0.125000 0.812500
vt 0.125000 0.312500
vt 0.109375 1.000000
vt 0.093750 0.937500
vt 0.109375 0.000000
vt 0.093750 0.062500
vt 0.093750 0.437500
vt 0.093750 0.875000
vt 0.093750 0.375000
vt 0.093750 0.812500
vt 0.093750 0.312500
vt 0.093750 0.750000
vt 0.093750 0.250000
vt 0.093750 0.687500
vt 0.093750 0.187500
vt 0.093750 0.625000
vt 0.093750 0.125000
vt 0.093750 0.562500
vt 0.093750 0.500000
vt 0.062500 0.750000
vt 0.062500 0.687500
vt 0.062500 0.250000
vt 0.062500 0.187500
vt 0.062500 0.625000
vt 0.062500 0.125000
vt 0.062500 0.562500
vt 0.062500 0.062500
vt 0.062500 0.500000
vt 0.078125 1.000000
vt 0.062500 0.937500
vt 0.078125 0.000000
vt 0.062500 0.437500
vt 0.062500 0.875000
vt 0.062500 0.375000
vt 0.062500 0.812500
vt 0.062500 0.312500
vt 0.031250 0.437500
vt 0.031250 0.875000
vt 0.031250 0.375000
vt 0.031250 0.812500
vt 0.031250 0.312500
vt 0.031250 0.750000
vt 0.031250 0.250000
vt 0.031250 0.687500
vt 0.031250 0.187500
vt 0.031250 0.625000
vt 0.031250 0.125000
vt 0.031250 0.562500
vt 0.031250 0.062500
vt 0.031250 0.500000
vt 0.046875 1.000000
vt 0.031250 0.937500
vt 0.046875 0.000000
vt 0.000000 0.250000
vt 0.000000 0.187500
vt 0.000000 0.625000
vt 0.000000 0.125000
vt 0.000000 0.562500
vt 0.000000 0.062500
vt 0.000000 0.500000
vt 0.015625 1.000000
vt 0.000000 0.937500
vt 0.015625 0.000000
vt 0.000000 0.437500
vt 0.000000 0.875000
vt 0.000000 0.375000
vt 0.000000 0.812500
vt 0.000000 0.312500
vt 0.000000 0.750000
vt 0.000000 0.687500
vt 1.000000 0.437500
vt 0.968750 0.375000
vt 1.000000 0.375000
vt 1.000000 0.812500
vt 0.968750 0.875000
vt 0.968750 0.812500
vt 1.000000 0.312500
vt 0.968750 0.312500
vt 0.968750 0.750000
vt 1.000000 0.750000
vt 0.968750 0.250000
vt 1.000000 0.250000
vt 1.000000 0.687500
vt 0.968750 0.687500
vt 1.000000 0.187500
vt 0.968750 0.187500
vt 0.968750 0.625000
vt 1.000000 0.625000
vt 0.968750 0.125000
vt 1.000000 0.125000
vt 1.000000 0.562500
vt 0.968750 0.562500
vt 0.968750 0.062500
vt 1.000000 0.062500
vt 1.000000 0.500000
vt 0.968750 0.500000
vt 1.000000 0.937500
vt 0.984375 1.000000
vt 0.968750 0.937500
vt 0.984375 0.000000
vt 0.968750 0.437500
vt 1.000000 0.875000
vt 0.937500 0.125000
vt 0.937500 0.625000
vt 0.937500 0.562500
vt 0.937500 0.062500
vt 0.937500 0.500000
vt 0.953125 1.000000
vt 0.937500 0.937500
vt 0.953125 0.000000
vt 0.937500 0.437500
vt 0.937500 0.875000
vt 0.937500 0.375000
vt 0.937500 0.812500
vt 0.937500 0.312500
vt 0.937500 0.750000
vt 0.937500 0.250000
vt 0.937500 0.687500
vt 0.937500 0.187500
vt 0.906250 0.875000
vt 0.906250 0.812500
vt 0.906250 0.375000
vt 0.906250 0.312500
vt 0.906250 0.750000
vt 0.906250 0.250000
vt 0.906250 0.687500
vt 0.906250 0.187500
vt 0.906250 0.625000
vt 0.906250 0.125000
vt 0.906250 0.562500
vt 0.906250 0.062500
vt 0.906250 0.500000
vt 0.921875 1.000000
vt 0.906250 0.937500
vt 0.921875 0.000000
vt 0.906250 0.437500
vt 0.875000 0.625000
vt 0.875000 0.562500
vt 0.875000 0.062500
vt 0.875000 0.500000
vt 0.890625 1.000000
vt 0.875000 0.937500
vt 0.890625 0.000000
vt 0.875000 0.437500
vt 0.875000 0.875000
vt 0.875000 0.375000
vt 0.875000 0.812500
vt 0.875000 0.312500
vt 0.875000 0.750000
vt 0.875000 0.250000
vt 0.875000 0.687500
vt 0.875000 0.187500
vt 0.875000 0.125000
vt 0.843750 0.375000
vt 0.843750 0.312500
vt 0.843750 0.750000
vt 0.843750 0.250000
vt 0.843750 0.687500
vt 0.843750 0.187500
vt 0.843750 0.625000
vt 0.843750 0.125000
vt 0.843750 0.562500
vt 0.843750 0.062500
vt 0.843750 0.500000
vt 0.859375 1.000000
vt 0.843750 0.937500
vt 0.859375 0.000000
vt 0.843750 0.437500
vt 0.843750 0.875000
vt 0.843750 0.812500
vt 0.812500 0.062500
vt 0.812500 0.562500
vt 0.812500 0.500000
vt 0.828125 1.000000
vt 0.812500 0.937500
vt 0.828125 0.000000
vt 0.812500 0.437500
vt 0.812500 0.875000
vt 0.812500 0.375000
vt 0.812500 0.812500
vt 0.812500 0.312500
vt 0.812500 0.750000
vt 0.812500 0.250000
vt 0.812500 0.687500
vt 0.812500 0.187500
vt 0.812500 0.625000
vt 0.812500 0.125000
vt 0.781250 0.750000
vt 0.781250 0.250000
vt 0.781250 0.687500
vt 0.781250 0.187500
vt 0.781250 0.625000
vt 0.781250 0.125000
vt 0.781250 0.562500
vt 0.781250 0.062500
vt 0.781250 0.500000
vt 0.796875 1.000000
vt 0.781250 0.937500
vt 0.796875 0.000000
vt 0.781250 0.437500
vt 0.781250 0.875000
vt 0.781250 0.375000
vt 0.781250 0.812500
vt 0.781250 0.312500
vt 0.765625 1.000000
vt 0.765625 0.000000
s 1
f 481/1/1 21/2/2 482/3/3
f 3/4/4 14/5/5 4/6/6
f 474/7/7 82/8/8 7/9/9
f 308/10/10 482/3/11 21/2/12
f 4/6/6 15/11/13 5/12/14
f 475/13/15 7/9/16 8/14/17
f 5/12/18 16/15/19 478/16/20
f 1/17/21 8/14/22 9/18/23
f 478/16/20 17/19/24 6/20/25
f 476/21/26 9/18/23 10/22/27
f 479/23/28 17/19/24 18/24/29
f 476/21/30 11/25/31 2/26/32
f 479/23/28 19/27/33 480/28/34
f 477/29/35 11/25/31 12/30/36
f 480/28/34 20/31/37 481/1/1
f 3/4/4 12/30/38 13/32/39
f 20/31/37 34/33/40 35/34/41
f 13/32/42 27/35/43 28/36/44
f 20/31/45 36/37/46 21/2/2
f 13/32/39 29/38/47 14/5/48
f 7/9/9 82/39/8 22/40/49
f 308/41/10 21/2/12 36/37/50
f 14/5/48 30/42/51 15/11/13
f 7/9/16 23/43/52 8/14/53
f 15/11/54 31/44/55 16/15/56
f 8/14/22 24/45/57 9/18/23
f 17/19/58 31/44/59 32/46/60
f 9/18/23 25/47/61 10/22/27
f 18/24/29 32/46/62 33/48/63
f 10/22/27 26/49/64 11/25/31
f 19/27/33 33/48/65 34/33/66
f 11/25/67 27/35/68 12/30/69
f 23/43/70 39/50/71 24/45/72
f 32/46/73 46/51/74 47/52/75
f 24/45/76 40/53/77 25/47/61
f 33/48/78 47/52/75 48/54/79
f 25/47/80 41/55/81 26/49/82
f 34/33/83 48/54/84 49/56/85
f 26/49/82 42/57/86 27/35/87
f 35/34/41 49/56/88 50/58/89
f 28/36/90 42/57/91 43/59/92
f 36/37/46 50/58/93 51/60/94
f 29/38/95 43/59/92 44/61/96
f 22/40/49 82/62/8 37/63/97
f 308/64/10 36/37/50 51/60/94
f 29/38/95 45/65/98 30/42/51
f 22/40/99 38/66/100 23/43/101
f 30/42/51 46/51/102 31/44/103
f 43/59/104 57/67/105 58/68/106
f 51/60/94 65/69/107 66/70/108
f 44/61/109 58/68/106 59/71/110
f 37/63/97 82/72/8 52/73/111
f 308/74/10 51/60/94 66/70/112
f 44/61/109 60/75/113 45/65/114
f 37/63/115 53/76/116 38/66/117
f 45/65/114 61/77/118 46/51/119
f 38/66/120 54/78/121 39/50/122
f 47/52/75 61/77/123 62/79/124
f 39/50/125 55/80/126 40/53/127
f 47/52/75 63/81/128 48/54/79
f 41/55/81 55/80/129 56/82/130
f 49/56/131 63/81/132 64/83/133
f 41/55/81 57/67/134 42/57/135
f 50/58/89 64/83/133 65/69/136
f 62/79/137 76/84/138 77/85/139
f 54/78/121 70/86/140 55/80/141
f 62/79/124 78/87/142 63/81/128
f 56/82/130 70/86/143 71/88/144
f 64/83/133 78/87/145 79/89/146
f 56/82/147 72/90/148 57/67/149
f 64/83/133 80/91/150 65/69/136
f 58/68/106 72/90/148 73/92/151
f 65/69/107 81/93/152 66/70/108
f 59/71/110 73/92/151 74/94/153
f 52/73/111 82/95/8 67/96/154
f 308/97/10 66/70/112 81/93/152
f 59/71/155 75/98/156 60/75/113
f 53/76/116 67/96/154 68/99/157
f 60/75/113 76/84/138 61/77/158
f 54/78/121 68/99/159 69/100/160
f 81/93/161 96/101/162 97/102/163
f 74/94/164 89/103/165 90/104/166
f 67/96/154 82/105/8 83/106/167
f 308/107/10 81/93/152 97/102/168
f 74/94/164 91/108/169 75/98/156
f 67/96/170 84/109/171 68/99/172
f 75/98/156 92/110/173 76/84/138
f 68/99/159 85/111/174 69/100/160
f 77/85/139 92/110/175 93/112/176
f 69/100/177 86/113/178 70/86/179
f 77/85/139 94/114/180 78/87/142
f 71/88/144 86/113/181 87/115/182
f 79/89/146 94/114/183 95/116/184
f 71/88/144 88/117/185 72/90/186
f 80/91/150 95/116/187 96/101/188
f 73/92/151 88/117/189 89/103/190
f 93/112/176 109/118/191 94/114/192
f 87/115/182 101/119/193 102/120/194
f 95/116/184 109/118/195 110/121/196
f 87/115/182 103/122/197 88/117/185
f 95/116/187 111/123/198 96/101/199
f 89/103/165 103/122/200 104/124/201
f 96/101/162 112/125/202 97/102/163
f 90/104/203 104/124/204 105/126/205
f 83/106/167 82/127/8 98/128/206
f 308/129/10 97/102/207 112/125/208
f 90/104/203 106/130/209 91/108/210
f 83/106/167 99/131/211 84/109/212
f 91/108/169 107/132/213 92/110/214
f 85/111/174 99/131/215 100/133/216
f 93/112/176 107/132/217 108/134/218
f 85/111/219 101/119/220 86/113/178
f 98/128/206 82/135/8 113/136/221
f 308/137/10 112/125/208 127/138/222
f 105/126/205 121/139/223 106/130/209
f 98/128/224 114/140/225 99/131/211
f 106/130/209 122/141/226 107/132/213
f 99/131/215 115/142/227 100/133/216
f 108/134/228 122/141/229 123/143/230
f 100/133/231 116/144/232 101/119/220
f 108/134/218 124/145/233 109/118/191
f 102/120/194 116/144/234 117/146/235
f 110/121/236 124/145/237 125/147/238
f 102/120/239 118/148/240 103/122/241
f 111/123/242 125/147/243 126/149/244
f 104/124/204 118/148/245 119/150/246
f 111/123/247 127/138/248 112/125/202
f 105/126/205 119/150/246 120/151/249
f 117/146/250 131/152/251 132/153/252
f 125/147/243 139/154/253 140/155/254
f 117/146/255 133/156/256 118/148/240
f 125/147/243 141/157/257 126/149/258
f 119/150/246 133/156/259 134/158/260
f 126/149/261 142/159/262 127/138/263
f 120/151/249 134/158/260 135/160/264
f 113/136/221 82/161/8 128/162/265
f 308/163/10 127/138/222 142/159/266
f 120/151/249 136/164/267 121/139/268
f 114/140/225 128/162/269 129/165/270
f 121/139/223 137/166/271 122/141/272
f 115/142/227 129/165/273 130/167/274
f 123/143/275 137/166/276 138/168/277
f 115/142/278 131/152/279 116/144/280
f 123/143/281 139/154/282 124/145/283
f 135/160/284 151/169/285 136/164/286
f 128/162/269 144/170/287 129/165/270
f 136/164/286 152/171/288 137/166/271
f 129/165/273 145/172/289 130/167/290
f 138/168/277 152/171/291 153/173/292
f 130/167/293 146/174/294 131/152/279
f 138/168/277 154/175/295 139/154/282
f 132/153/296 146/174/297 147/176/298
f 140/155/299 154/175/300 155/177/301
f 132/153/296 148/178/302 133/156/256
f 141/157/257 155/177/303 156/179/304
f 134/158/305 148/178/306 149/180/307
f 141/157/308 157/181/309 142/159/262
f 135/160/284 149/180/307 150/182/310
f 128/162/265 82/183/8 143/184/311
f 308/185/10 142/159/266 157/181/312
f 155/177/313 169/186/314 170/187/315
f 147/176/316 163/188/317 148/178/302
f 156/179/304 170/187/318 171/189/319
f 149/180/320 163/188/321 164/190/322
f 157/181/309 171/189/323 172/191/324
f 150/182/310 164/190/325 165/192/326
f 143/184/327 82/193/8 158/194/328
f 308/195/10 157/181/312 172/191/324
f 150/182/310 166/196/329 151/169/285
f 143/184/327 159/197/330 144/170/331
f 151/169/332 167/198/333 152/171/334
f 144/170/331 160/199/335 145/172/336
f 153/173/337 167/198/338 168/200/339
f 145/172/340 161/201/341 146/174/294
f 153/173/292 169/186/342 154/175/343
f 147/176/298 161/201/344 162/202/345
f 158/194/346 174/203/347 159/197/348
f 166/196/349 182/204/350 167/198/351
f 159/197/352 175/205/353 160/199/335
f 168/200/354 182/204/355 183/206/356
f 160/199/357 176/207/358 161/201/341
f 168/200/359 184/208/360 169/186/361
f 162/202/362 176/207/363 177/209/364
f 170/187/365 184/208/366 185/210/367
f 162/202/368 178/211/369 163/188/370
f 171/189/319 185/210/367 186/212/371
f 164/190/322 178/211/372 179/213/373
f 172/191/374 186/212/371 187/214/375
f 165/192/326 179/213/373 180/215/376
f 158/194/328 82/216/8 173/217/377
f 308/218/10 172/191/324 187/214/378
f 165/192/326 181/219/379 166/196/349
f 177/209/380 193/220/381 178/211/382
f 185/210/367 201/221/383 186/212/371
f 179/213/373 193/220/384 194/222/385
f 186/212/386 202/223/387 187/214/375
f 180/215/376 194/222/388 195/224/389
f 173/217/377 82/225/8 188/226/390
f 308/227/10 187/214/378 202/223/387
f 180/215/391 196/228/392 181/219/393
f 174/203/347 188/226/390 189/229/394
f 181/219/393 197/230/395 182/204/396
f 175/205/353 189/229/397 190/231/398
f 183/206/399 197/230/400 198/232/401
f 175/205/353 191/233/402 176/207/358
f 183/206/356 199/234/403 184/208/360
f 177/209/364 191/233/404 192/235/405
f 185/210/367 199/234/406 200/236/407
f 196/228/392 212/237/408 197/230/395
f 189/229/397 205/238/409 190/231/398
f 198/232/401 212/237/410 213/239/411
f 190/231/412 206/240/413 191/233/414
f 198/232/401 214/241/415 199/234/403
f 192/235/405 206/240/416 207/242/417
f 200/236/407 214/241/418 215/243/419
f 192/235/405 208/244/420 193/220/381
f 201/221/383 215/243/421 216/245/422
f 194/222/388 208/244/423 209/246/424
f 202/223/425 216/245/426 217/247/427
f 195/224/428 209/246/424 210/248/429
f 188/226/390 82/249/8 203/250/430
f 308/251/10 202/223/387 217/247/431
f 195/224/428 211/252/432 196/228/392
f 188/226/433 204/253/434 189/229/435
f 216/245/422 230/254/436 231/255/437
f 209/246/424 223/256/438 224/257/439
f 217/247/431 231/255/437 232/258/440
f 210/248/441 224/257/442 225/259/443
f 203/250/430 82/260/8 218/261/444
f 308/262/10 217/247/431 232/258/445
f 210/248/441 226/263/446 211/252/432
f 203/250/447 219/264/448 204/253/449
f 211/252/432 227/265/450 212/237/451
f 204/253/449 220/266/452 205/238/453
f 213/239/454 227/265/455 228/267/456
f 205/238/457 221/268/458 206/240/459
f 213/239/411 229/269/460 214/241/461
f 207/242/417 221/268/462 222/270/463
f 215/243/419 229/269/464 230/254/465
f 207/242/417 223/256/466 208/244/420
f 228/267/467 242/271/468 243/272/469
f 220/266/470 236/273/471 221/268/458
f 228/267/456 244/274/472 229/269/460
f 222/270/463 236/273/473 237/275/474
f 230/254/465 244/274/475 245/276/476
f 222/270/477 238/277/478 223/256/479
f 231/255/437 245/276/480 246/278/481
f 224/257/442 238/277/482 239/279/483
f 231/255/437 247/280/484 232/258/440
f 225/259/443 239/279/483 240/281/485
f 218/261/486 82/282/8 233/283/487
f 308/284/10 232/258/445 247/280/488
f 225/259/443 241/285/489 226/263/446
f 219/264/448 233/283/490 234/286/491
f 226/263/446 242/271/492 227/265/450
f 219/264/448 235/287/493 220/266/452
f 246/278/494 262/288/495 247/280/496
f 240/281/497 254/289/498 255/290/499
f 233/283/500 82/291/8 248/292/501
f 308/293/10 247/280/502 262/288/503
f 240/281/497 256/294/504 241/285/489
f 234/286/505 248/292/506 249/295/507
f 241/285/508 257/296/509 242/271/510
f 235/287/493 249/295/511 250/297/512
f 243/272/513 257/296/509 258/298/514
f 235/287/515 251/299/516 236/273/473
f 243/272/517 259/300/518 244/274/519
f 237/275/520 251/299/521 252/301/522
f 245/276/480 259/300/523 260/302/524
f 237/275/525 253/303/526 238/277/478
f 245/276/480 261/304/527 246/278/528
f 239/279/529 253/303/526 254/289/498
f 250/297/530 266/305/531 251/299/516
f 258/298/514 274/306/532 259/300/518
f 252/301/522 266/305/533 267/307/534
f 260/302/535 274/306/536 275/308/537
f 252/301/538 268/309/539 253/303/540
f 261/304/527 275/308/541 276/310/542
f 254/289/543 268/309/544 269/311/545
f 261/304/546 277/312/547 262/288/495
f 255/290/548 269/311/545 270/313/549
f 248/292/501 82/314/8 263/315/550
f 308/316/10 262/288/503 277/312/551
f 255/290/548 271/317/552 256/294/504
f 249/295/507 263/315/553 264/318/554
f 256/294/555 272/319/556 257/296/509
f 249/295/511 265/320/557 250/297/558
f 258/298/559 272/319/560 273/321/561
f 270/313/549 284/322/562 285/323/563
f 263/315/550 82/324/8 278/325/564
f 308/326/10 277/312/551 292/327/565
f 270/313/549 286/328/566 271/317/552
f 263/315/567 279/329/568 264/318/554
f 271/317/569 287/330/570 272/319/571
f 264/318/554 280/331/572 265/320/573
f 273/321/574 287/330/575 288/332/576
f 265/320/577 281/333/578 266/305/531
f 273/321/561 289/334/579 274/306/580
f 267/307/534 281/333/581 282/335/582
f 275/308/537 289/334/583 290/336/584
f 267/307/585 283/337/586 268/309/587
f 275/308/541 291/338/588 276/310/542
f 269/311/589 283/337/590 284/322/591
f 276/310/592 292/327/565 277/312/547
f 288/332/576 304/339/593 289/334/594
f 282/335/595 296/340/596 297/341/597
f 290/336/584 304/339/598 305/342/599
f 282/335/600 298/343/601 283/337/602
f 290/336/603 306/344/604 291/338/588
f 284/322/605 298/343/606 299/345/607
f 292/327/565 306/344/604 307/346/608
f 285/323/563 299/345/607 300/347/609
f 278/325/564 82/348/8 293/349/610
f 308/350/10 292/327/565 307/346/611
f 285/323/563 301/351/612 286/328/613
f 278/325/614 294/352/615 279/329/616
f 286/328/613 302/353/617 287/330/618
f 280/331/572 294/352/615 295/354/619
f 288/332/620 302/353/621 303/355/622
f 280/331/623 296/340/624 281/333/578
f 293/349/610 82/356/8 309/357/625
f 308/358/10 307/346/611 323/359/626
f 300/347/627 317/360/628 301/351/612
f 294/352/629 309/357/625 310/361/630
f 301/351/612 318/362/631 302/353/632
f 295/354/619 310/361/633 311/363/634
f 303/355/635 318/362/636 319/364/637
f 295/354/638 312/365/639 296/340/640
f 303/355/622 320/366/641 304/339/593
f 297/341/597 312/365/642 313/367/643
f 305/342/644 320/366/645 321/368/646
f 297/341/647 314/369/648 298/343/649
f 305/342/644 322/370/650 306/344/604
f 299/345/607 314/369/651 315/371/652
f 306/344/653 323/359/626 307/346/608
f 300/347/609 315/371/654 316/372/655
f 313/367/656 327/373/657 328/374/658
f 321/368/659 335/375/660 336/376/661
f 313/367/662 329/377/663 314/369/648
f 321/368/659 337/378/664 322/370/650
f 315/371/654 329/377/665 330/379/666
f 323/359/626 337/378/667 338/380/668
f 316/372/669 330/379/666 331/381/670
f 309/357/625 82/382/8 324/383/671
f 308/384/10 323/359/626 338/380/672
f 316/372/669 332/385/673 317/360/674
f 309/357/625 325/386/675 310/361/630
f 317/360/674 333/387/676 318/362/631
f 310/361/633 326/388/677 311/363/634
f 319/364/678 333/387/679 334/389/680
f 311/363/681 327/373/682 312/365/683
f 319/364/637 335/375/684 320/366/641
f 331/381/685 347/390/686 332/385/673
f 324/383/671 340/391/687 325/386/688
f 332/385/673 348/392/689 333/387/690
f 326/388/677 340/391/691 341/393/692
f 334/389/693 348/392/694 349/394/695
f 326/388/696 342/395/697 327/373/682
f 334/389/680 350/396/698 335/375/699
f 328/374/658 342/395/700 343/397/701
f 336/376/661 350/396/702 351/398/703
f 328/374/704 344/399/705 329/377/663
f 336/376/706 352/400/707 337/378/664
f 330/379/666 344/399/705 345/401/708
f 338/380/672 352/400/709 353/402/710
f 331/381/685 345/401/711 346/403/712
f 324/383/671 82/404/8 339/405/713
f 308/406/10 338/380/672 353/402/714
f 351/398/703 365/407/715 366/408/716
f 343/397/717 359/409/718 344/399/719
f 351/398/703 367/410/720 352/400/707
f 345/401/711 359/409/721 360/411/722
f 353/402/710 367/410/723 368/412/724
f 346/403/725 360/411/722 361/413/726
f 339/405/713 82/414/8 354/415/727
f 308/416/10 353/402/714 368/412/724
f 346/403/725 362/417/728 347/390/729
f 339/405/730 355/418/731 340/391/687
f 347/390/729 363/419/732 348/392/689
f 341/393/692 355/418/733 356/420/734
f 349/394/735 363/419/736 364/421/737
f 341/393/692 357/422/738 342/395/697
f 349/394/695 365/407/739 350/396/698
f 343/397/701 357/422/740 358/423/741
f 362/424/728 378/425/742 363/426/743
f 356/427/734 370/428/744 371/429/745
f 364/430/746 378/425/742 379/431/747
f 356/427/748 372/432/749 357/433/750
f 364/430/751 380/434/752 365/435/753
f 358/436/754 372/432/755 373/437/756
f 366/438/716 380/434/757 381/439/758
f 358/436/759 374/440/760 359/441/718
f 366/438/761 382/442/762 367/443/723
f 360/444/722 374/440/760 375/445/763
f 367/443/723 383/446/764 368/447/724
f 361/448/726 375/445/763 376/449/765
f 354/450/727 82/451/8 369/452/766
f 308/453/10 368/447/724 383/446/767
f 361/448/726 377/454/768 362/424/728
f 355/455/769 369/452/770 370/428/744
f 381/439/771 397/456/772 382/442/762
f 375/445/773 389/457/774 390/458/775
f 382/442/762 398/459/776 383/446/767
f 376/449/777 390/458/775 391/460/778
f 369/452/766 82/461/8 384/462/779
f 308/463/10 383/446/767 398/459/780
f 376/449/777 392/464/781 377/454/782
f 370/428/744 384/462/783 385/465/784
f 377/454/782 393/466/785 378/425/742
f 371/429/786 385/465/784 386/467/787
f 379/431/788 393/466/789 394/468/790
f 371/429/786 387/469/791 372/432/749
f 379/431/747 395/470/792 380/434/752
f 373/437/756 387/469/793 388/471/794
f 381/439/771 395/470/795 396/472/796
f 373/437/797 389/457/798 374/440/799
f 386/467/787 400/473/800 401/474/801
f 394/468/790 408/475/802 409/476/803
f 386/467/787 402/477/804 387/469/791
f 394/468/805 410/478/806 395/470/807
f 388/471/808 402/477/809 403/479/810
f 396/472/796 410/478/811 411/480/812
f 388/471/813 404/481/814 389/457/815
f 396/472/796 412/482/816 397/456/772
f 390/458/775 404/481/817 405/483/818
f 398/459/776 412/482/819 413/484/820
f 391/460/778 405/483/818 406/485/821
f 384/462/779 82/486/8 399/487/822
f 308/488/10 398/459/780 413/484/820
f 391/460/778 407/489/823 392/464/781
f 384/462/783 400/473/824 385/465/784
f 392/464/781 408/475/825 393/466/826
f 405/483/827 419/490/828 420/491/829
f 412/482/830 428/492/831 413/484/820
f 406/485/821 420/491/829 421/493/832
f 399/487/822 82/494/8 414/495/833
f 308/496/10 413/484/820 428/492/834
f 406/485/821 422/497/835 407/489/836
f 399/487/837 415/498/838 400/473/839
f 407/489/836 423/499/840 408/475/841
f 401/474/842 415/498/843 416/500/844
f 409/476/845 423/499/846 424/501/847
f 401/474/848 417/502/849 402/477/804
f 409/476/803 425/503/850 410/478/851
f 403/479/852 417/502/853 418/504/854
f 411/480/812 425/503/855 426/505/856
f 403/479/857 419/490/858 404/481/859
f 411/480/860 427/506/861 412/482/819
f 424/501/862 438/507/863 439/508/864
f 416/500/865 432/509/866 417/502/867
f 424/501/847 440/510/868 425/503/850
f 418/504/854 432/509/869 433/511/870
f 426/505/871 440/510/872 441/512/873
f 418/504/874 434/513/875 419/490/876
f 426/505/871 442/514/877 427/506/861
f 420/491/829 434/513/878 435/515/879
f 428/492/831 442/514/877 443/516/880
f 421/493/832 435/515/881 436/517/882
f 414/495/833 82/518/8 429/519/883
f 308/520/10 428/492/834 443/516/880
f 421/493/884 437/521/885 422/497/835
f 414/495/886 430/522/887 415/498/838
f 422/497/835 438/507/888 423/499/889
f 416/500/844 430/522/887 431/523/890
f 442/514/891 458/524/892 443/516/880
f 436/517/893 450/525/894 451/526/895
f 429/519/883 82/527/8 444/528/896
f 308/529/10 443/516/880 458/524/897
f 436/517/893 452/530/898 437/521/899
f 430/522/900 444/528/901 445/531/902
f 437/521/899 453/532/903 438/507/888
f 431/523/890 445/531/902 446/533/904
f 439/508/905 453/532/906 454/534/907
f 431/523/890 447/535/908 432/509/909
f 439/508/864 455/536/910 440/510/868
f 433/511/911 447/535/912 448/537/913
f 441/512/914 455/536/915 456/538/916
f 433/511/917 449/539/918 434/513/875
f 441/512/914 457/540/919 442/514/877
f 435/515/881 449/539/920 450/525/894
f 446/533/921 462/541/922 447/535/908
f 454/534/907 470/542/923 455/536/924
f 448/537/913 462/541/925 463/543/926
f 456/538/916 470/542/927 471/544/928
f 448/537/929 464/545/930 449/539/931
f 456/538/932 472/546/933 457/540/919
f 450/525/894 464/545/934 465/547/935
f 458/524/892 472/546/933 473/548/936
f 451/526/937 465/547/935 466/549/938
f 444/528/896 82/550/8 459/551/939
f 308/552/10 458/524/897 473/548/940
f 451/526/937 467/553/941 452/530/942
f 444/528/901 460/554/943 445/531/902
f 452/530/898 468/555/944 453/532/945
f 446/533/921 460/554/946 461/556/947
f 454/534/948 468/555/949 469/557/950
f 466/549/938 3/4/4 4/6/951
f 459/551/939 82/558/8 474/7/7
f 308/559/10 473/548/940 482/3/952
f 466/549/938 5/12/18 467/553/941
f 459/551/953 475/13/954 460/554/943
f 467/553/941 478/16/20 468/555/944
f 461/556/947 475/13/955 1/17/21
f 468/555/949 6/20/956 469/557/957
f 462/541/922 1/17/958 476/21/26
f 469/557/957 479/23/28 470/542/923
f 463/543/926 476/21/30 2/26/959
f 471/544/928 479/23/28 480/28/960
f 464/545/930 2/26/961 477/29/35
f 471/544/928 481/1/1 472/546/933
f 465/547/935 477/29/35 3/4/4
f 472/546/933 482/3/962 473/548/963
f 481/1/1 20/31/45 21/2/2
f 3/4/4 13/32/39 14/5/5
f 4/6/6 14/5/48 15/11/13
f 475/13/15 474/7/7 7/9/16
f 5/12/18 15/11/964 16/15/19
f 1/17/21 475/13/955 8/14/22
f 478/16/20 16/15/965 17/19/24
f 476/21/26 1/17/958 9/18/23
f 479/23/28 6/20/966 17/19/24
f 476/21/30 10/22/27 11/25/31
f 479/23/28 18/24/29 19/27/33
f 477/29/35 2/26/967 11/25/31
f 480/28/34 19/27/33 20/31/37
f 3/4/4 477/29/35 12/30/38
f 20/31/37 19/27/33 34/33/40
f 13/32/42 12/30/968 27/35/43
f 20/31/45 35/34/41 36/37/46
f 13/32/39 28/36/969 29/38/47
f 14/5/48 29/38/95 30/42/51
f 7/9/16 22/40/99 23/43/52
f 15/11/54 30/42/51 31/44/55
f 8/14/22 23/43/101 24/45/57
f 17/19/58 16/15/970 31/44/59
f 9/18/23 24/45/76 25/47/61
f 18/24/29 17/19/24 32/46/62
f 10/22/27 25/47/971 26/49/64
f 19/27/33 18/24/29 33/48/65
f 11/25/67 26/49/972 27/35/68
f 23/43/70 38/66/120 39/50/71
f 32/46/73 31/44/103 46/51/74
f 24/45/76 39/50/973 40/53/77
f 33/48/78 32/46/73 47/52/75
f 25/47/80 40/53/974 41/55/81
f 34/33/83 33/48/65 48/54/84
f 26/49/82 41/55/81 42/57/86
f 35/34/41 34/33/975 49/56/88
f 28/36/90 27/35/976 42/57/91
f 36/37/46 35/34/41 50/58/93
f 29/38/95 28/36/977 43/59/92
f 29/38/95 44/61/96 45/65/98
f 22/40/99 37/63/97 38/66/100
f 30/42/51 45/65/114 46/51/102
f 43/59/104 42/57/978 57/67/105
f 51/60/94 50/58/979 65/69/107
f 44/61/109 43/59/104 58/68/106
f 44/61/109 59/71/110 60/75/113
f 37/63/115 52/73/980 53/76/116
f 45/65/114 60/75/113 61/77/118
f 38/66/120 53/76/981 54/78/121
f 47/52/75 46/51/982 61/77/123
f 39/50/125 54/78/121 55/80/126
f 47/52/75 62/79/124 63/81/128
f 41/55/81 40/53/974 55/80/129
f 49/56/131 48/54/983 63/81/132
f 41/55/81 56/82/130 57/67/134
f 50/58/89 49/56/88 64/83/133
f 62/79/137 61/77/158 76/84/138
f 54/78/121 69/100/177 70/86/140
f 62/79/124 77/85/139 78/87/142
f 56/82/130 55/80/129 70/86/143
f 64/83/133 63/81/984 78/87/145
f 56/82/147 71/88/144 72/90/148
f 64/83/133 79/89/985 80/91/150
f 58/68/106 57/67/986 72/90/148
f 65/69/107 80/91/987 81/93/152
f 59/71/110 58/68/106 73/92/151
f 59/71/155 74/94/153 75/98/156
f 53/76/116 52/73/980 67/96/154
f 60/75/113 75/98/156 76/84/138
f 54/78/121 53/76/981 68/99/159
f 81/93/161 80/91/987 96/101/162
f 74/94/164 73/92/151 89/103/165
f 74/94/164 90/104/166 91/108/169
f 67/96/170 83/106/988 84/109/171
f 75/98/156 91/108/989 92/110/173
f 68/99/159 84/109/212 85/111/174
f 77/85/139 76/84/990 92/110/175
f 69/100/177 85/111/219 86/113/178
f 77/85/139 93/112/176 94/114/180
f 71/88/144 70/86/143 86/113/181
f 79/89/146 78/87/991 94/114/183
f 71/88/144 87/115/182 88/117/185
f 80/91/150 79/89/985 95/116/187
f 73/92/151 72/90/148 88/117/189
f 93/112/176 108/134/218 109/118/191
f 87/115/182 86/113/992 101/119/193
f 95/116/184 94/114/993 109/118/195
f 87/115/182 102/120/194 103/122/197
f 95/116/187 110/121/994 111/123/198
f 89/103/165 88/117/995 103/122/200
f 96/101/162 111/123/247 112/125/202
f 90/104/203 89/103/996 104/124/204
f 90/104/203 105/126/205 106/130/209
f 83/106/167 98/128/206 99/131/211
f 91/108/169 106/130/209 107/132/213
f 85/111/174 84/109/212 99/131/215
f 93/112/176 92/110/214 107/132/217
f 85/111/219 100/133/231 101/119/220
f 105/126/205 120/151/249 121/139/223
f 98/128/224 113/136/221 114/140/225
f 106/130/209 121/139/223 122/141/226
f 99/131/215 114/140/997 115/142/227
f 108/134/228 107/132/998 122/141/229
f 100/133/231 115/142/278 116/144/232
f 108/134/218 123/143/999 124/145/233
f 102/120/194 101/119/193 116/144/234
f 110/121/236 109/118/195 124/145/237
f 102/120/239 117/146/250 118/148/240
f 111/123/242 110/121/1000 125/147/243
f 104/124/204 103/122/200 118/148/245
f 111/123/247 126/149/244 127/138/248
f 105/126/205 104/124/204 119/150/246
f 117/146/250 116/144/1001 131/152/251
f 125/147/243 124/145/1002 139/154/253
f 117/146/255 132/153/296 133/156/256
f 125/147/243 140/155/1003 141/157/257
f 119/150/246 118/148/245 133/156/259
f 126/149/261 141/157/308 142/159/262
f 120/151/249 119/150/1004 134/158/260
f 120/151/249 135/160/264 136/164/267
f 114/140/225 113/136/221 128/162/269
f 121/139/223 136/164/1005 137/166/271
f 115/142/227 114/140/1006 129/165/273
f 123/143/275 122/141/229 137/166/276
f 115/142/278 130/167/293 131/152/279
f 123/143/281 138/168/277 139/154/282
f 135/160/284 150/182/310 151/169/285
f 128/162/269 143/184/327 144/170/287
f 136/164/286 151/169/285 152/171/288
f 129/165/273 144/170/1007 145/172/289
f 138/168/277 137/166/276 152/171/291
f 130/167/293 145/172/340 146/174/294
f 138/168/277 153/173/292 154/175/295
f 132/153/296 131/152/1008 146/174/297
f 140/155/299 139/154/253 154/175/300
f 132/153/296 147/176/298 148/178/302
f 141/157/257 140/155/1009 155/177/303
f 134/158/305 133/156/259 148/178/306
f 141/157/308 156/179/304 157/181/309
f 135/160/284 134/158/305 149/180/307
f 155/177/313 154/175/300 169/186/314
f 147/176/316 162/202/368 163/188/317
f 156/179/304 155/177/1010 170/187/318
f 149/180/320 148/178/1011 163/188/321
f 157/181/309 156/179/304 171/189/323
f 150/182/310 149/180/307 164/190/325
f 150/182/310 165/192/326 166/196/329
f 143/184/327 158/194/328 159/197/330
f 151/169/332 166/196/349 167/198/333
f 144/170/331 159/197/352 160/199/335
f 153/173/337 152/171/334 167/198/338
f 145/172/340 160/199/1012 161/201/341
f 153/173/292 168/200/1013 169/186/342
f 147/176/298 146/174/1014 161/201/344
f 158/194/346 173/217/1015 174/203/347
f 166/196/349 181/219/1016 182/204/350
f 159/197/352 174/203/1017 175/205/353
f 168/200/354 167/198/1018 182/204/355
f 160/199/357 175/205/353 176/207/358
f 168/200/359 183/206/356 184/208/360
f 162/202/362 161/201/1019 176/207/363
f 170/187/365 169/186/1020 184/208/366
f 162/202/368 177/209/364 178/211/369
f 171/189/319 170/187/1021 185/210/367
f 164/190/322 163/188/1022 178/211/372
f 172/191/374 171/189/1023 186/212/371
f 165/192/326 164/190/322 179/213/373
f 165/192/326 180/215/376 181/219/379
f 177/209/380 192/235/405 193/220/381
f 185/210/367 200/236/1024 201/221/383
f 179/213/373 178/211/1025 193/220/384
f 186/212/386 201/221/1026 202/223/387
f 180/215/376 179/213/373 194/222/388
f 180/215/391 195/224/389 196/228/392
f 174/203/347 173/217/1015 188/226/390
f 181/219/393 196/228/392 197/230/395
f 175/205/353 174/203/1017 189/229/397
f 183/206/399 182/204/1027 197/230/400
f 175/205/353 190/231/412 191/233/402
f 183/206/356 198/232/401 199/234/403
f 177/209/364 176/207/363 191/233/404
f 185/210/367 184/208/360 199/234/406
f 196/228/392 211/252/432 212/237/408
f 189/229/397 204/253/449 205/238/409
f 198/232/401 197/230/400 212/237/410
f 190/231/412 205/238/457 206/240/413
f 198/232/401 213/239/411 214/241/415
f 192/235/405 191/233/404 206/240/416
f 200/236/407 199/234/1028 214/241/418
f 192/235/405 207/242/417 208/244/420
f 201/221/383 200/236/1024 215/243/421
f 194/222/388 193/220/384 208/244/423
f 202/223/425 201/221/1029 216/245/426
f 195/224/428 194/222/388 209/246/424
f 195/224/428 210/248/429 211/252/432
f 188/226/433 203/250/447 204/253/434
f 216/245/422 215/243/1030 230/254/436
f 209/246/424 208/244/423 223/256/438
f 217/247/431 216/245/422 231/255/437
f 210/248/441 209/246/424 224/257/442
f 210/248/441 225/259/443 226/263/446
f 203/250/447 218/261/1031 219/264/448
f 211/252/432 226/263/446 227/265/450
f 204/253/449 219/264/448 220/266/452
f 213/239/454 212/237/451 227/265/455
f 205/238/457 220/266/470 221/268/458
f 213/239/411 228/267/456 229/269/460
f 207/242/417 206/240/1032 221/268/462
f 215/243/419 214/241/418 229/269/464
f 207/242/417 222/270/463 223/256/466
f 228/267/467 227/265/1033 242/271/468
f 220/266/470 235/287/515 236/273/471
f 228/267/456 243/272/1034 244/274/472
f 222/270/463 221/268/462 236/273/473
f 230/254/465 229/269/464 244/274/475
f 222/270/477 237/275/1035 238/277/478
f 231/255/437 230/254/436 245/276/480
f 224/257/442 223/256/438 238/277/482
f 231/255/437 246/278/481 247/280/484
f 225/259/443 224/257/442 239/279/483
f 225/259/443 240/281/485 241/285/489
f 219/264/448 218/261/1031 233/283/490
f 226/263/446 241/285/489 242/271/492
f 219/264/448 234/286/491 235/287/493
f 246/278/494 261/304/546 262/288/495
f 240/281/497 239/279/483 254/289/498
f 240/281/497 255/290/499 256/294/504
f 234/286/505 233/283/1036 248/292/506
f 241/285/508 256/294/1037 257/296/509
f 235/287/493 234/286/1038 249/295/511
f 243/272/513 242/271/468 257/296/509
f 235/287/515 250/297/530 251/299/516
f 243/272/517 258/298/514 259/300/518
f 237/275/520 236/273/1039 251/299/521
f 245/276/480 244/274/472 259/300/523
f 237/275/525 252/301/522 253/303/526
f 245/276/480 260/302/1040 261/304/527
f 239/279/529 238/277/1041 253/303/526
f 250/297/530 265/320/577 266/305/531
f 258/298/514 273/321/1042 274/306/532
f 252/301/522 251/299/1043 266/305/533
f 260/302/535 259/300/523 274/306/536
f 252/301/538 267/307/534 268/309/539
f 261/304/527 260/302/1044 275/308/541
f 254/289/543 253/303/526 268/309/544
f 261/304/546 276/310/542 277/312/547
f 255/290/548 254/289/543 269/311/545
f 255/290/548 270/313/549 271/317/552
f 249/295/507 248/292/506 263/315/553
f 256/294/555 271/317/552 272/319/556
f 249/295/511 264/318/554 265/320/557
f 258/298/559 257/296/1045 272/319/560
f 270/313/549 269/311/545 284/322/562
f 270/313/549 285/323/563 286/328/566
f 263/315/567 278/325/564 279/329/568
f 271/317/569 286/328/1046 287/330/570
f 264/318/554 279/329/1047 280/331/572
f 273/321/574 272/319/1048 287/330/575
f 265/320/577 280/331/623 281/333/578
f 273/321/561 288/332/1049 289/334/579
f 267/307/534 266/305/1050 281/333/581
f 275/308/537 274/306/536 289/334/583
f 267/307/585 282/335/595 283/337/586
f 275/308/541 290/336/1051 291/338/588
f 269/311/589 268/309/1052 283/337/590
f 276/310/592 291/338/1053 292/327/565
f 288/332/576 303/355/622 304/339/593
f 282/335/595 281/333/1054 296/340/596
f 290/336/584 289/334/1055 304/339/598
f 282/335/600 297/341/597 298/343/601
f 290/336/603 305/342/644 306/344/604
f 284/322/605 283/337/1056 298/343/606
f 292/327/565 291/338/1057 306/344/604
f 285/323/563 284/322/605 299/345/607
f 285/323/563 300/347/609 301/351/612
f 278/325/614 293/349/1058 294/352/615
f 286/328/613 301/351/1059 302/353/617
f 280/331/572 279/329/616 294/352/615
f 288/332/620 287/330/1060 302/353/621
f 280/331/623 295/354/638 296/340/624
f 300/347/627 316/372/655 317/360/628
f 294/352/629 293/349/1058 309/357/625
f 301/351/612 317/360/674 318/362/631
f 295/354/619 294/352/615 310/361/633
f 303/355/635 302/353/1061 318/362/636
f 295/354/638 311/363/681 312/365/639
f 303/355/622 319/364/637 320/366/641
f 297/341/597 296/340/596 312/365/642
f 305/342/644 304/339/1062 320/366/645
f 297/341/647 313/367/656 314/369/648
f 305/342/644 321/368/659 322/370/650
f 299/345/607 298/343/1063 314/369/651
f 306/344/653 322/370/650 323/359/626
f 300/347/609 299/345/607 315/371/654
f 313/367/656 312/365/642 327/373/657
f 321/368/659 320/366/1064 335/375/660
f 313/367/662 328/374/658 329/377/663
f 321/368/659 336/376/706 337/378/664
f 315/371/654 314/369/651 329/377/665
f 323/359/626 322/370/650 337/378/667
f 316/372/669 315/371/654 330/379/666
f 316/372/669 331/381/670 332/385/673
f 309/357/625 324/383/1065 325/386/675
f 317/360/674 332/385/673 333/387/676
f 310/361/633 325/386/688 326/388/677
f 319/364/678 318/362/636 333/387/679
f 311/363/681 326/388/696 327/373/682
f 319/364/637 334/389/680 335/375/684
f 331/381/685 346/403/712 347/390/686
f 324/383/671 339/405/730 340/391/687
f 332/385/673 347/390/1066 348/392/689
f 326/388/677 325/386/688 340/391/691
f 334/389/693 333/387/679 348/392/694
f 326/388/696 341/393/692 342/395/697
f 334/389/680 349/394/695 350/396/698
f 328/374/658 327/373/1067 342/395/700
f 336/376/661 335/375/1068 350/396/702
f 328/374/704 343/397/701 344/399/705
f 336/376/706 351/398/703 352/400/707
f 330/379/666 329/377/1069 344/399/705
f 338/380/672 337/378/667 352/400/709
f 331/381/685 330/379/666 345/401/711
f 351/398/703 350/396/1070 365/407/715
f 343/397/717 358/423/1071 359/409/718
f 351/398/703 366/408/761 367/410/720
f 345/401/711 344/399/705 359/409/721
f 353/402/710 352/400/709 367/410/723
f 346/403/725 345/401/711 360/411/722
f 346/403/725 361/413/726 362/417/728
f 339/405/730 354/415/727 355/418/731
f 347/390/729 362/417/728 363/419/732
f 341/393/692 340/391/691 355/418/733
f 349/394/735 348/392/694 363/419/736
f 341/393/692 356/420/748 357/422/738
f 349/394/695 364/421/1072 365/407/739
f 343/397/701 342/395/1073 357/422/740
f 362/424/728 377/454/1074 378/425/742
f 356/427/734 355/455/731 370/428/744
f 364/430/746 363/426/736 378/425/742
f 356/427/748 371/429/745 372/432/749
f 364/430/751 379/431/747 380/434/752
f 358/436/754 357/433/1075 372/432/755
f 366/438/716 365/435/1076 380/434/757
f 358/436/759 373/437/756 374/440/760
f 366/438/761 381/439/758 382/442/762
f 360/444/722 359/441/721 374/440/760
f 367/443/723 382/442/762 383/446/764
f 361/448/726 360/444/722 375/445/763
f 361/448/726 376/449/765 377/454/768
f 355/455/769 354/450/727 369/452/770
f 381/439/771 396/472/796 397/456/772
f 375/445/773 374/440/760 389/457/774
f 382/442/762 397/456/772 398/459/776
f 376/449/777 375/445/773 390/458/775
f 376/449/777 391/460/778 392/464/781
f 370/428/744 369/452/766 384/462/783
f 377/454/782 392/464/781 393/466/785
f 371/429/786 370/428/744 385/465/784
f 379/431/788 378/425/1077 393/466/789
f 371/429/786 386/467/787 387/469/791
f 379/431/747 394/468/1078 395/470/792
f 373/437/756 372/432/755 387/469/793
f 381/439/771 380/434/757 395/470/795
f 373/437/797 388/471/808 389/457/798
f 386/467/787 385/465/784 400/473/800
f 394/468/790 393/466/1079 408/475/802
f 386/467/787 401/474/848 402/477/804
f 394/468/805 409/476/1080 410/478/806
f 388/471/808 387/469/1081 402/477/809
f 396/472/796 395/470/795 410/478/811
f 388/471/813 403/479/852 404/481/814
f 396/472/796 411/480/1082 412/482/816
f 390/458/775 389/457/1083 404/481/817
f 398/459/776 397/456/772 412/482/819
f 391/460/778 390/458/775 405/483/818
f 391/460/778 406/485/821 407/489/823
f 384/462/783 399/487/822 400/473/824
f 392/464/781 407/489/836 408/475/825
f 405/483/827 404/481/1084 419/490/828
f 412/482/830 427/506/861 428/492/831
f 406/485/821 405/483/827 420/491/829
f 406/485/821 421/493/832 422/497/835
f 399/487/837 414/495/886 415/498/838
f 407/489/836 422/497/835 423/499/840
f 401/474/842 400/473/839 415/498/843
f 409/476/845 408/475/1085 423/499/846
f 401/474/848 416/500/865 417/502/849
f 409/476/803 424/501/847 425/503/850
f 403/479/852 402/477/1086 417/502/853
f 411/480/812 410/478/1087 425/503/855
f 403/479/857 418/504/854 419/490/858
f 411/480/860 426/505/871 427/506/861
f 424/501/862 423/499/889 438/507/863
f 416/500/865 431/523/1088 432/509/866
f 424/501/847 439/508/1089 440/510/868
f 418/504/854 417/502/853 432/509/869
f 426/505/871 425/503/1090 440/510/872
f 418/504/874 433/511/911 434/513/875
f 426/505/871 441/512/914 442/514/877
f 420/491/829 419/490/1091 434/513/878
f 428/492/831 427/506/861 442/514/877
f 421/493/832 420/491/829 435/515/881
f 421/493/884 436/517/882 437/521/885
f 414/495/886 429/519/883 430/522/887
f 422/497/835 437/521/899 438/507/888
f 416/500/844 415/498/843 430/522/887
f 442/514/891 457/540/919 458/524/892
f 436/517/893 435/515/881 450/525/894
f 436/517/893 451/526/895 452/530/898
f 430/522/900 429/519/883 444/528/901
f 437/521/899 452/530/898 453/532/903
f 431/523/890 430/522/887 445/531/902
f 439/508/905 438/507/863 453/532/906
f 431/523/890 446/533/921 447/535/908
f 439/508/864 454/534/907 455/536/910
f 433/511/911 432/509/869 447/535/912
f 441/512/914 440/510/1092 455/536/915
f 433/511/917 448/537/913 449/539/918
f 441/512/914 456/538/932 457/540/919
f 435/515/881 434/513/878 449/539/920
f 446/533/921 461/556/947 462/541/922
f 454/534/907 469/557/950 470/542/923
f 448/537/913 447/535/1093 462/541/925
f 456/538/916 455/536/915 470/542/927
f 448/537/929 463/543/926 464/545/930
f 456/538/932 471/544/928 472/546/933
f 450/525/894 449/539/918 464/545/934
f 458/524/892 457/540/919 472/546/933
f 451/526/937 450/525/1094 465/547/935
f 451/526/937 466/549/938 467/553/941
f 444/528/901 459/551/953 460/554/943
f 452/530/898 467/553/941 468/555/944
f 446/533/921 445/531/902 460/554/946
f 454/534/948 453/532/906 468/555/949
f 466/549/938 465/547/935 3/4/4
f 466/549/938 4/6/951 5/12/18
f 459/551/953 474/7/7 475/13/954
f 467/553/941 5/12/18 478/16/20
f 461/556/947 460/554/946 475/13/955
f 468/555/949 478/16/20 6/20/956
f 462/541/922 461/556/947 1/17/958
f 469/557/957 6/20/1095 479/23/28
f 463/543/926 462/541/925 476/21/30
f 471/544/928 470/542/927 479/23/28
f 464/545/930 463/543/1096 2/26/961
f 471/544/928 480/28/1097 481/1/1
f 465/547/935 464/545/934 477/29/35
f 472/546/933 481/1/1 482/3/962
