# Blender 4.4.3
# www.blender.org
mtllib uvsphere-norm.mtl
o Sphere
v 0.000000 0.831469 -6.750547
v 0.000000 0.555569 -7.026447
v 0.000000 0.195089 -7.175762
v 0.000000 -0.000001 -7.194977
v 0.000000 -0.195091 -7.175762
v 0.000000 -0.555571 -7.026447
v 0.038060 0.980785 -6.386319
v 0.074658 0.923880 -6.570307
v 0.108386 0.831469 -6.739872
v 0.137950 0.707106 -6.888497
v 0.162212 0.555569 -7.010470
v 0.180240 0.382682 -7.101104
v 0.191342 0.195089 -7.156917
v 0.195090 -0.000001 -7.175762
v 0.191342 -0.195091 -7.156917
v 0.180240 -0.382684 -7.101104
v 0.162212 -0.555571 -7.010470
v 0.137950 -0.707108 -6.888497
v 0.108386 -0.831471 -6.739872
v 0.074658 -0.923880 -6.570307
v 0.038060 -0.980785 -6.386319
v 0.074658 0.980785 -6.375217
v 0.146447 0.923880 -6.548531
v 0.212608 0.831470 -6.708257
v 0.270598 0.707106 -6.848258
v 0.318190 0.555569 -6.963155
v 0.353553 0.382682 -7.048530
v 0.375330 0.195089 -7.101104
v 0.382683 -0.000001 -7.118856
v 0.375330 -0.195091 -7.101104
v 0.353553 -0.382684 -7.048530
v 0.318190 -0.555571 -6.963155
v 0.270598 -0.707108 -6.848258
v 0.212608 -0.831470 -6.708257
v 0.146447 -0.923880 -6.548530
v 0.074658 -0.980785 -6.375217
v 0.108386 0.980785 -6.357189
v 0.212608 0.923880 -6.513167
v 0.308658 0.831470 -6.656918
v 0.392847 0.707106 -6.782915
v 0.461940 0.555569 -6.886319
v 0.513280 0.382682 -6.963155
v 0.544895 0.195089 -7.010470
v 0.555570 -0.000001 -7.026446
v 0.544895 -0.195091 -7.010470
v 0.513280 -0.382684 -6.963155
v 0.461940 -0.555571 -6.886319
v 0.392847 -0.707108 -6.782915
v 0.308658 -0.831470 -6.656917
v 0.212608 -0.923880 -6.513167
v 0.108386 -0.980785 -6.357189
v 0.137950 0.980785 -6.332927
v 0.270598 0.923880 -6.465575
v 0.392847 0.831470 -6.587824
v 0.500000 0.707107 -6.694977
v 0.587938 0.555569 -6.782915
v 0.653281 0.382683 -6.848258
v 0.693520 0.195089 -6.888497
v 0.707107 -0.000001 -6.902084
v 0.693520 -0.195091 -6.888497
v 0.653281 -0.382684 -6.848258
v 0.587938 -0.555571 -6.782915
v 0.500000 -0.707107 -6.694977
v 0.392847 -0.831470 -6.587824
v 0.270598 -0.923880 -6.465575
v 0.137950 -0.980785 -6.332927
v 0.162212 0.980785 -6.303363
v 0.318190 0.923880 -6.407585
v 0.461940 0.831470 -6.503635
v 0.587938 0.707107 -6.587824
v 0.691342 0.555570 -6.656917
v 0.768178 0.382683 -6.708257
v 0.815493 0.195089 -6.739872
v 0.831470 -0.000001 -6.750547
v 0.815493 -0.195091 -6.739872
v 0.768178 -0.382684 -6.708257
v 0.691342 -0.555570 -6.656917
v 0.587938 -0.707107 -6.587824
v 0.461940 -0.831470 -6.503635
v 0.318190 -0.923880 -6.407585
v 0.162212 -0.980785 -6.303363
v 0.000000 1.000000 -6.194977
v 0.180240 0.980785 -6.269635
v 0.353553 0.923880 -6.341424
v 0.513280 0.831470 -6.407584
v 0.653281 0.707107 -6.465575
v 0.768178 0.555570 -6.513167
v 0.853553 0.382683 -6.548530
v 0.906127 0.195090 -6.570307
v 0.923879 -0.000000 -6.577660
v 0.906127 -0.195090 -6.570307
v 0.853553 -0.382684 -6.548530
v 0.768178 -0.555570 -6.513167
v 0.653281 -0.707107 -6.465575
v 0.513280 -0.831470 -6.407584
v 0.353553 -0.923880 -6.341424
v 0.180240 -0.980785 -6.269635
v 0.191342 0.980785 -6.233037
v 0.375330 0.923880 -6.269635
v 0.544895 0.831470 -6.303363
v 0.693520 0.707107 -6.332927
v 0.815493 0.555570 -6.357189
v 0.906127 0.382683 -6.375217
v 0.961940 0.195090 -6.386319
v 0.980785 -0.000000 -6.390067
v 0.961940 -0.195090 -6.386319
v 0.906127 -0.382683 -6.375217
v 0.815493 -0.555570 -6.357189
v 0.693520 -0.707107 -6.332927
v 0.544895 -0.831470 -6.303363
v 0.375330 -0.923880 -6.269635
v 0.191342 -0.980785 -6.233037
v 0.195090 0.980785 -6.194977
v 0.382683 0.923880 -6.194977
v 0.555570 0.831470 -6.194977
v 0.707107 0.707107 -6.194977
v 0.831469 0.555570 -6.194977
v 0.923879 0.382683 -6.194977
v 0.980785 0.195090 -6.194977
v 1.000000 -0.000000 -6.194977
v 0.980785 -0.195090 -6.194977
v 0.923879 -0.382683 -6.194977
v 0.831469 -0.555570 -6.194977
v 0.707107 -0.707107 -6.194977
v 0.555570 -0.831470 -6.194977
v 0.382683 -0.923880 -6.194977
v 0.195090 -0.980785 -6.194977
v 0.191342 0.980785 -6.156918
v 0.375330 0.923880 -6.120319
v 0.544895 0.831470 -6.086591
v 0.693520 0.707107 -6.057027
v 0.815493 0.555570 -6.032765
v 0.906127 0.382683 -6.014737
v 0.961940 0.195090 -6.003635
v 0.980785 -0.000000 -5.999887
v 0.961940 -0.195090 -6.003635
v 0.906127 -0.382683 -6.014737
v 0.815493 -0.555570 -6.032765
v 0.693520 -0.707107 -6.057027
v 0.544895 -0.831470 -6.086591
v 0.375330 -0.923880 -6.120319
v 0.191342 -0.980785 -6.156917
v 0.180240 0.980785 -6.120319
v 0.353553 0.923880 -6.048531
v 0.513280 0.831470 -5.982369
v 0.653281 0.707107 -5.924379
v 0.768178 0.555570 -5.876787
v 0.853553 0.382683 -5.841424
v 0.906127 0.195090 -5.819647
v 0.923879 -0.000000 -5.812294
v 0.906127 -0.195090 -5.819647
v 0.853553 -0.382683 -5.841424
v 0.768178 -0.555570 -5.876787
v 0.653281 -0.707107 -5.924379
v 0.513280 -0.831470 -5.982369
v 0.353553 -0.923880 -6.048530
v 0.180240 -0.980785 -6.120319
v 0.162212 0.980785 -6.086591
v 0.318190 0.923880 -5.982369
v 0.461940 0.831470 -5.886319
v 0.587938 0.707107 -5.802130
v 0.691341 0.555570 -5.733037
v 0.768178 0.382683 -5.681697
v 0.815493 0.195090 -5.650082
v 0.831469 -0.000000 -5.639407
v 0.815493 -0.195090 -5.650082
v 0.768178 -0.382683 -5.681697
v 0.691341 -0.555570 -5.733037
v 0.587938 -0.707107 -5.802130
v 0.461940 -0.831470 -5.886319
v 0.318190 -0.923880 -5.982369
v 0.162212 -0.980785 -6.086591
v 0.137950 0.980785 -6.057027
v 0.270598 0.923880 -5.924379
v 0.392847 0.831470 -5.802130
v 0.500000 0.707107 -5.694977
v 0.587938 0.555570 -5.607039
v 0.653281 0.382683 -5.541697
v 0.693520 0.195090 -5.501457
v 0.707106 -0.000000 -5.487870
v 0.693520 -0.195090 -5.501457
v 0.653281 -0.382683 -5.541697
v 0.587938 -0.555570 -5.607039
v 0.500000 -0.707107 -5.694977
v 0.392847 -0.831470 -5.802130
v 0.270598 -0.923880 -5.924379
v 0.137950 -0.980785 -6.057027
v 0.108386 0.980785 -6.032765
v 0.212607 0.923880 -5.876787
v 0.308658 0.831470 -5.733037
v 0.392847 0.707107 -5.607039
v 0.461940 0.555570 -5.503635
v 0.513280 0.382683 -5.426799
v 0.544895 0.195090 -5.379484
v 0.555570 -0.000000 -5.363508
v 0.544895 -0.195090 -5.379484
v 0.513280 -0.382683 -5.426799
v 0.461940 -0.555570 -5.503635
v 0.392847 -0.707107 -5.607039
v 0.308658 -0.831470 -5.733037
v 0.212607 -0.923880 -5.876787
v 0.108386 -0.980785 -6.032765
v 0.074658 0.980785 -6.014737
v 0.146447 0.923880 -5.841424
v 0.212607 0.831470 -5.681697
v 0.270598 0.707107 -5.541697
v 0.318189 0.555570 -5.426799
v 0.353553 0.382683 -5.341424
v 0.375330 0.195090 -5.288850
v 0.382683 -0.000000 -5.271098
v 0.375330 -0.195090 -5.288850
v 0.353553 -0.382683 -5.341424
v 0.318189 -0.555570 -5.426799
v 0.270598 -0.707107 -5.541696
v 0.212607 -0.831470 -5.681697
v 0.146447 -0.923880 -5.841424
v 0.074658 -0.980785 -6.014737
v 0.038060 0.980785 -6.003635
v 0.074658 0.923880 -5.819647
v 0.108386 0.831470 -5.650083
v 0.137950 0.707107 -5.501457
v 0.162212 0.555570 -5.379484
v 0.180240 0.382683 -5.288850
v 0.191342 0.195090 -5.233038
v 0.195090 -0.000000 -5.214192
v 0.191342 -0.195090 -5.233038
v 0.180240 -0.382683 -5.288850
v 0.162212 -0.555570 -5.379484
v 0.137950 -0.707107 -5.501457
v 0.108386 -0.831470 -5.650082
v 0.074658 -0.923880 -5.819647
v 0.038060 -0.980785 -6.003635
v 0.000000 0.980785 -5.999887
v 0.000000 0.923880 -5.812294
v 0.000000 0.831470 -5.639407
v 0.000000 0.707107 -5.487870
v 0.000000 0.555570 -5.363508
v 0.000000 0.382683 -5.271098
v 0.000000 0.195090 -5.214192
v 0.000000 -0.000000 -5.194978
v 0.000000 -0.195090 -5.214192
v 0.000000 -0.382683 -5.271098
v 0.000000 -0.555570 -5.363508
v 0.000000 -0.707107 -5.487870
v 0.000000 -0.831470 -5.639407
v 0.000000 -0.923880 -5.812294
v 0.000000 -0.980785 -5.999887
v -0.038060 0.980785 -6.003635
v -0.074658 0.923880 -5.819647
v -0.108386 0.831470 -5.650083
v -0.137950 0.707107 -5.501457
v -0.162212 0.555570 -5.379484
v -0.180240 0.382683 -5.288850
v -0.191342 0.195090 -5.233038
v -0.195091 -0.000000 -5.214192
v -0.191342 -0.195090 -5.233038
v -0.180240 -0.382683 -5.288850
v -0.162212 -0.555570 -5.379484
v -0.137950 -0.707107 -5.501457
v -0.108386 -0.831470 -5.650082
v -0.074658 -0.923880 -5.819647
v -0.038060 -0.980785 -6.003635
v -0.074658 0.980785 -6.014737
v -0.146447 0.923880 -5.841424
v -0.212608 0.831470 -5.681697
v -0.270598 0.707107 -5.541697
v -0.318190 0.555570 -5.426800
v -0.353553 0.382683 -5.341424
v -0.375330 0.195090 -5.288850
v -0.382683 -0.000000 -5.271098
v -0.375330 -0.195090 -5.288850
v -0.353553 -0.382683 -5.341424
v -0.318190 -0.555570 -5.426800
v -0.270598 -0.707107 -5.541696
v -0.212608 -0.831470 -5.681697
v -0.146447 -0.923880 -5.841424
v -0.074658 -0.980785 -6.014737
v -0.108386 0.980785 -6.032765
v -0.212608 0.923880 -5.876787
v -0.308658 0.831470 -5.733038
v -0.392847 0.707107 -5.607039
v -0.461940 0.555570 -5.503636
v -0.513280 0.382683 -5.426799
v -0.544895 0.195090 -5.379484
v -0.555570 -0.000000 -5.363508
v -0.544895 -0.195090 -5.379484
v -0.513280 -0.382683 -5.426799
v -0.461940 -0.555570 -5.503636
v -0.392847 -0.707107 -5.607039
v -0.308658 -0.831470 -5.733038
v -0.212608 -0.923880 -5.876787
v -0.108386 -0.980785 -6.032765
v -0.137950 0.980785 -6.057027
v -0.270598 0.923880 -5.924379
v -0.392847 0.831470 -5.802130
v -0.500000 0.707107 -5.694977
v -0.587938 0.555570 -5.607040
v -0.653281 0.382683 -5.541697
v -0.693520 0.195090 -5.501457
v -0.707106 -0.000000 -5.487871
v -0.693520 -0.195090 -5.501457
v -0.653281 -0.382683 -5.541697
v -0.587938 -0.555570 -5.607040
v -0.500000 -0.707107 -5.694977
v -0.392847 -0.831470 -5.802130
v -0.270598 -0.923880 -5.924379
v -0.137950 -0.980785 -6.057027
v 0.000000 -1.000000 -6.194977
v -0.162212 0.980785 -6.086591
v -0.318190 0.923880 -5.982370
v -0.461940 0.831470 -5.886319
v -0.587938 0.707107 -5.802130
v -0.691341 0.555570 -5.733038
v -0.768177 0.382683 -5.681697
v -0.815493 0.195090 -5.650082
v -0.831469 -0.000000 -5.639408
v -0.815493 -0.195090 -5.650082
v -0.768177 -0.382683 -5.681697
v -0.691341 -0.555570 -5.733038
v -0.587938 -0.707107 -5.802130
v -0.461940 -0.831470 -5.886319
v -0.318190 -0.923880 -5.982370
v -0.162212 -0.980785 -6.086591
v -0.180240 0.980785 -6.120319
v -0.353553 0.923880 -6.048531
v -0.513280 0.831470 -5.982370
v -0.653281 0.707107 -5.924379
v -0.768177 0.555570 -5.876788
v -0.853553 0.382683 -5.841424
v -0.906127 0.195090 -5.819647
v -0.923879 -0.000000 -5.812294
v -0.906127 -0.195090 -5.819647
v -0.853553 -0.382683 -5.841424
v -0.768177 -0.555570 -5.876788
v -0.653281 -0.707107 -5.924379
v -0.513280 -0.831470 -5.982370
v -0.353553 -0.923880 -6.048530
v -0.180240 -0.980785 -6.120319
v -0.191342 0.980785 -6.156918
v -0.375330 0.923880 -6.120319
v -0.544895 0.831470 -6.086591
v -0.693520 0.707107 -6.057027
v -0.815493 0.555570 -6.032766
v -0.906127 0.382683 -6.014737
v -0.961939 0.195090 -6.003636
v -0.980784 -0.000000 -5.999887
v -0.961939 -0.195090 -6.003636
v -0.906127 -0.382683 -6.014737
v -0.815493 -0.555570 -6.032766
v -0.693520 -0.707107 -6.057027
v -0.544895 -0.831470 -6.086591
v -0.375330 -0.923880 -6.120319
v -0.191342 -0.980785 -6.156917
v -0.195090 0.980785 -6.194977
v -0.382683 0.923880 -6.194977
v -0.555570 0.831470 -6.194977
v -0.707107 0.707107 -6.194977
v -0.831469 0.555570 -6.194977
v -0.923879 0.382683 -6.194977
v -0.980785 0.195090 -6.194977
v -0.999999 -0.000000 -6.194977
v -0.980785 -0.195090 -6.194977
v -0.923879 -0.382683 -6.194977
v -0.831469 -0.555570 -6.194977
v -0.707107 -0.707107 -6.194977
v -0.555570 -0.831470 -6.194977
v -0.382683 -0.923880 -6.194977
v -0.195090 -0.980785 -6.194977
v -0.191342 0.980785 -6.233037
v -0.375330 0.923880 -6.269635
v -0.544895 0.831470 -6.303363
v -0.693520 0.707107 -6.332927
v -0.815493 0.555570 -6.357189
v -0.906127 0.382683 -6.375217
v -0.961939 0.195090 -6.386319
v -0.980784 -0.000000 -6.390068
v -0.961939 -0.195090 -6.386319
v -0.906127 -0.382683 -6.375217
v -0.815493 -0.555570 -6.357189
v -0.693520 -0.707107 -6.332927
v -0.544895 -0.831470 -6.303363
v -0.375330 -0.923880 -6.269635
v -0.191342 -0.980785 -6.233037
v -0.180240 0.980785 -6.269635
v -0.353553 0.923880 -6.341424
v -0.513279 0.831470 -6.407584
v -0.653281 0.707107 -6.465575
v -0.768177 0.555570 -6.513167
v -0.853553 0.382683 -6.548530
v -0.906127 0.195090 -6.570307
v -0.923878 -0.000000 -6.577660
v -0.906127 -0.195090 -6.570307
v -0.853553 -0.382684 -6.548530
v -0.768177 -0.555570 -6.513167
v -0.653281 -0.707107 -6.465575
v -0.513279 -0.831470 -6.407584
v -0.353553 -0.923880 -6.341424
v -0.180240 -0.980785 -6.269635
v -0.162212 0.980785 -6.303363
v -0.318189 0.923880 -6.407584
v -0.461939 0.831470 -6.503635
v -0.587938 0.707107 -6.587824
v -0.691341 0.555570 -6.656917
v -0.768177 0.382683 -6.708257
v -0.815493 0.195089 -6.739872
v -0.831468 -0.000001 -6.750547
v -0.815493 -0.195091 -6.739872
v -0.768177 -0.382684 -6.708257
v -0.691341 -0.555570 -6.656917
v -0.587938 -0.707107 -6.587824
v -0.461939 -0.831470 -6.503635
v -0.318189 -0.923880 -6.407584
v -0.162212 -0.980785 -6.303363
v -0.137950 0.980785 -6.332927
v -0.270598 0.923880 -6.465575
v -0.392847 0.831470 -6.587824
v -0.500000 0.707107 -6.694977
v -0.587937 0.555569 -6.782915
v -0.653281 0.382683 -6.848258
v -0.693519 0.195089 -6.888497
v -0.707106 -0.000001 -6.902083
v -0.693519 -0.195091 -6.888497
v -0.653281 -0.382684 -6.848258
v -0.587937 -0.555571 -6.782915
v -0.500000 -0.707107 -6.694977
v -0.392847 -0.831470 -6.587824
v -0.270598 -0.923880 -6.465575
v -0.137950 -0.980785 -6.332927
v -0.108386 0.980785 -6.357189
v -0.212607 0.923880 -6.513167
v -0.308658 0.831470 -6.656916
v -0.392847 0.707106 -6.782915
v -0.461939 0.555569 -6.886318
v -0.513280 0.382682 -6.963154
v -0.544895 0.195089 -7.010470
v -0.555569 -0.000001 -7.026446
v -0.544895 -0.195091 -7.010470
v -0.513280 -0.382684 -6.963154
v -0.461939 -0.555571 -6.886318
v -0.392847 -0.707108 -6.782915
v -0.308658 -0.831470 -6.656916
v -0.212607 -0.923880 -6.513167
v -0.108386 -0.980785 -6.357189
v -0.074658 0.980785 -6.375217
v -0.146446 0.923880 -6.548531
v -0.212607 0.831470 -6.708256
v -0.270598 0.707106 -6.848258
v -0.318189 0.555569 -6.963154
v -0.353553 0.382682 -7.048530
v -0.375330 0.195089 -7.101104
v -0.382683 -0.000001 -7.118856
v -0.375330 -0.195091 -7.101104
v -0.353553 -0.382684 -7.048530
v -0.318189 -0.555571 -6.963154
v -0.270598 -0.707108 -6.848258
v -0.212607 -0.831470 -6.708256
v -0.146446 -0.923880 -6.548530
v -0.074658 -0.980785 -6.375217
v -0.038060 0.980785 -6.386319
v -0.074658 0.923880 -6.570307
v -0.108386 0.831469 -6.739872
v -0.137950 0.707106 -6.888497
v -0.162211 0.555569 -7.010470
v -0.180240 0.382682 -7.101104
v -0.191341 0.195089 -7.156916
v -0.195090 -0.000001 -7.175761
v -0.191341 -0.195091 -7.156916
v -0.180240 -0.382684 -7.101104
v -0.162211 -0.555571 -7.010470
v -0.137950 -0.707108 -6.888497
v -0.108386 -0.831471 -6.739872
v -0.074658 -0.923880 -6.570307
v -0.038060 -0.980785 -6.386319
v 0.000000 0.980785 -6.390068
v 0.000000 0.923880 -6.577661
v 0.000000 0.707106 -6.902084
v 0.000000 0.382682 -7.118856
v 0.000000 -0.382684 -7.118856
v 0.000000 -0.707108 -6.902084
v 0.000000 -0.831471 -6.750547
v 0.000000 -0.923880 -6.577660
v 0.000000 -0.980785 -6.390067
vn 0.0001 -0.1391 -0.9903
vn 0.0059 -0.1518 -0.9884
vn 0.0123 -0.1514 -0.9884
vn -0.0000 0.0272 -0.9996
vn 0.0272 -0.0000 -0.9996
vn -0.0000 -0.0000 -1.0000
vn -0.0000 0.1517 -0.9884
vn -0.0000 0.1594 -0.9872
vn 0.0060 0.1518 -0.9884
vn 0.0025 -0.1594 -0.9872
vn -0.0000 -0.1517 -0.9884
vn 0.0060 -0.1518 -0.9884
vn 0.0268 -0.0273 -0.9993
vn -0.0000 -0.0272 -0.9996
vn 0.0001 0.1392 -0.9903
vn 0.0059 0.1518 -0.9884
vn 0.0113 0.1393 -0.9902
vn 0.0254 -0.0539 -0.9982
vn -0.0000 -0.0537 -0.9986
vn -0.0000 0.1222 -0.9925
vn 0.0113 0.1392 -0.9902
vn 0.0160 0.1224 -0.9924
vn 0.0231 -0.0790 -0.9966
vn -0.0000 -0.0788 -0.9969
vn -0.0000 0.1019 -0.9948
vn 0.0200 0.1020 -0.9946
vn -0.0000 -0.1019 -0.9948
vn 0.0231 -0.0789 -0.9966
vn 0.0199 -0.1021 -0.9946
vn 0.0231 0.0789 -0.9966
vn -0.0000 0.0788 -0.9969
vn 0.0160 -0.1224 -0.9924
vn -0.0000 -0.1222 -0.9925
vn -0.0000 0.0537 -0.9986
vn 0.0231 0.0790 -0.9966
vn 0.0253 0.0538 -0.9982
vn 0.0113 -0.1392 -0.9902
vn -0.0000 -0.1391 -0.9903
vn 0.0254 0.0539 -0.9982
vn 0.0267 0.0273 -0.9993
vn 0.0314 -0.1229 -0.9919
vn 0.0221 -0.1397 -0.9899
vn 0.0500 0.0542 -0.9973
vn 0.0528 0.0274 -0.9982
vn 0.0112 -0.1393 -0.9902
vn 0.0116 -0.1521 -0.9883
vn 0.0268 0.0272 -0.9993
vn 0.0537 -0.0000 -0.9986
vn 0.0001 0.1594 -0.9872
vn 0.0115 0.1521 -0.9883
vn -0.0000 -0.1594 -0.9872
vn 0.0058 -0.1518 -0.9884
vn 0.0115 -0.1521 -0.9883
vn 0.0528 -0.0274 -0.9982
vn 0.0267 -0.0272 -0.9993
vn 0.0058 0.1518 -0.9884
vn 0.0221 0.1397 -0.9899
vn 0.0268 -0.0272 -0.9993
vn 0.0501 -0.0542 -0.9973
vn 0.0254 -0.0538 -0.9982
vn 0.0112 0.1392 -0.9902
vn 0.0314 0.1229 -0.9919
vn 0.0159 0.1224 -0.9924
vn 0.0500 -0.0542 -0.9973
vn 0.0455 -0.0795 -0.9958
vn 0.0392 0.1026 -0.9940
vn 0.0199 0.1020 -0.9946
vn 0.0455 -0.0794 -0.9958
vn 0.0392 -0.1026 -0.9939
vn 0.0199 0.1021 -0.9946
vn 0.0455 0.0794 -0.9958
vn 0.0230 0.0789 -0.9966
vn 0.0393 -0.1026 -0.9939
vn 0.0501 0.0541 -0.9973
vn 0.0254 0.0538 -0.9982
vn 0.0222 0.1396 -0.9900
vn 0.0460 0.1238 -0.9912
vn 0.0315 0.1229 -0.9919
vn 0.0734 -0.0548 -0.9958
vn 0.0667 -0.0802 -0.9945
vn 0.0575 0.1035 -0.9930
vn 0.0392 0.1026 -0.9939
vn 0.0666 -0.0802 -0.9945
vn 0.0575 -0.1035 -0.9930
vn 0.0393 0.1026 -0.9939
vn 0.0667 0.0802 -0.9945
vn 0.0315 -0.1229 -0.9919
vn 0.0574 -0.1035 -0.9930
vn 0.0460 -0.1238 -0.9912
vn 0.0734 0.0547 -0.9958
vn 0.0500 0.0541 -0.9973
vn 0.0221 -0.1397 -0.9900
vn 0.0323 -0.1404 -0.9896
vn 0.0775 0.0277 -0.9966
vn 0.0117 -0.1521 -0.9883
vn 0.0168 -0.1525 -0.9882
vn 0.0789 -0.0000 -0.9969
vn 0.0117 0.1520 -0.9883
vn -0.0001 0.1594 -0.9872
vn 0.0168 0.1525 -0.9882
vn 0.0001 -0.1594 -0.9872
vn 0.0116 -0.1520 -0.9883
vn 0.0169 -0.1525 -0.9882
vn 0.0775 -0.0277 -0.9966
vn 0.0116 0.1521 -0.9883
vn 0.0323 0.1404 -0.9896
vn 0.0222 0.1397 -0.9899
vn 0.0734 -0.0547 -0.9958
vn 0.0500 -0.0541 -0.9973
vn 0.0774 0.0277 -0.9966
vn 0.0948 0.0555 -0.9939
vn 0.1001 0.0282 -0.9946
vn 0.0413 -0.1414 -0.9891
vn 0.0216 -0.1530 -0.9880
vn 0.0788 -0.0000 -0.9969
vn 0.1019 -0.0000 -0.9948
vn 0.0169 0.1524 -0.9882
vn 0.0215 0.1530 -0.9880
vn 0.0169 -0.1524 -0.9882
vn 0.0214 -0.1530 -0.9880
vn 0.1001 -0.0282 -0.9946
vn 0.0774 -0.0278 -0.9966
vn 0.0169 0.1525 -0.9882
vn 0.0414 0.1414 -0.9891
vn 0.0774 -0.0277 -0.9966
vn 0.0948 -0.0556 -0.9939
vn 0.0324 0.1404 -0.9896
vn 0.0591 0.1250 -0.9904
vn 0.0948 -0.0555 -0.9940
vn 0.0860 -0.0813 -0.9930
vn 0.0741 0.1047 -0.9917
vn 0.0740 -0.1047 -0.9917
vn 0.0740 0.1047 -0.9917
vn 0.0861 0.0813 -0.9930
vn 0.0741 -0.1047 -0.9917
vn 0.0591 -0.1250 -0.9904
vn 0.0948 0.0555 -0.9940
vn 0.0590 -0.1250 -0.9904
vn 0.0414 -0.1414 -0.9891
vn 0.0861 -0.0813 -0.9930
vn 0.1136 -0.0565 -0.9919
vn 0.1029 -0.0827 -0.9912
vn 0.0590 0.1250 -0.9904
vn 0.0884 0.1063 -0.9904
vn 0.0740 0.1048 -0.9917
vn 0.0884 -0.1063 -0.9904
vn 0.1029 0.0827 -0.9912
vn 0.0703 -0.1265 -0.9895
vn 0.0860 0.0813 -0.9930
vn 0.1136 0.0566 -0.9919
vn 0.0491 -0.1426 -0.9886
vn 0.1001 0.0281 -0.9946
vn 0.1200 0.0287 -0.9924
vn 0.0415 -0.1413 -0.9891
vn 0.0255 -0.1537 -0.9878
vn 0.0215 -0.1531 -0.9880
vn 0.1200 0.0288 -0.9924
vn 0.1222 -0.0000 -0.9925
vn 0.0214 0.1530 -0.9880
vn 0.0254 0.1537 -0.9878
vn 0.0254 -0.1537 -0.9878
vn 0.1200 -0.0287 -0.9924
vn 0.0413 0.1414 -0.9891
vn 0.0492 0.1426 -0.9886
vn 0.1136 -0.0566 -0.9919
vn 0.0948 -0.0555 -0.9939
vn 0.0590 0.1251 -0.9904
vn 0.0491 0.1426 -0.9886
vn 0.0703 0.1265 -0.9895
vn 0.0552 -0.1440 -0.9880
vn 0.0284 -0.1545 -0.9876
vn 0.1222 0.0001 -0.9925
vn 0.1365 0.0294 -0.9902
vn 0.1391 -0.0000 -0.9903
vn -0.0000 0.1593 -0.9872
vn 0.0283 0.1545 -0.9876
vn -0.0000 -0.1593 -0.9872
vn 0.1222 -0.0001 -0.9925
vn 0.1365 -0.0294 -0.9902
vn 0.1201 -0.0288 -0.9923
vn 0.0254 0.1538 -0.9878
vn 0.0551 0.1440 -0.9880
vn 0.1201 -0.0287 -0.9924
vn 0.1290 -0.0579 -0.9900
vn 0.0490 0.1426 -0.9886
vn 0.0792 0.1283 -0.9886
vn 0.1030 -0.0827 -0.9912
vn 0.1167 -0.0845 -0.9896
vn 0.0999 0.1082 -0.9891
vn 0.0999 -0.1082 -0.9891
vn 0.1030 0.0827 -0.9912
vn 0.1000 0.1082 -0.9891
vn 0.1167 0.0845 -0.9896
vn 0.1000 -0.1082 -0.9891
vn 0.0792 -0.1283 -0.9886
vn 0.1029 0.0828 -0.9912
vn 0.1290 0.0579 -0.9900
vn 0.0551 -0.1440 -0.9880
vn 0.1201 0.0288 -0.9924
vn 0.1290 0.0579 -0.9899
vn 0.1167 -0.0844 -0.9896
vn 0.1082 -0.1104 -0.9880
vn 0.1082 0.1104 -0.9880
vn 0.1267 0.0865 -0.9882
vn 0.0854 -0.1304 -0.9878
vn 0.1405 0.0594 -0.9883
vn 0.1291 0.0578 -0.9899
vn 0.0591 -0.1456 -0.9876
vn 0.1366 0.0295 -0.9902
vn 0.1489 0.0302 -0.9884
vn 0.0550 -0.1440 -0.9880
vn 0.0303 -0.1554 -0.9874
vn 0.1391 0.0001 -0.9903
vn 0.1517 -0.0000 -0.9884
vn 0.0285 0.1545 -0.9876
vn 0.0303 0.1554 -0.9874
vn 0.0304 -0.1553 -0.9874
vn 0.1478 -0.0420 -0.9881
vn 0.1366 -0.0294 -0.9902
vn 0.0590 0.1456 -0.9876
vn 0.1366 -0.0295 -0.9902
vn 0.1405 -0.0594 -0.9883
vn 0.1290 -0.0580 -0.9899
vn 0.0793 0.1283 -0.9886
vn 0.0591 0.1456 -0.9876
vn 0.0854 0.1303 -0.9878
vn 0.1268 -0.0864 -0.9882
vn 0.0303 0.1553 -0.9874
vn 0.0001 0.1593 -0.9872
vn 0.0310 0.1563 -0.9872
vn 0.0302 -0.1554 -0.9874
vn 0.0311 -0.1563 -0.9872
vn 0.1570 -0.0248 -0.9873
vn 0.1489 -0.0302 -0.9884
vn 0.0610 0.1472 -0.9872
vn 0.0591 0.1455 -0.9876
vn 0.1438 -0.0724 -0.9870
vn 0.0885 0.1325 -0.9872
vn 0.1473 -0.0610 -0.9872
vn 0.1325 -0.0886 -0.9872
vn 0.1126 0.1127 -0.9872
vn 0.1082 0.1103 -0.9880
vn 0.1127 -0.1127 -0.9872
vn 0.1082 -0.1103 -0.9880
vn 0.1268 0.0864 -0.9882
vn 0.1127 0.1127 -0.9872
vn 0.1325 0.0886 -0.9872
vn 0.0853 -0.1304 -0.9878
vn 0.0885 -0.1325 -0.9872
vn 0.1268 0.0863 -0.9882
vn 0.1472 0.0610 -0.9872
vn 0.1404 0.0594 -0.9883
vn 0.0610 -0.1472 -0.9872
vn 0.1473 0.0610 -0.9872
vn 0.1563 0.0311 -0.9872
vn 0.0591 -0.1455 -0.9876
vn 0.0310 -0.1563 -0.9872
vn 0.1594 -0.0000 -0.9872
vn 0.1325 0.0885 -0.9872
vn 0.1130 0.1151 -0.9869
vn 0.1334 0.0909 -0.9869
vn 0.1130 -0.1151 -0.9869
vn 0.0884 -0.1347 -0.9869
vn 0.1324 0.0886 -0.9872
vn 0.1486 0.0628 -0.9869
vn 0.0886 -0.1324 -0.9872
vn 0.0605 -0.1489 -0.9870
vn 0.1562 0.0311 -0.9872
vn 0.1619 0.0194 -0.9866
vn 0.0307 -0.1572 -0.9871
vn 0.1593 -0.0000 -0.9872
vn 0.1581 0.0320 -0.9869
vn 0.1607 0.0062 -0.9870
vn 0.0311 0.1563 -0.9872
vn 0.0307 0.1572 -0.9871
vn -0.0001 -0.1593 -0.9872
vn 0.0311 -0.1562 -0.9872
vn 0.1593 0.0001 -0.9872
vn 0.1581 -0.0321 -0.9869
vn 0.1563 -0.0311 -0.9872
vn 0.0609 0.1472 -0.9872
vn 0.0605 0.1489 -0.9870
vn 0.1562 -0.0311 -0.9872
vn 0.1486 -0.0628 -0.9869
vn 0.1472 -0.0609 -0.9872
vn 0.0606 0.1489 -0.9870
vn 0.0883 0.1348 -0.9869
vn 0.1325 -0.0885 -0.9872
vn 0.1487 -0.0627 -0.9869
vn 0.1334 -0.0908 -0.9869
vn 0.1130 0.1152 -0.9869
vn 0.1127 0.1126 -0.9872
vn 0.1324 -0.0885 -0.9872
vn 0.1126 -0.1127 -0.9872
vn 0.1614 0.0001 -0.9869
vn 0.1582 -0.0321 -0.9869
vn 0.1538 -0.0330 -0.9875
vn 0.0308 0.1572 -0.9871
vn 0.0577 0.1507 -0.9869
vn 0.1582 -0.0320 -0.9869
vn 0.1487 -0.0628 -0.9869
vn 0.1443 -0.0647 -0.9874
vn 0.0847 0.1371 -0.9869
vn 0.1334 -0.0909 -0.9869
vn 0.1291 -0.0933 -0.9872
vn 0.0883 0.1349 -0.9869
vn 0.1131 0.1152 -0.9869
vn 0.1088 0.1178 -0.9871
vn 0.1335 -0.0908 -0.9869
vn 0.1130 -0.1153 -0.9869
vn 0.1089 -0.1178 -0.9870
vn 0.1290 0.0934 -0.9872
vn 0.1089 0.1178 -0.9870
vn 0.0884 -0.1348 -0.9869
vn 0.0847 -0.1372 -0.9869
vn 0.1335 0.0908 -0.9869
vn 0.1487 0.0628 -0.9869
vn 0.1443 0.0647 -0.9874
vn 0.0606 -0.1489 -0.9870
vn 0.0846 -0.1371 -0.9869
vn 0.0577 -0.1507 -0.9869
vn 0.1582 0.0321 -0.9869
vn 0.1538 0.0331 -0.9875
vn 0.1443 0.0646 -0.9874
vn 0.0291 -0.1581 -0.9870
vn 0.1614 -0.0001 -0.9869
vn 0.1570 -0.0000 -0.9876
vn 0.1538 0.0330 -0.9875
vn -0.0001 0.1593 -0.9872
vn 0.0291 0.1581 -0.9870
vn 0.0290 -0.1581 -0.9870
vn 0.0848 -0.1372 -0.9869
vn 0.0775 -0.1395 -0.9872
vn 0.1001 -0.1204 -0.9877
vn 0.1336 0.0666 -0.9888
vn 0.0577 -0.1508 -0.9869
vn 0.0525 -0.1525 -0.9869
vn 0.1537 0.0331 -0.9876
vn 0.1428 0.0341 -0.9892
vn 0.1337 0.0665 -0.9888
vn 0.0290 -0.1582 -0.9870
vn 0.0525 -0.1524 -0.9869
vn 0.0263 -0.1590 -0.9869
vn 0.1569 -0.0001 -0.9876
vn 0.1458 -0.0000 -0.9893
vn 0.1427 0.0341 -0.9892
vn 0.0290 0.1581 -0.9870
vn 0.0263 0.1590 -0.9869
vn 0.1569 0.0001 -0.9876
vn 0.1537 -0.0331 -0.9876
vn 0.1427 -0.0341 -0.9892
vn 0.0290 0.1582 -0.9870
vn 0.0525 0.1524 -0.9869
vn 0.0576 0.1507 -0.9869
vn 0.1538 -0.0330 -0.9876
vn 0.1443 -0.0646 -0.9874
vn 0.1336 -0.0666 -0.9888
vn 0.0577 0.1508 -0.9869
vn 0.0847 0.1372 -0.9869
vn 0.0775 0.1395 -0.9872
vn 0.1290 -0.0933 -0.9872
vn 0.1191 -0.0958 -0.9882
vn 0.1337 -0.0665 -0.9888
vn 0.1001 0.1204 -0.9877
vn 0.1290 -0.0934 -0.9872
vn 0.1089 -0.1177 -0.9871
vn 0.1000 -0.1204 -0.9877
vn 0.1290 0.0933 -0.9872
vn 0.1192 0.0958 -0.9882
vn 0.0525 0.1525 -0.9869
vn 0.0451 0.1539 -0.9871
vn 0.1337 -0.0666 -0.9888
vn 0.1168 -0.0685 -0.9908
vn 0.0774 0.1395 -0.9872
vn 0.0669 0.1415 -0.9877
vn 0.1192 -0.0957 -0.9882
vn 0.1037 -0.0980 -0.9898
vn 0.1168 -0.0684 -0.9908
vn 0.0775 0.1394 -0.9872
vn 0.1001 0.1203 -0.9877
vn 0.0868 0.1227 -0.9886
vn 0.1191 -0.0957 -0.9883
vn 0.1000 -0.1203 -0.9877
vn 0.0868 -0.1227 -0.9886
vn 0.1192 0.0957 -0.9883
vn 0.1037 0.0980 -0.9898
vn 0.0774 -0.1395 -0.9872
vn 0.0669 -0.1415 -0.9877
vn 0.0868 -0.1228 -0.9886
vn 0.1192 0.0957 -0.9882
vn 0.1337 0.0666 -0.9888
vn 0.1168 0.0684 -0.9908
vn 0.0524 -0.1525 -0.9869
vn 0.0451 -0.1540 -0.9870
vn 0.0669 -0.1416 -0.9877
vn 0.1250 0.0352 -0.9915
vn 0.0225 -0.1598 -0.9869
vn 0.0451 -0.1539 -0.9871
vn 0.1459 -0.0000 -0.9893
vn 0.1278 -0.0000 -0.9918
vn 0.1250 0.0351 -0.9915
vn 0.0262 0.1590 -0.9869
vn 0.0224 0.1598 -0.9869
vn 0.0001 -0.1593 -0.9872
vn 0.0225 -0.1597 -0.9869
vn 0.1428 -0.0341 -0.9892
vn 0.1250 -0.0351 -0.9915
vn 0.1038 0.0981 -0.9898
vn 0.1168 0.0685 -0.9908
vn 0.0939 0.0700 -0.9931
vn 0.0670 -0.1415 -0.9877
vn 0.0450 -0.1539 -0.9871
vn 0.0358 -0.1552 -0.9872
vn 0.1251 0.0351 -0.9915
vn 0.1007 0.0361 -0.9943
vn 0.0940 0.0700 -0.9931
vn 0.0452 -0.1540 -0.9870
vn 0.0224 -0.1598 -0.9869
vn 0.0177 -0.1605 -0.9869
vn 0.1031 -0.0000 -0.9947
vn 0.1008 0.0360 -0.9943
vn 0.0226 0.1598 -0.9869
vn 0.0177 0.1604 -0.9869
vn 0.0178 -0.1604 -0.9869
vn 0.1250 -0.0352 -0.9915
vn 0.1008 -0.0360 -0.9943
vn 0.0451 0.1540 -0.9870
vn 0.0357 0.1552 -0.9872
vn 0.0177 0.1605 -0.9869
vn 0.0939 -0.0701 -0.9931
vn 0.0532 0.1433 -0.9882
vn 0.1038 -0.0980 -0.9898
vn 0.0832 -0.1001 -0.9915
vn 0.0939 -0.0700 -0.9931
vn 0.0694 0.1247 -0.9898
vn 0.1038 -0.0981 -0.9898
vn 0.0867 -0.1228 -0.9886
vn 0.0694 -0.1248 -0.9898
vn 0.1038 0.0980 -0.9898
vn 0.0832 0.1000 -0.9915
vn 0.0694 0.1248 -0.9898
vn 0.0668 -0.1415 -0.9877
vn 0.0532 -0.1433 -0.9882
vn 0.0693 -0.1248 -0.9898
vn 0.1007 -0.0361 -0.9943
vn 0.0940 -0.0700 -0.9931
vn 0.0659 -0.0714 -0.9953
vn 0.0358 0.1551 -0.9872
vn 0.0370 0.1447 -0.9888
vn 0.0833 -0.1001 -0.9915
vn 0.0583 -0.1017 -0.9931
vn 0.0484 0.1264 -0.9908
vn 0.0484 -0.1264 -0.9908
vn 0.0832 0.1001 -0.9915
vn 0.0583 0.1017 -0.9931
vn 0.0484 0.1265 -0.9908
vn 0.0531 -0.1433 -0.9882
vn 0.0370 -0.1447 -0.9888
vn 0.0940 0.0701 -0.9931
vn 0.0659 0.0713 -0.9953
vn 0.0357 -0.1552 -0.9872
vn 0.0247 -0.1562 -0.9874
vn 0.0708 0.0368 -0.9968
vn 0.0123 -0.1610 -0.9869
vn 0.0248 -0.1562 -0.9874
vn 0.0724 -0.0000 -0.9974
vn 0.0708 0.0367 -0.9968
vn 0.0123 0.1609 -0.9869
vn 0.0177 -0.1604 -0.9869
vn 0.0122 -0.1609 -0.9869
vn 0.1007 -0.0360 -0.9943
vn 0.0708 -0.0368 -0.9968
vn 0.0178 0.1605 -0.9869
vn 0.0247 0.1562 -0.9874
vn 0.0248 -0.1561 -0.9874
vn 0.0126 -0.1567 -0.9876
vn 0.0190 -0.1455 -0.9892
vn 0.0707 0.0368 -0.9968
vn 0.0365 0.0372 -0.9986
vn 0.0340 0.0721 -0.9968
vn 0.0123 -0.1609 -0.9869
vn 0.0062 -0.1613 -0.9869
vn 0.0127 -0.1568 -0.9875
vn 0.0373 -0.0000 -0.9993
vn 0.0122 0.1609 -0.9869
vn 0.0063 0.1612 -0.9869
vn 0.0062 -0.1612 -0.9869
vn 0.0707 -0.0368 -0.9968
vn 0.0365 -0.0372 -0.9986
vn 0.0248 0.1562 -0.9874
vn 0.0127 0.1568 -0.9875
vn 0.0659 -0.0713 -0.9953
vn 0.0340 -0.0721 -0.9968
vn 0.0248 0.1561 -0.9874
vn 0.0371 0.1447 -0.9888
vn 0.0189 0.1455 -0.9892
vn 0.0300 -0.1027 -0.9943
vn 0.0340 -0.0722 -0.9968
vn 0.0485 0.1264 -0.9908
vn 0.0248 0.1274 -0.9915
vn 0.0249 -0.1275 -0.9915
vn 0.0300 0.1027 -0.9943
vn 0.0250 0.1275 -0.9915
vn 0.0189 -0.1456 -0.9892
vn 0.0249 -0.1274 -0.9915
vn 0.0659 0.0714 -0.9953
vn 0.0340 0.0722 -0.9968
vn -0.0000 -0.1031 -0.9947
vn -0.0000 -0.0724 -0.9974
vn 0.0189 0.1456 -0.9892
vn -0.0000 0.1278 -0.9918
vn 0.0299 -0.1027 -0.9943
vn 0.0248 -0.1275 -0.9915
vn -0.0000 -0.1278 -0.9918
vn -0.0000 0.1031 -0.9947
vn -0.0000 -0.1458 -0.9893
vn 0.0299 0.1027 -0.9943
vn -0.0000 0.0724 -0.9974
vn -0.0000 -0.1569 -0.9876
vn -0.0001 -0.1458 -0.9893
vn -0.0000 0.0373 -0.9993
vn -0.0000 -0.1614 -0.9869
vn 0.0062 0.1612 -0.9869
vn -0.0000 0.1613 -0.9869
vn 0.0006 -0.1613 -0.9869
vn -0.0000 -0.0373 -0.9993
vn 0.0126 0.1568 -0.9875
vn -0.0039 0.1571 -0.9876
vn -0.0000 0.1614 -0.9869
vn 0.0126 0.1567 -0.9876
vn 0.0190 0.1455 -0.9892
vn -0.0000 0.1458 -0.9893
vn 0.0039 -0.1571 -0.9876
vn -0.0063 -0.1613 -0.9869
vn -0.0374 -0.0000 -0.9993
vn -0.0365 0.0372 -0.9986
vn -0.0006 0.1613 -0.9869
vn -0.0062 0.1612 -0.9869
vn -0.0000 -0.1613 -0.9869
vn -0.0062 -0.1612 -0.9869
vn -0.0365 -0.0372 -0.9986
vn 0.0001 0.1570 -0.9876
vn -0.0127 0.1568 -0.9875
vn -0.0062 0.1613 -0.9869
vn -0.0340 -0.0721 -0.9968
vn 0.0001 0.1458 -0.9893
vn -0.0190 0.1455 -0.9892
vn -0.0126 0.1567 -0.9876
vn -0.0299 -0.1027 -0.9943
vn -0.0249 0.1274 -0.9915
vn -0.0248 -0.1275 -0.9915
vn -0.0299 0.1027 -0.9943
vn -0.0248 0.1275 -0.9915
vn 0.0001 -0.1458 -0.9893
vn -0.0189 -0.1455 -0.9892
vn -0.0248 -0.1274 -0.9915
vn -0.0340 0.0721 -0.9968
vn -0.0126 -0.1567 -0.9876
vn -0.0189 0.1456 -0.9892
vn -0.0483 0.1264 -0.9908
vn -0.0250 -0.1275 -0.9915
vn -0.0483 -0.1264 -0.9908
vn -0.0300 0.1027 -0.9943
vn -0.0583 0.1017 -0.9931
vn -0.0484 0.1264 -0.9908
vn -0.0190 -0.1455 -0.9892
vn -0.0370 -0.1447 -0.9888
vn -0.0485 -0.1264 -0.9908
vn -0.0340 0.0722 -0.9968
vn -0.0659 0.0713 -0.9953
vn -0.0127 -0.1567 -0.9876
vn -0.0248 -0.1562 -0.9874
vn -0.0365 0.0373 -0.9986
vn -0.0707 0.0368 -0.9968
vn -0.0127 -0.1568 -0.9875
vn -0.0122 -0.1609 -0.9869
vn -0.0373 -0.0000 -0.9993
vn -0.0724 -0.0000 -0.9974
vn -0.0123 0.1609 -0.9869
vn -0.0063 -0.1612 -0.9869
vn -0.0707 -0.0368 -0.9968
vn -0.0248 0.1562 -0.9874
vn -0.0659 -0.0713 -0.9953
vn -0.0370 0.1447 -0.9888
vn -0.0300 -0.1027 -0.9943
vn -0.0583 -0.1017 -0.9931
vn -0.0659 -0.0714 -0.9953
vn -0.1031 -0.0000 -0.9947
vn -0.1007 0.0360 -0.9943
vn -0.0122 0.1609 -0.9869
vn -0.0177 0.1604 -0.9869
vn -0.0123 -0.1609 -0.9869
vn -0.0177 -0.1604 -0.9869
vn -0.0708 -0.0367 -0.9968
vn -0.1007 -0.0360 -0.9943
vn -0.0123 0.1610 -0.9869
vn -0.0358 0.1552 -0.9872
vn -0.0708 -0.0368 -0.9968
vn -0.0940 -0.0700 -0.9931
vn -0.0247 0.1562 -0.9874
vn -0.0532 0.1433 -0.9882
vn -0.0832 -0.1001 -0.9915
vn -0.0940 -0.0701 -0.9931
vn -0.0693 0.1248 -0.9898
vn -0.0484 -0.1265 -0.9908
vn -0.0694 -0.1248 -0.9898
vn -0.0582 0.1017 -0.9931
vn -0.0833 0.1001 -0.9915
vn -0.0694 0.1248 -0.9898
vn -0.0369 -0.1447 -0.9888
vn -0.0532 -0.1433 -0.9883
vn -0.0659 0.0714 -0.9953
vn -0.0940 0.0701 -0.9931
vn -0.0248 -0.1561 -0.9874
vn -0.0358 -0.1551 -0.9872
vn -0.0708 0.0368 -0.9968
vn -0.1007 0.0361 -0.9943
vn -0.0940 0.0700 -0.9931
vn -0.0247 -0.1562 -0.9874
vn -0.0122 -0.1610 -0.9869
vn -0.0178 -0.1605 -0.9869
vn -0.0832 -0.1000 -0.9915
vn -0.0868 -0.1227 -0.9886
vn -0.0832 0.1001 -0.9915
vn -0.1038 0.0981 -0.9898
vn -0.0867 0.1228 -0.9886
vn -0.0532 -0.1433 -0.9882
vn -0.0669 -0.1415 -0.9877
vn -0.0939 0.0700 -0.9931
vn -0.1168 0.0685 -0.9908
vn -0.0357 -0.1552 -0.9872
vn -0.0451 -0.1539 -0.9871
vn -0.1008 0.0361 -0.9943
vn -0.1250 0.0352 -0.9915
vn -0.1168 0.0684 -0.9908
vn -0.0177 -0.1605 -0.9869
vn -0.0225 -0.1598 -0.9869
vn -0.0451 -0.1540 -0.9870
vn -0.1278 -0.0000 -0.9918
vn -0.0178 0.1604 -0.9869
vn -0.0225 0.1598 -0.9869
vn -0.0226 -0.1598 -0.9869
vn -0.1008 -0.0360 -0.9943
vn -0.1250 -0.0352 -0.9915
vn -0.0177 0.1605 -0.9869
vn -0.0357 0.1553 -0.9872
vn -0.0452 0.1540 -0.9870
vn -0.1007 -0.0361 -0.9943
vn -0.1168 -0.0684 -0.9908
vn -0.0531 0.1433 -0.9882
vn -0.0670 0.1415 -0.9877
vn -0.0450 0.1539 -0.9871
vn -0.1038 -0.0981 -0.9897
vn -0.1168 -0.0685 -0.9908
vn -0.0868 0.1227 -0.9886
vn -0.0225 0.1597 -0.9869
vn -0.0263 0.1590 -0.9869
vn -0.0224 -0.1598 -0.9869
vn -0.0262 -0.1590 -0.9869
vn -0.1250 -0.0351 -0.9915
vn -0.1428 -0.0341 -0.9892
vn -0.0451 0.1539 -0.9871
vn -0.0525 0.1525 -0.9869
vn -0.1336 -0.0666 -0.9888
vn -0.0669 0.1416 -0.9877
vn -0.0775 0.1395 -0.9872
vn -0.0525 0.1524 -0.9869
vn -0.1038 -0.0980 -0.9898
vn -0.1192 -0.0957 -0.9882
vn -0.1337 -0.0666 -0.9888
vn -0.0669 0.1415 -0.9877
vn -0.0868 0.1228 -0.9886
vn -0.1000 0.1204 -0.9877
vn -0.1037 -0.0980 -0.9898
vn -0.1000 -0.1204 -0.9877
vn -0.1038 0.0980 -0.9898
vn -0.1191 0.0957 -0.9883
vn -0.1000 0.1203 -0.9877
vn -0.0775 -0.1394 -0.9872
vn -0.1001 -0.1203 -0.9877
vn -0.1037 0.0980 -0.9898
vn -0.1336 0.0666 -0.9888
vn -0.0450 -0.1540 -0.9870
vn -0.0525 -0.1524 -0.9869
vn -0.1250 0.0351 -0.9915
vn -0.1428 0.0342 -0.9892
vn -0.0263 -0.1590 -0.9869
vn -0.1459 -0.0000 -0.9893
vn -0.1428 0.0341 -0.9892
vn -0.1192 0.0957 -0.9882
vn -0.1290 0.0934 -0.9872
vn -0.1089 0.1177 -0.9871
vn -0.0847 -0.1372 -0.9869
vn -0.1089 -0.1178 -0.9870
vn -0.1191 0.0958 -0.9882
vn -0.1337 0.0665 -0.9888
vn -0.1443 0.0647 -0.9874
vn -0.0775 -0.1395 -0.9872
vn -0.0525 -0.1525 -0.9869
vn -0.0577 -0.1508 -0.9869
vn -0.1427 0.0341 -0.9892
vn -0.1538 0.0330 -0.9876
vn -0.1443 0.0646 -0.9874
vn -0.0576 -0.1507 -0.9869
vn -0.0290 -0.1582 -0.9870
vn -0.1458 -0.0000 -0.9893
vn -0.1569 -0.0001 -0.9876
vn -0.1537 0.0331 -0.9876
vn -0.0291 0.1581 -0.9870
vn -0.0290 -0.1581 -0.9870
vn -0.1427 -0.0341 -0.9892
vn -0.1537 -0.0331 -0.9876
vn -0.0577 0.1507 -0.9869
vn -0.1337 -0.0665 -0.9888
vn -0.1443 -0.0647 -0.9874
vn -0.0847 0.1372 -0.9869
vn -0.1192 -0.0957 -0.9883
vn -0.1290 -0.0934 -0.9872
vn -0.1443 -0.0646 -0.9874
vn -0.1001 0.1204 -0.9877
vn -0.1088 0.1179 -0.9870
vn -0.1191 -0.0958 -0.9882
vn -0.1001 -0.1204 -0.9877
vn -0.1088 -0.1179 -0.9871
vn -0.1570 -0.0000 -0.9876
vn -0.1538 -0.0330 -0.9875
vn -0.1582 -0.0321 -0.9869
vn -0.0606 0.1489 -0.9870
vn -0.0576 0.1507 -0.9869
vn -0.1538 -0.0331 -0.9875
vn -0.1487 -0.0628 -0.9869
vn -0.0846 0.1371 -0.9869
vn -0.0884 0.1348 -0.9869
vn -0.1291 -0.0934 -0.9872
vn -0.1335 -0.0908 -0.9869
vn -0.1089 0.1178 -0.9870
vn -0.1130 0.1152 -0.9869
vn -0.1131 -0.1152 -0.9869
vn -0.1291 0.0933 -0.9872
vn -0.1335 0.0908 -0.9869
vn -0.1130 0.1153 -0.9869
vn -0.0847 -0.1371 -0.9869
vn -0.0883 -0.1349 -0.9869
vn -0.1488 0.0627 -0.9869
vn -0.0606 -0.1489 -0.9870
vn -0.1538 0.0331 -0.9875
vn -0.1582 0.0320 -0.9869
vn -0.1487 0.0628 -0.9869
vn -0.0605 -0.1489 -0.9870
vn -0.0308 -0.1572 -0.9871
vn -0.1583 -0.0132 -0.9873
vn -0.1613 -0.0001 -0.9869
vn -0.1582 0.0321 -0.9869
vn -0.0290 0.1581 -0.9870
vn -0.0307 0.1572 -0.9871
vn -0.0291 -0.1581 -0.9870
vn -0.0307 -0.1572 -0.9871
vn -0.0883 -0.1348 -0.9869
vn -0.1127 -0.1126 -0.9872
vn -0.0885 -0.1325 -0.9872
vn -0.1334 0.0908 -0.9869
vn -0.1472 0.0609 -0.9872
vn -0.1487 0.0627 -0.9869
vn -0.0610 -0.1472 -0.9872
vn -0.1581 0.0320 -0.9869
vn -0.1472 0.0610 -0.9872
vn -0.1562 0.0311 -0.9872
vn -0.0609 -0.1472 -0.9872
vn -0.0311 -0.1563 -0.9872
vn -0.1613 -0.0000 -0.9869
vn -0.1593 -0.0001 -0.9872
vn -0.0311 0.1562 -0.9872
vn -0.1607 -0.0062 -0.9870
vn -0.1562 -0.0311 -0.9872
vn -0.1581 -0.0320 -0.9869
vn -0.0610 0.1472 -0.9872
vn -0.0605 0.1489 -0.9870
vn -0.1619 -0.0194 -0.9866
vn -0.1472 -0.0609 -0.9872
vn -0.1486 -0.0628 -0.9869
vn -0.0883 0.1348 -0.9869
vn -0.0886 0.1324 -0.9872
vn -0.1334 -0.0908 -0.9869
vn -0.1472 -0.0610 -0.9872
vn -0.1324 -0.0885 -0.9872
vn -0.0884 0.1347 -0.9869
vn -0.1127 0.1126 -0.9872
vn -0.1130 0.1151 -0.9869
vn -0.1334 -0.0909 -0.9869
vn -0.1126 -0.1126 -0.9872
vn -0.1130 -0.1151 -0.9869
vn -0.1126 0.1127 -0.9872
vn -0.1324 0.0885 -0.9872
vn -0.1563 -0.0311 -0.9872
vn -0.1405 -0.0593 -0.9883
vn -0.1473 -0.0610 -0.9872
vn -0.0885 0.1325 -0.9872
vn -0.0591 0.1456 -0.9876
vn -0.0854 0.1303 -0.9878
vn -0.1325 -0.0885 -0.9872
vn -0.1404 -0.0594 -0.9883
vn -0.1268 -0.0863 -0.9882
vn -0.1082 0.1103 -0.9880
vn -0.1127 0.1127 -0.9872
vn -0.1325 -0.0886 -0.9872
vn -0.1082 -0.1103 -0.9880
vn -0.1127 -0.1127 -0.9872
vn -0.1325 0.0885 -0.9872
vn -0.1268 0.0864 -0.9882
vn -0.0886 -0.1325 -0.9872
vn -0.0854 -0.1303 -0.9878
vn -0.1325 0.0886 -0.9872
vn -0.1405 0.0593 -0.9883
vn -0.1473 0.0610 -0.9872
vn -0.0591 -0.1455 -0.9876
vn -0.1563 0.0311 -0.9872
vn -0.1405 0.0594 -0.9883
vn -0.1489 0.0302 -0.9884
vn -0.0303 -0.1554 -0.9874
vn -0.1594 -0.0000 -0.9872
vn -0.1517 -0.0000 -0.9884
vn -0.0311 0.1563 -0.9872
vn -0.0302 0.1554 -0.9874
vn -0.0310 -0.1563 -0.9872
vn -0.0303 -0.1553 -0.9874
vn -0.1489 -0.0302 -0.9884
vn -0.0609 0.1472 -0.9872
vn -0.0303 0.1554 -0.9874
vn -0.0591 0.1455 -0.9876
vn -0.0550 -0.1440 -0.9880
vn -0.0591 -0.1456 -0.9876
vn -0.1290 0.0580 -0.9899
vn -0.1366 0.0295 -0.9902
vn -0.0590 -0.1456 -0.9876
vn -0.0283 -0.1545 -0.9876
vn -0.1366 0.0294 -0.9902
vn -0.1391 -0.0000 -0.9903
vn -0.0304 0.1553 -0.9874
vn -0.0284 0.1545 -0.9876
vn -0.0001 -0.1594 -0.9872
vn -0.0285 -0.1545 -0.9876
vn -0.1366 -0.0294 -0.9902
vn -0.0550 0.1440 -0.9880
vn -0.1290 -0.0579 -0.9899
vn -0.1405 -0.0594 -0.9883
vn -0.0551 0.1440 -0.9880
vn -0.0792 0.1283 -0.9886
vn -0.1268 -0.0864 -0.9882
vn -0.1291 -0.0578 -0.9899
vn -0.1167 -0.0845 -0.9896
vn -0.0854 0.1304 -0.9878
vn -0.0999 0.1082 -0.9891
vn -0.1082 0.1104 -0.9880
vn -0.1267 -0.0865 -0.9882
vn -0.1000 -0.1082 -0.9891
vn -0.1082 -0.1104 -0.9880
vn -0.1167 0.0844 -0.9896
vn -0.0854 -0.1304 -0.9878
vn -0.0792 -0.1283 -0.9886
vn -0.1291 0.0579 -0.9899
vn -0.0491 0.1426 -0.9886
vn -0.0702 0.1266 -0.9895
vn -0.1167 -0.0844 -0.9896
vn -0.1136 -0.0566 -0.9919
vn -0.1029 -0.0828 -0.9912
vn -0.0884 0.1064 -0.9904
vn -0.1000 0.1082 -0.9891
vn -0.0884 -0.1063 -0.9904
vn -0.1168 0.0844 -0.9896
vn -0.0884 0.1063 -0.9904
vn -0.1030 0.0828 -0.9912
vn -0.0703 -0.1265 -0.9895
vn -0.1167 0.0845 -0.9896
vn -0.1135 0.0567 -0.9919
vn -0.1290 0.0579 -0.9900
vn -0.0491 -0.1426 -0.9886
vn -0.0551 -0.1440 -0.9880
vn -0.1365 0.0294 -0.9902
vn -0.1136 0.0566 -0.9919
vn -0.1201 0.0287 -0.9924
vn -0.0284 -0.1545 -0.9876
vn -0.0492 -0.1426 -0.9886
vn -0.0254 -0.1538 -0.9878
vn -0.1201 0.0288 -0.9923
vn -0.1222 0.0001 -0.9925
vn -0.0254 0.1537 -0.9878
vn -0.0254 -0.1537 -0.9878
vn -0.1201 -0.0287 -0.9923
vn -0.1365 -0.0294 -0.9902
vn -0.0551 0.1439 -0.9880
vn -0.1290 -0.0579 -0.9900
vn -0.1200 0.0287 -0.9924
vn -0.0948 0.0555 -0.9939
vn -0.1001 0.0282 -0.9946
vn -0.0215 -0.1531 -0.9880
vn -0.1222 -0.0000 -0.9925
vn -0.1019 -0.0000 -0.9948
vn -0.0216 0.1530 -0.9880
vn -0.0214 -0.1530 -0.9880
vn -0.1001 -0.0282 -0.9946
vn -0.1200 -0.0287 -0.9924
vn -0.0255 0.1537 -0.9878
vn -0.0414 0.1414 -0.9891
vn -0.0948 -0.0556 -0.9939
vn -0.0703 0.1265 -0.9895
vn -0.0591 0.1250 -0.9904
vn -0.1029 -0.0827 -0.9912
vn -0.0948 -0.0555 -0.9939
vn -0.0860 -0.0813 -0.9930
vn -0.0741 0.1048 -0.9917
vn -0.0741 -0.1047 -0.9917
vn -0.1030 0.0827 -0.9912
vn -0.0741 0.1047 -0.9917
vn -0.0860 0.0813 -0.9930
vn -0.0740 -0.1048 -0.9917
vn -0.0590 -0.1250 -0.9904
vn -0.1029 0.0827 -0.9912
vn -0.0948 0.0556 -0.9939
vn -0.1136 0.0565 -0.9919
vn -0.0415 -0.1414 -0.9891
vn -0.0861 -0.0813 -0.9930
vn -0.0734 -0.0547 -0.9958
vn -0.0667 -0.0802 -0.9945
vn -0.0575 0.1035 -0.9930
vn -0.0575 -0.1035 -0.9930
vn -0.0740 -0.1047 -0.9917
vn -0.0574 0.1035 -0.9930
vn -0.0667 0.0802 -0.9945
vn -0.0460 -0.1238 -0.9912
vn -0.0733 0.0547 -0.9958
vn -0.0591 -0.1250 -0.9904
vn -0.0324 -0.1404 -0.9896
vn -0.0414 -0.1414 -0.9891
vn -0.1001 0.0281 -0.9946
vn -0.0734 0.0547 -0.9958
vn -0.0774 0.0277 -0.9966
vn -0.0323 -0.1404 -0.9896
vn -0.0169 -0.1525 -0.9882
vn -0.0774 0.0278 -0.9966
vn -0.0788 -0.0000 -0.9969
vn -0.0214 0.1530 -0.9880
vn -0.0169 0.1524 -0.9882
vn -0.0215 -0.1530 -0.9880
vn -0.0169 -0.1524 -0.9882
vn -0.0774 -0.0278 -0.9966
vn -0.0323 0.1404 -0.9896
vn -0.0413 0.1414 -0.9891
vn -0.0734 -0.0548 -0.9958
vn -0.0590 0.1250 -0.9904
vn -0.0460 0.1238 -0.9912
vn -0.0116 -0.1521 -0.9883
vn -0.0168 -0.1525 -0.9882
vn -0.0789 -0.0000 -0.9969
vn -0.0528 0.0274 -0.9982
vn -0.0537 -0.0000 -0.9986
vn -0.0169 0.1525 -0.9882
vn -0.0116 0.1520 -0.9883
vn -0.0117 -0.1520 -0.9883
vn -0.0528 -0.0274 -0.9982
vn -0.0775 -0.0278 -0.9966
vn -0.0117 0.1521 -0.9883
vn -0.0221 0.1397 -0.9899
vn -0.0775 -0.0277 -0.9966
vn -0.0500 -0.0542 -0.9973
vn -0.0221 0.1397 -0.9900
vn -0.0314 0.1230 -0.9919
vn -0.0500 -0.0541 -0.9973
vn -0.0455 -0.0794 -0.9958
vn -0.0459 0.1238 -0.9912
vn -0.0393 0.1026 -0.9939
vn -0.0393 -0.1026 -0.9939
vn -0.0666 0.0802 -0.9945
vn -0.0455 0.0794 -0.9958
vn -0.0459 -0.1238 -0.9912
vn -0.0392 -0.1026 -0.9939
vn -0.0314 -0.1229 -0.9919
vn -0.0500 0.0541 -0.9973
vn -0.0734 0.0548 -0.9958
vn -0.0222 -0.1396 -0.9900
vn -0.0775 0.0277 -0.9966
vn -0.0314 0.1229 -0.9919
vn -0.0199 0.1020 -0.9946
vn -0.0454 -0.0794 -0.9958
vn -0.0199 -0.1021 -0.9946
vn -0.0199 0.1021 -0.9946
vn -0.0231 0.0789 -0.9966
vn -0.0199 -0.1020 -0.9946
vn -0.0159 -0.1224 -0.9924
vn -0.0455 0.0795 -0.9958
vn -0.0253 0.0538 -0.9982
vn -0.0500 0.0542 -0.9973
vn -0.0112 -0.1392 -0.9902
vn -0.0221 -0.1397 -0.9900
vn -0.0528 0.0275 -0.9982
vn -0.0254 0.0538 -0.9982
vn -0.0268 0.0272 -0.9993
vn -0.0113 -0.1393 -0.9902
vn -0.0058 -0.1518 -0.9884
vn -0.0267 0.0272 -0.9993
vn -0.0272 -0.0000 -0.9996
vn -0.0115 0.1521 -0.9883
vn -0.0058 0.1518 -0.9884
vn -0.0115 -0.1521 -0.9883
vn -0.0059 -0.1518 -0.9884
vn -0.0267 -0.0272 -0.9993
vn -0.0112 0.1393 -0.9902
vn -0.0254 -0.0538 -0.9982
vn -0.0315 0.1229 -0.9919
vn -0.0113 0.1392 -0.9902
vn -0.0159 0.1224 -0.9924
vn -0.0455 -0.0795 -0.9958
vn -0.0231 -0.0790 -0.9966
vn -0.0060 0.1518 -0.9884
vn -0.0025 0.1594 -0.9872
vn 0.0001 -0.1517 -0.9884
vn -0.0267 -0.0273 -0.9993
vn -0.0001 0.1392 -0.9903
vn -0.0113 0.1393 -0.9902
vn -0.0254 -0.0539 -0.9982
vn -0.0160 0.1224 -0.9924
vn -0.0000 0.1391 -0.9903
vn -0.0253 -0.0538 -0.9982
vn -0.0000 -0.0789 -0.9969
vn -0.0231 -0.0789 -0.9966
vn -0.0160 -0.1224 -0.9924
vn -0.0000 0.0789 -0.9969
vn -0.0113 -0.1392 -0.9902
vn -0.0268 0.0273 -0.9993
vn -0.0001 -0.1517 -0.9884
vn 0.0113 -0.1393 -0.9902
vn 0.0001 0.1517 -0.9884
vn 0.0199 -0.1020 -0.9946
vn 0.0222 -0.1397 -0.9899
vn 0.0528 -0.0275 -0.9982
vn 0.0222 0.1397 -0.9900
vn 0.0253 -0.0538 -0.9982
vn 0.0455 0.0795 -0.9958
vn 0.0459 0.1238 -0.9912
vn 0.0574 0.1035 -0.9930
vn 0.0314 -0.1230 -0.9919
vn 0.0734 0.0548 -0.9958
vn 0.0774 0.0278 -0.9966
vn 0.0215 0.1531 -0.9880
vn 0.1001 -0.0281 -0.9946
vn 0.0733 -0.0547 -0.9958
vn 0.0741 -0.1048 -0.9917
vn 0.0702 -0.1265 -0.9895
vn 0.0948 0.0556 -0.9939
vn 0.0415 0.1414 -0.9891
vn 0.1201 0.0287 -0.9923
vn 0.0284 0.1545 -0.9876
vn 0.1135 -0.0567 -0.9919
vn 0.1168 -0.0844 -0.9896
vn 0.0884 -0.1064 -0.9904
vn 0.1167 0.0844 -0.9896
vn 0.0702 -0.1266 -0.9895
vn 0.0854 -0.1303 -0.9878
vn 0.1366 0.0294 -0.9902
vn 0.1518 -0.0000 -0.9884
vn 0.0550 0.1440 -0.9880
vn 0.1291 -0.0579 -0.9899
vn 0.0854 0.1304 -0.9878
vn 0.1405 -0.0593 -0.9883
vn 0.0886 0.1325 -0.9872
vn 0.1405 0.0593 -0.9883
vn 0.0609 -0.1472 -0.9872
vn 0.1126 0.1126 -0.9872
vn 0.1127 -0.1126 -0.9872
vn 0.1334 0.0908 -0.9869
vn 0.0883 -0.1348 -0.9869
vn 0.1472 0.0609 -0.9872
vn 0.1613 -0.0000 -0.9869
vn 0.0311 0.1562 -0.9872
vn 0.1581 -0.0320 -0.9869
vn 0.1583 0.0132 -0.9873
vn 0.1538 -0.0331 -0.9875
vn 0.1488 -0.0627 -0.9869
vn 0.1130 -0.1152 -0.9869
vn 0.1291 0.0934 -0.9872
vn 0.0576 -0.1507 -0.9869
vn 0.1088 -0.1179 -0.9870
vn 0.1088 0.1179 -0.9871
vn 0.0450 0.1540 -0.9870
vn 0.1000 0.1204 -0.9877
vn 0.0357 -0.1553 -0.9872
vn 0.0225 0.1598 -0.9869
vn 0.1008 -0.0361 -0.9943
vn 0.0940 -0.0701 -0.9931
vn 0.0369 0.1447 -0.9888
vn 0.0582 -0.1017 -0.9931
vn 0.0693 0.1248 -0.9898
vn 0.1007 0.0360 -0.9943
vn 0.0122 0.1610 -0.9869
vn 0.0063 0.1613 -0.9869
vn 0.0365 -0.0373 -0.9986
vn 0.0127 0.1567 -0.9876
vn -0.0001 0.1458 -0.9893
vn 0.0248 0.1275 -0.9915
vn -0.0001 -0.1570 -0.9876
vn -0.0000 0.1569 -0.9876
vn -0.0126 -0.1568 -0.9875
vn -0.0249 0.1275 -0.9915
vn -0.0248 0.1561 -0.9874
vn -0.0340 -0.0722 -0.9968
vn -0.0357 0.1552 -0.9872
vn -0.0531 0.1433 -0.9883
vn -0.0484 -0.1264 -0.9908
vn -0.0694 -0.1247 -0.9898
vn -0.0939 0.0701 -0.9931
vn -0.1008 0.0360 -0.9943
vn -0.0224 0.1598 -0.9869
vn -0.1251 -0.0351 -0.9915
vn -0.0939 -0.0700 -0.9931
vn -0.0668 0.1415 -0.9877
vn -0.0451 0.1539 -0.9870
vn -0.0774 0.1395 -0.9872
vn -0.1192 0.0957 -0.9883
vn -0.0774 -0.1395 -0.9872
vn -0.1290 0.0933 -0.9872
vn -0.1569 0.0001 -0.9876
vn -0.0290 0.1582 -0.9870
vn -0.0577 0.1508 -0.9869
vn -0.0848 0.1372 -0.9869
vn -0.1614 0.0001 -0.9869
vn -0.1088 -0.1178 -0.9870
vn -0.1334 0.0909 -0.9869
vn -0.0577 -0.1507 -0.9869
vn -0.1538 0.0330 -0.9875
vn -0.1130 -0.1152 -0.9869
vn -0.1486 0.0628 -0.9869
vn -0.1581 0.0321 -0.9869
vn -0.1593 -0.0000 -0.9872
vn -0.0853 0.1304 -0.9878
vn -0.1126 -0.1127 -0.9872
vn -0.1438 0.0724 -0.9870
vn -0.1569 0.0248 -0.9873
vn -0.0310 0.1563 -0.9872
vn -0.0793 -0.1283 -0.9886
vn -0.1478 0.0420 -0.9881
vn -0.1391 -0.0001 -0.9903
vn -0.1366 -0.0295 -0.9902
vn -0.1030 -0.0827 -0.9912
vn -0.0999 -0.1082 -0.9891
vn -0.1222 -0.0001 -0.9925
vn -0.1201 -0.0288 -0.9924
vn -0.0413 -0.1414 -0.9891
vn -0.0215 0.1531 -0.9880
vn -0.0861 0.0813 -0.9930
vn -0.0590 -0.1251 -0.9904
vn -0.0740 0.1047 -0.9917
vn -0.0222 -0.1397 -0.9899
vn -0.0168 0.1525 -0.9882
vn -0.0575 0.1034 -0.9930
vn -0.0315 -0.1229 -0.9919
vn -0.0230 -0.0789 -0.9966
vn -0.0392 0.1026 -0.9939
vn -0.0231 0.0790 -0.9966
vn -0.0501 0.0542 -0.9973
vn -0.0221 -0.1397 -0.9899
vn -0.0059 0.1518 -0.9884
vn -0.0267 0.0273 -0.9993
vn -0.0123 0.1514 -0.9884
vn -0.0200 -0.1020 -0.9946
vn -0.0253 0.0539 -0.9982
vn -0.0001 -0.1392 -0.9903
vt 0.750000 0.125000
vt 0.718750 0.062500
vt 0.750000 0.062500
vt 0.750000 0.562500
vt 0.718750 0.500000
vt 0.750000 0.500000
vt 0.750000 0.937500
vt 0.734375 1.000000
vt 0.718750 0.937500
vt 0.734375 0.000000
vt 0.718750 0.437500
vt 0.750000 0.437500
vt 0.750000 0.875000
vt 0.718750 0.875000
vt 0.718750 0.375000
vt 0.750000 0.375000
vt 0.750000 0.812500
vt 0.718750 0.812500
vt 0.718750 0.312500
vt 0.750000 0.312500
vt 0.750000 0.750000
vt 0.718750 0.750000
vt 0.750000 0.250000
vt 0.718750 0.250000
vt 0.718750 0.687500
vt 0.750000 0.687500
vt 0.718750 0.187500
vt 0.750000 0.187500
vt 0.750000 0.625000
vt 0.718750 0.625000
vt 0.718750 0.125000
vt 0.718750 0.562500
vt 0.687500 0.187500
vt 0.687500 0.125000
vt 0.687500 0.625000
vt 0.687500 0.562500
vt 0.687500 0.062500
vt 0.687500 0.500000
vt 0.703125 1.000000
vt 0.687500 0.937500
vt 0.703125 0.000000
vt 0.687500 0.437500
vt 0.687500 0.875000
vt 0.687500 0.375000
vt 0.687500 0.812500
vt 0.687500 0.312500
vt 0.687500 0.750000
vt 0.687500 0.250000
vt 0.687500 0.687500
vt 0.656250 0.812500
vt 0.656250 0.375000
vt 0.656250 0.312500
vt 0.656250 0.750000
vt 0.656250 0.250000
vt 0.656250 0.687500
vt 0.656250 0.187500
vt 0.656250 0.625000
vt 0.656250 0.125000
vt 0.656250 0.562500
vt 0.656250 0.062500
vt 0.656250 0.500000
vt 0.671875 1.000000
vt 0.656250 0.937500
vt 0.671875 0.000000
vt 0.656250 0.437500
vt 0.656250 0.875000
vt 0.625000 0.625000
vt 0.625000 0.562500
vt 0.625000 0.125000
vt 0.625000 0.062500
vt 0.625000 0.500000
vt 0.640625 1.000000
vt 0.625000 0.937500
vt 0.640625 0.000000
vt 0.625000 0.437500
vt 0.625000 0.875000
vt 0.625000 0.375000
vt 0.625000 0.812500
vt 0.625000 0.312500
vt 0.625000 0.750000
vt 0.625000 0.250000
vt 0.625000 0.687500
vt 0.625000 0.187500
vt 0.593750 0.375000
vt 0.593750 0.312500
vt 0.593750 0.750000
vt 0.593750 0.250000
vt 0.593750 0.687500
vt 0.593750 0.187500
vt 0.593750 0.625000
vt 0.593750 0.125000
vt 0.593750 0.562500
vt 0.593750 0.062500
vt 0.593750 0.500000
vt 0.609375 1.000000
vt 0.593750 0.937500
vt 0.609375 0.000000
vt 0.593750 0.437500
vt 0.593750 0.875000
vt 0.593750 0.812500
vt 0.562500 0.125000
vt 0.562500 0.062500
vt 0.562500 0.562500
vt 0.562500 0.500000
vt 0.578125 1.000000
vt 0.562500 0.937500
vt 0.578125 0.000000
vt 0.562500 0.437500
vt 0.562500 0.875000
vt 0.562500 0.375000
vt 0.562500 0.812500
vt 0.562500 0.312500
vt 0.562500 0.750000
vt 0.562500 0.250000
vt 0.562500 0.687500
vt 0.562500 0.187500
vt 0.562500 0.625000
vt 0.531250 0.250000
vt 0.531250 0.750000
vt 0.531250 0.687500
vt 0.531250 0.187500
vt 0.531250 0.625000
vt 0.531250 0.125000
vt 0.531250 0.562500
vt 0.531250 0.062500
vt 0.531250 0.500000
vt 0.546875 1.000000
vt 0.531250 0.937500
vt 0.546875 0.000000
vt 0.531250 0.437500
vt 0.531250 0.875000
vt 0.531250 0.375000
vt 0.531250 0.812500
vt 0.531250 0.312500
vt 0.515625 1.000000
vt 0.500000 0.937500
vt 0.515625 0.000000
vt 0.500000 0.062500
vt 0.500000 0.437500
vt 0.500000 0.875000
vt 0.500000 0.375000
vt 0.500000 0.812500
vt 0.500000 0.312500
vt 0.500000 0.750000
vt 0.500000 0.250000
vt 0.500000 0.687500
vt 0.500000 0.187500
vt 0.500000 0.625000
vt 0.500000 0.125000
vt 0.500000 0.562500
vt 0.500000 0.500000
vt 0.468750 0.750000
vt 0.468750 0.687500
vt 0.468750 0.250000
vt 0.468750 0.187500
vt 0.468750 0.625000
vt 0.468750 0.125000
vt 0.468750 0.562500
vt 0.468750 0.062500
vt 0.468750 0.500000
vt 0.484375 1.000000
vt 0.468750 0.937500
vt 0.484375 0.000000
vt 0.468750 0.437500
vt 0.468750 0.875000
vt 0.468750 0.375000
vt 0.468750 0.812500
vt 0.468750 0.312500
vt 0.437500 0.437500
vt 0.437500 0.875000
vt 0.437500 0.375000
vt 0.437500 0.812500
vt 0.437500 0.312500
vt 0.437500 0.750000
vt 0.437500 0.250000
vt 0.437500 0.687500
vt 0.437500 0.187500
vt 0.437500 0.625000
vt 0.437500 0.125000
vt 0.437500 0.562500
vt 0.437500 0.062500
vt 0.437500 0.500000
vt 0.453125 1.000000
vt 0.437500 0.937500
vt 0.453125 0.000000
vt 0.406250 0.187500
vt 0.406250 0.250000
vt 0.406250 0.625000
vt 0.406250 0.125000
vt 0.406250 0.562500
vt 0.406250 0.062500
vt 0.406250 0.500000
vt 0.421875 1.000000
vt 0.406250 0.937500
vt 0.421875 0.000000
vt 0.406250 0.437500
vt 0.406250 0.875000
vt 0.406250 0.375000
vt 0.406250 0.812500
vt 0.406250 0.312500
vt 0.406250 0.750000
vt 0.406250 0.687500
vt 0.375000 0.875000
vt 0.375000 0.375000
vt 0.375000 0.812500
vt 0.375000 0.312500
vt 0.375000 0.750000
vt 0.375000 0.250000
vt 0.375000 0.687500
vt 0.375000 0.187500
vt 0.375000 0.625000
vt 0.375000 0.125000
vt 0.375000 0.562500
vt 0.375000 0.062500
vt 0.375000 0.500000
vt 0.390625 1.000000
vt 0.375000 0.937500
vt 0.390625 0.000000
vt 0.375000 0.437500
vt 0.343750 0.625000
vt 0.343750 0.125000
vt 0.343750 0.562500
vt 0.343750 0.062500
vt 0.343750 0.500000
vt 0.359375 1.000000
vt 0.343750 0.937500
vt 0.359375 0.000000
vt 0.343750 0.437500
vt 0.343750 0.875000
vt 0.343750 0.375000
vt 0.343750 0.812500
vt 0.343750 0.312500
vt 0.343750 0.750000
vt 0.343750 0.250000
vt 0.343750 0.687500
vt 0.343750 0.187500
vt 0.312500 0.375000
vt 0.312500 0.812500
vt 0.312500 0.312500
vt 0.312500 0.750000
vt 0.312500 0.250000
vt 0.312500 0.687500
vt 0.312500 0.187500
vt 0.312500 0.625000
vt 0.312500 0.125000
vt 0.312500 0.562500
vt 0.312500 0.062500
vt 0.312500 0.500000
vt 0.328125 1.000000
vt 0.312500 0.937500
vt 0.328125 0.000000
vt 0.312500 0.437500
vt 0.312500 0.875000
vt 0.281250 0.125000
vt 0.281250 0.187500
vt 0.281250 0.562500
vt 0.281250 0.625000
vt 0.281250 0.062500
vt 0.281250 0.500000
vt 0.296875 1.000000
vt 0.281250 0.937500
vt 0.296875 0.000000
vt 0.281250 0.437500
vt 0.281250 0.875000
vt 0.281250 0.375000
vt 0.281250 0.812500
vt 0.281250 0.312500
vt 0.281250 0.750000
vt 0.281250 0.250000
vt 0.281250 0.687500
vt 0.250000 0.312500
vt 0.250000 0.375000
vt 0.250000 0.750000
vt 0.250000 0.250000
vt 0.250000 0.687500
vt 0.250000 0.187500
vt 0.250000 0.625000
vt 0.250000 0.125000
vt 0.250000 0.562500
vt 0.250000 0.062500
vt 0.250000 0.500000
vt 0.265625 1.000000
vt 0.250000 0.937500
vt 0.265625 0.000000
vt 0.250000 0.437500
vt 0.250000 0.875000
vt 0.250000 0.812500
vt 0.218750 0.062500
vt 0.218750 0.500000
vt 0.218750 0.562500
vt 0.234375 1.000000
vt 0.218750 0.937500
vt 0.234375 0.000000
vt 0.218750 0.437500
vt 0.218750 0.875000
vt 0.218750 0.375000
vt 0.218750 0.812500
vt 0.218750 0.312500
vt 0.218750 0.750000
vt 0.218750 0.250000
vt 0.218750 0.687500
vt 0.218750 0.187500
vt 0.218750 0.625000
vt 0.218750 0.125000
vt 0.187500 0.750000
vt 0.187500 0.250000
vt 0.187500 0.687500
vt 0.187500 0.187500
vt 0.187500 0.625000
vt 0.187500 0.125000
vt 0.187500 0.562500
vt 0.187500 0.062500
vt 0.187500 0.500000
vt 0.203125 1.000000
vt 0.187500 0.937500
vt 0.203125 0.000000
vt 0.187500 0.437500
vt 0.187500 0.875000
vt 0.187500 0.375000
vt 0.187500 0.812500
vt 0.187500 0.312500
vt 0.156250 0.500000
vt 0.156250 0.562500
vt 0.171875 1.000000
vt 0.156250 0.937500
vt 0.171875 0.000000
vt 0.156250 0.062500
vt 0.156250 0.437500
vt 0.156250 0.875000
vt 0.156250 0.375000
vt 0.156250 0.812500
vt 0.156250 0.312500
vt 0.156250 0.750000
vt 0.156250 0.250000
vt 0.156250 0.687500
vt 0.156250 0.187500
vt 0.156250 0.625000
vt 0.156250 0.125000
vt 0.125000 0.250000
vt 0.125000 0.687500
vt 0.125000 0.750000
vt 0.125000 0.187500
vt 0.125000 0.625000
vt 0.125000 0.125000
vt 0.125000 0.562500
vt 0.125000 0.062500
vt 0.125000 0.500000
vt 0.140625 1.000000
vt 0.125000 0.937500
vt 0.140625 0.000000
vt 0.125000 0.437500
vt 0.125000 0.875000
vt 0.125000 0.375000
vt 0.125000 0.812500
vt 0.125000 0.312500
vt 0.109375 1.000000
vt 0.093750 0.937500
vt 0.109375 0.000000
vt 0.093750 0.062500
vt 0.093750 0.437500
vt 0.093750 0.875000
vt 0.093750 0.375000
vt 0.093750 0.812500
vt 0.093750 0.312500
vt 0.093750 0.750000
vt 0.093750 0.250000
vt 0.093750 0.687500
vt 0.093750 0.187500
vt 0.093750 0.625000
vt 0.093750 0.125000
vt 0.093750 0.562500
vt 0.093750 0.500000
vt 0.062500 0.687500
vt 0.062500 0.750000
vt 0.062500 0.187500
vt 0.062500 0.250000
vt 0.062500 0.625000
vt 0.062500 0.125000
vt 0.062500 0.562500
vt 0.062500 0.062500
vt 0.062500 0.500000
vt 0.078125 1.000000
vt 0.062500 0.937500
vt 0.078125 0.000000
vt 0.062500 0.437500
vt 0.062500 0.875000
vt 0.062500 0.375000
vt 0.062500 0.812500
vt 0.062500 0.312500
vt 0.031250 0.437500
vt 0.031250 0.875000
vt 0.031250 0.375000
vt 0.031250 0.812500
vt 0.031250 0.312500
vt 0.031250 0.750000
vt 0.031250 0.250000
vt 0.031250 0.687500
vt 0.031250 0.187500
vt 0.031250 0.625000
vt 0.031250 0.125000
vt 0.031250 0.562500
vt 0.031250 0.062500
vt 0.031250 0.500000
vt 0.046875 1.000000
vt 0.031250 0.937500
vt 0.046875 0.000000
vt 0.000000 0.250000
vt 0.000000 0.187500
vt 0.000000 0.625000
vt 0.000000 0.125000
vt 0.000000 0.562500
vt 0.000000 0.062500
vt 0.000000 0.500000
vt 0.015625 1.000000
vt 0.000000 0.937500
vt 0.015625 0.000000
vt 0.000000 0.437500
vt 0.000000 0.875000
vt 0.000000 0.375000
vt 0.000000 0.812500
vt 0.000000 0.312500
vt 0.000000 0.750000
vt 0.000000 0.687500
vt 1.000000 0.437500
vt 0.968750 0.375000
vt 1.000000 0.375000
vt 1.000000 0.812500
vt 0.968750 0.875000
vt 0.968750 0.812500
vt 1.000000 0.312500
vt 0.968750 0.312500
vt 0.968750 0.750000
vt 1.000000 0.750000
vt 0.968750 0.250000
vt 1.000000 0.250000
vt 1.000000 0.687500
vt 0.968750 0.687500
vt 1.000000 0.187500
vt 0.968750 0.187500
vt 0.968750 0.625000
vt 1.000000 0.625000
vt 0.968750 0.125000
vt 1.000000 0.125000
vt 1.000000 0.562500
vt 0.968750 0.562500
vt 0.968750 0.062500
vt 1.000000 0.062500
vt 1.000000 0.500000
vt 0.968750 0.500000
vt 1.000000 0.937500
vt 0.984375 1.000000
vt 0.968750 0.937500
vt 0.984375 0.000000
vt 0.968750 0.437500
vt 1.000000 0.875000
vt 0.937500 0.125000
vt 0.937500 0.625000
vt 0.937500 0.562500
vt 0.937500 0.062500
vt 0.937500 0.500000
vt 0.953125 1.000000
vt 0.937500 0.937500
vt 0.953125 0.000000
vt 0.937500 0.437500
vt 0.937500 0.875000
vt 0.937500 0.375000
vt 0.937500 0.812500
vt 0.937500 0.312500
vt 0.937500 0.750000
vt 0.937500 0.250000
vt 0.937500 0.687500
vt 0.937500 0.187500
vt 0.906250 0.875000
vt 0.906250 0.812500
vt 0.906250 0.375000
vt 0.906250 0.312500
vt 0.906250 0.750000
vt 0.906250 0.250000
vt 0.906250 0.687500
vt 0.906250 0.187500
vt 0.906250 0.625000
vt 0.906250 0.125000
vt 0.906250 0.562500
vt 0.906250 0.062500
vt 0.906250 0.500000
vt 0.921875 1.000000
vt 0.906250 0.937500
vt 0.921875 0.000000
vt 0.906250 0.437500
vt 0.875000 0.625000
vt 0.875000 0.562500
vt 0.875000 0.062500
vt 0.875000 0.500000
vt 0.890625 1.000000
vt 0.875000 0.937500
vt 0.890625 0.000000
vt 0.875000 0.437500
vt 0.875000 0.875000
vt 0.875000 0.375000
vt 0.875000 0.812500
vt 0.875000 0.312500
vt 0.875000 0.750000
vt 0.875000 0.250000
vt 0.875000 0.687500
vt 0.875000 0.187500
vt 0.875000 0.125000
vt 0.843750 0.375000
vt 0.843750 0.312500
vt 0.843750 0.750000
vt 0.843750 0.250000
vt 0.843750 0.687500
vt 0.843750 0.187500
vt 0.843750 0.625000
vt 0.843750 0.125000
vt 0.843750 0.562500
vt 0.843750 0.062500
vt 0.843750 0.500000
vt 0.859375 1.000000
vt 0.843750 0.937500
vt 0.859375 0.000000
vt 0.843750 0.437500
vt 0.843750 0.875000
vt 0.843750 0.812500
vt 0.812500 0.062500
vt 0.812500 0.562500
vt 0.812500 0.500000
vt 0.828125 1.000000
vt 0.812500 0.937500
vt 0.828125 0.000000
vt 0.812500 0.437500
vt 0.812500 0.875000
vt 0.812500 0.375000
vt 0.812500 0.812500
vt 0.812500 0.312500
vt 0.812500 0.750000
vt 0.812500 0.250000
vt 0.812500 0.687500
vt 0.812500 0.187500
vt 0.812500 0.625000
vt 0.812500 0.125000
vt 0.781250 0.750000
vt 0.781250 0.250000
vt 0.781250 0.687500
vt 0.781250 0.187500
vt 0.781250 0.625000
vt 0.781250 0.125000
vt 0.781250 0.562500
vt 0.781250 0.062500
vt 0.781250 0.500000
vt 0.796875 1.000000
vt 0.781250 0.937500
vt 0.796875 0.000000
vt 0.781250 0.437500
vt 0.781250 0.875000
vt 0.781250 0.375000
vt 0.781250 0.812500
vt 0.781250 0.312500
vt 0.765625 1.000000
vt 0.765625 0.000000
s 1
f 481/1/1 21/2/2 482/3/3
f 3/4/4 14/5/5 4/6/6
f 474/7/7 82/8/8 7/9/9
f 308/10/10 482/3/11 21/2/12
f 4/6/6 15/11/13 5/12/14
f 475/13/15 7/9/16 8/14/17
f 5/12/14 16/15/18 478/16/19
f 1/17/20 8/14/21 9/18/22
f 478/16/19 17/19/23 6/20/24
f 476/21/25 9/18/22 10/22/26
f 479/23/27 17/19/28 18/24/29
f 476/21/25 11/25/30 2/26/31
f 479/23/27 19/27/32 480/28/33
f 477/29/34 11/25/35 12/30/36
f 480/28/33 20/31/37 481/1/38
f 3/4/4 12/30/39 13/32/40
f 20/31/37 34/33/41 35/34/42
f 13/32/40 27/35/43 28/36/44
f 20/31/45 36/37/46 21/2/2
f 13/32/47 29/38/48 14/5/5
f 7/9/16 82/39/49 22/40/50
f 308/41/51 21/2/52 36/37/53
f 14/5/5 30/42/54 15/11/55
f 7/9/56 23/43/57 8/14/17
f 15/11/58 31/44/59 16/15/60
f 8/14/61 24/45/62 9/18/63
f 17/19/23 31/44/64 32/46/65
f 9/18/63 25/47/66 10/22/67
f 18/24/29 32/46/68 33/48/69
f 10/22/70 26/49/71 11/25/72
f 19/27/32 33/48/73 34/33/41
f 11/25/35 27/35/74 12/30/75
f 23/43/76 39/50/77 24/45/78
f 32/46/65 46/51/79 47/52/80
f 24/45/62 40/53/81 25/47/82
f 33/48/73 47/52/83 48/54/84
f 25/47/85 41/55/86 26/49/71
f 34/33/87 48/54/88 49/56/89
f 26/49/71 42/57/90 27/35/91
f 35/34/92 49/56/89 50/58/93
f 28/36/44 42/57/90 43/59/94
f 36/37/95 50/58/93 51/60/96
f 29/38/48 43/59/94 44/61/97
f 22/40/98 82/62/99 37/63/100
f 308/64/101 36/37/102 51/60/103
f 29/38/48 45/65/104 30/42/54
f 22/40/105 38/66/106 23/43/107
f 30/42/54 46/51/108 31/44/109
f 43/59/110 57/67/111 58/68/112
f 51/60/103 65/69/113 66/70/114
f 44/61/115 58/68/112 59/71/116
f 37/63/117 82/72/99 52/73/118
f 308/74/51 51/60/119 66/70/120
f 44/61/115 60/75/121 45/65/122
f 37/63/123 53/76/124 38/66/106
f 45/65/125 61/77/126 46/51/108
f 38/66/127 54/78/128 39/50/77
f 47/52/80 61/77/129 62/79/130
f 39/50/77 55/80/131 40/53/81
f 47/52/80 63/81/132 48/54/88
f 41/55/86 55/80/133 56/82/134
f 49/56/89 63/81/135 64/83/136
f 41/55/86 57/67/137 42/57/90
f 50/58/93 64/83/138 65/69/139
f 62/79/140 76/84/141 77/85/142
f 54/78/143 70/86/144 55/80/145
f 62/79/130 78/87/146 63/81/135
f 56/82/134 70/86/144 71/88/147
f 64/83/136 78/87/146 79/89/148
f 56/82/149 72/90/150 57/67/111
f 64/83/136 80/91/151 65/69/139
f 58/68/152 72/90/150 73/92/153
f 65/69/154 81/93/155 66/70/156
f 59/71/116 73/92/157 74/94/158
f 52/73/159 82/95/8 67/96/160
f 308/97/51 66/70/114 81/93/161
f 59/71/116 75/98/162 60/75/121
f 53/76/163 67/96/160 68/99/164
f 60/75/121 76/84/165 61/77/166
f 54/78/167 68/99/168 69/100/169
f 81/93/155 96/101/170 97/102/171
f 74/94/172 89/103/173 90/104/174
f 67/96/160 82/105/175 83/106/176
f 308/107/177 81/93/161 97/102/171
f 74/94/178 91/108/179 75/98/180
f 67/96/181 84/109/182 68/99/164
f 75/98/183 92/110/184 76/84/165
f 68/99/185 85/111/186 69/100/169
f 77/85/187 92/110/184 93/112/188
f 69/100/169 86/113/189 70/86/144
f 77/85/142 94/114/190 78/87/146
f 71/88/191 86/113/192 87/115/193
f 79/89/148 94/114/194 95/116/195
f 71/88/196 88/117/197 72/90/150
f 80/91/151 95/116/195 96/101/198
f 73/92/199 88/117/200 89/103/173
f 93/112/201 109/118/202 94/114/190
f 87/115/193 101/119/203 102/120/204
f 95/116/195 109/118/202 110/121/205
f 87/115/193 103/122/206 88/117/207
f 95/116/195 111/123/208 96/101/198
f 89/103/209 103/122/206 104/124/210
f 96/101/211 112/125/212 97/102/171
f 90/104/213 104/124/210 105/126/214
f 83/106/215 82/127/49 98/128/216
f 308/129/51 97/102/171 112/125/217
f 90/104/174 106/130/218 91/108/219
f 83/106/176 99/131/220 84/109/182
f 91/108/221 107/132/222 92/110/223
f 85/111/224 99/131/225 100/133/226
f 93/112/188 107/132/222 108/134/227
f 85/111/186 101/119/203 86/113/192
f 98/128/228 82/135/229 113/136/230
f 308/137/177 112/125/231 127/138/232
f 105/126/214 121/139/233 106/130/234
f 98/128/216 114/140/235 99/131/236
f 106/130/234 122/141/237 107/132/222
f 99/131/225 115/142/238 100/133/226
f 108/134/227 122/141/239 123/143/240
f 100/133/226 116/144/241 101/119/242
f 108/134/227 124/145/243 109/118/244
f 102/120/245 116/144/246 117/146/247
f 110/121/248 124/145/243 125/147/249
f 102/120/250 118/148/251 103/122/252
f 111/123/208 125/147/249 126/149/253
f 104/124/210 118/148/254 119/150/255
f 111/123/256 127/138/257 112/125/212
f 105/126/214 119/150/255 120/151/258
f 117/146/259 131/152/260 132/153/261
f 125/147/249 139/154/262 140/155/263
f 117/146/264 133/156/265 118/148/251
f 125/147/266 141/157/267 126/149/253
f 119/150/268 133/156/265 134/158/269
f 126/149/253 142/159/270 127/138/232
f 120/151/271 134/158/272 135/160/273
f 113/136/274 82/161/175 128/162/275
f 308/163/276 127/138/277 142/159/270
f 120/151/278 136/164/279 121/139/280
f 114/140/281 128/162/275 129/165/282
f 121/139/283 137/166/284 122/141/285
f 115/142/238 129/165/286 130/167/287
f 123/143/288 137/166/289 138/168/290
f 115/142/238 131/152/291 116/144/292
f 123/143/293 139/154/262 124/145/294
f 135/160/295 136/164/296 151/169/297
f 128/162/298 144/170/299 129/165/282
f 136/164/300 137/166/301 152/171/302
f 129/165/286 145/172/303 130/167/287
f 138/168/304 153/173/305 152/171/302
f 130/167/306 131/152/307 146/174/308
f 138/168/309 139/154/310 154/175/311
f 132/153/261 147/176/312 146/174/313
f 140/155/314 155/177/315 154/175/311
f 132/153/316 133/156/317 148/178/318
f 141/157/319 155/177/320 156/179/321
f 134/158/322 149/180/323 148/178/324
f 141/157/267 157/181/325 142/159/270
f 135/160/326 150/182/327 149/180/328
f 128/162/275 82/183/329 143/184/330
f 308/185/177 142/159/270 157/181/331
f 155/177/332 170/186/333 169/187/334
f 147/176/312 148/178/324 163/188/335
f 156/179/336 171/189/337 170/186/333
f 149/180/338 164/190/339 163/188/340
f 157/181/341 171/189/342 172/191/343
f 150/182/344 165/192/345 164/190/346
f 143/184/347 82/193/175 158/194/348
f 308/195/177 157/181/325 172/191/343
f 150/182/349 151/169/350 166/196/351
f 143/184/352 159/197/353 144/170/354
f 151/169/355 152/171/356 167/198/357
f 144/170/358 145/172/359 160/199/360
f 153/173/361 168/200/362 167/198/363
f 145/172/359 146/174/313 161/201/364
f 153/173/365 154/175/366 169/187/367
f 147/176/368 162/202/369 161/201/364
f 158/194/348 159/197/370 174/203/371
f 166/196/351 167/198/372 182/204/373
f 159/197/353 160/199/374 175/205/375
f 168/200/376 183/206/377 182/204/378
f 160/199/379 161/201/380 176/207/381
f 168/200/382 169/187/383 184/208/384
f 162/202/385 177/209/386 176/207/381
f 170/186/387 185/210/388 184/208/389
f 162/202/390 163/188/391 178/211/392
f 171/189/393 186/212/394 185/210/395
f 164/190/346 179/213/396 178/211/392
f 172/191/343 187/214/397 186/212/398
f 165/192/399 180/215/400 179/213/401
f 158/194/402 82/216/175 173/217/403
f 308/218/404 172/191/343 187/214/405
f 165/192/399 166/196/406 181/219/407
f 177/209/408 178/211/409 193/220/410
f 185/210/411 186/212/412 201/221/413
f 179/213/414 194/222/415 193/220/416
f 186/212/417 187/214/418 202/223/419
f 180/215/400 195/224/420 194/222/421
f 173/217/422 82/225/175 188/226/423
f 308/227/404 187/214/397 202/223/424
f 180/215/400 181/219/425 196/228/426
f 174/203/427 189/229/428 188/226/429
f 181/219/425 182/204/378 197/230/430
f 175/205/375 190/231/431 189/229/428
f 183/206/432 198/232/433 197/230/434
f 175/205/375 176/207/381 191/233/435
f 183/206/436 184/208/437 199/234/438
f 177/209/439 192/235/440 191/233/441
f 185/210/442 200/236/443 199/234/444
f 196/228/445 197/230/446 212/237/447
f 189/229/448 190/231/431 205/238/449
f 198/232/450 213/239/451 212/237/447
f 190/231/431 191/233/441 206/240/452
f 198/232/433 199/234/438 214/241/453
f 192/235/454 207/242/455 206/240/456
f 200/236/457 215/243/458 214/241/453
f 192/235/454 193/220/459 208/244/460
f 201/221/461 216/245/462 215/243/458
f 194/222/415 209/246/463 208/244/460
f 202/223/419 217/247/464 216/245/465
f 195/224/420 210/248/466 209/246/467
f 188/226/423 82/249/329 203/250/468
f 308/251/404 202/223/469 217/247/470
f 195/224/420 196/228/471 211/252/472
f 188/226/473 189/229/428 204/253/474
f 216/245/475 231/254/476 230/255/477
f 209/246/478 224/256/479 223/257/480
f 217/247/481 232/258/482 231/254/483
f 210/248/466 225/259/484 224/256/479
f 203/250/485 82/260/175 218/261/486
f 308/262/276 217/247/481 232/258/487
f 210/248/466 211/252/488 226/263/489
f 203/250/485 204/253/490 219/264/491
f 211/252/488 212/237/492 227/265/493
f 204/253/494 205/238/495 220/266/496
f 213/239/451 228/267/497 227/265/498
f 205/238/449 206/240/499 221/268/500
f 213/239/451 214/241/453 229/269/501
f 207/242/455 222/270/502 221/268/503
f 215/243/458 230/255/504 229/269/505
f 207/242/455 208/244/506 223/257/507
f 228/267/497 243/271/508 242/272/509
f 220/266/510 221/268/500 236/273/511
f 228/267/512 229/269/513 244/274/514
f 222/270/502 237/275/515 236/273/511
f 230/255/504 245/276/516 244/274/514
f 222/270/517 223/257/480 238/277/518
f 231/254/476 246/278/519 245/276/520
f 224/256/479 239/279/521 238/277/518
f 231/254/483 232/258/482 247/280/522
f 225/259/484 240/281/6 239/279/521
f 218/261/523 82/282/175 233/283/524
f 308/284/177 232/258/487 247/280/525
f 225/259/484 226/263/489 241/285/526
f 219/264/527 234/286/528 233/283/529
f 226/263/489 227/265/493 242/272/509
f 219/264/530 220/266/531 235/287/532
f 246/278/533 247/280/522 262/288/534
f 240/281/6 255/289/535 254/290/536
f 233/283/537 82/291/175 248/292/538
f 308/293/177 247/280/539 262/288/540
f 240/281/6 241/285/526 256/294/541
f 234/286/542 249/295/543 248/292/544
f 241/285/526 242/272/509 257/296/545
f 235/287/546 250/297/547 249/295/548
f 243/271/508 258/298/549 257/296/545
f 235/287/532 236/273/511 251/299/550
f 243/271/508 244/274/514 259/300/551
f 237/275/515 252/301/552 251/299/553
f 245/276/554 260/302/555 259/300/556
f 237/275/515 238/277/518 253/303/557
f 245/276/516 246/278/519 261/304/558
f 239/279/521 254/290/536 253/303/557
f 250/297/559 251/299/550 266/305/560
f 258/298/549 259/300/561 274/306/562
f 252/301/563 267/307/564 266/305/565
f 260/302/566 275/308/567 274/306/568
f 252/301/563 253/303/569 268/309/570
f 261/304/571 276/310/572 275/308/567
f 254/290/573 269/311/574 268/309/570
f 261/304/575 262/288/534 277/312/576
f 255/289/577 270/313/578 269/311/574
f 248/292/538 82/314/229 263/315/579
f 308/316/177 262/288/580 277/312/576
f 255/289/577 256/294/541 271/317/581
f 249/295/543 264/318/582 263/315/579
f 256/294/541 257/296/545 272/319/583
f 249/295/548 250/297/547 265/320/584
f 258/298/585 273/321/586 272/319/587
f 270/313/578 285/322/588 284/323/589
f 263/315/590 82/324/329 278/325/591
f 308/326/404 277/312/592 292/327/593
f 270/313/578 271/317/594 286/328/595
f 263/315/596 264/318/582 279/329/597
f 271/317/598 272/319/583 287/330/599
f 264/318/600 265/320/584 280/331/601
f 273/321/586 288/332/602 287/330/603
f 265/320/584 266/305/565 281/333/604
f 273/321/586 274/306/605 289/334/606
f 267/307/607 282/335/608 281/333/609
f 275/308/610 290/336/611 289/334/606
f 267/307/564 268/309/612 283/337/613
f 275/308/567 276/310/614 291/338/615
f 269/311/616 284/323/617 283/337/618
f 276/310/619 277/312/620 292/327/621
f 288/332/622 289/334/606 304/339/623
f 282/335/624 297/340/625 296/341/626
f 290/336/627 305/342/628 304/339/623
f 282/335/624 283/337/629 298/343/630
f 290/336/627 291/338/631 306/344/632
f 284/323/633 299/345/634 298/343/635
f 292/327/636 307/346/637 306/344/638
f 285/322/588 300/347/639 299/345/634
f 278/325/640 82/348/329 293/349/641
f 308/350/177 292/327/593 307/346/642
f 285/322/588 286/328/643 301/351/644
f 278/325/645 279/329/646 294/352/647
f 286/328/648 287/330/599 302/353/649
f 280/331/650 295/354/651 294/352/652
f 288/332/602 303/355/653 302/353/654
f 280/331/601 281/333/604 296/341/655
f 293/349/656 82/356/329 309/357/657
f 308/358/177 307/346/658 323/359/659
f 300/347/639 301/351/660 317/360/661
f 294/352/662 310/361/663 309/357/657
f 301/351/644 302/353/649 318/362/664
f 295/354/665 311/363/666 310/361/667
f 303/355/668 319/364/669 318/362/670
f 295/354/671 296/341/672 312/365/673
f 303/355/674 304/339/623 320/366/675
f 297/340/676 313/367/677 312/365/678
f 305/342/628 321/368/679 320/366/680
f 297/340/681 298/343/635 314/369/682
f 305/342/628 306/344/683 322/370/684
f 299/345/685 315/371/686 314/369/682
f 306/344/632 307/346/658 323/359/687
f 300/347/639 316/372/688 315/371/689
f 313/367/690 328/373/691 327/374/692
f 321/368/679 336/375/693 335/376/694
f 313/367/695 314/369/696 329/377/697
f 321/368/698 322/370/699 337/378/700
f 315/371/701 330/379/702 329/377/703
f 323/359/687 337/378/704 338/380/705
f 316/372/706 331/381/707 330/379/708
f 309/357/657 82/382/175 324/383/709
f 308/384/177 323/359/687 338/380/710
f 316/372/706 317/360/711 332/385/712
f 309/357/657 325/386/713 310/361/667
f 317/360/661 318/362/714 333/387/715
f 310/361/663 311/363/666 326/388/716
f 319/364/717 334/389/718 333/387/719
f 311/363/666 312/365/720 327/374/721
f 319/364/722 320/366/723 335/376/724
f 331/381/725 332/385/726 347/390/727
f 324/383/709 340/391/728 325/386/729
f 332/385/730 333/387/719 348/392/731
f 326/388/732 340/391/728 341/393/733
f 334/389/734 349/394/735 348/392/731
f 326/388/716 327/374/736 342/395/737
f 334/389/718 335/376/694 350/396/738
f 328/373/739 343/397/740 342/395/741
f 336/375/742 351/398/743 350/396/738
f 328/373/739 329/377/697 344/399/744
f 336/375/742 352/400/745 337/378/704
f 330/379/746 345/401/747 344/399/748
f 338/380/710 352/400/749 353/402/750
f 331/381/751 346/403/752 345/401/753
f 324/383/754 82/404/175 339/405/755
f 308/406/404 338/380/756 353/402/757
f 351/398/758 365/407/759 366/408/760
f 343/397/761 359/409/762 344/399/763
f 351/398/758 367/410/764 352/400/745
f 345/401/765 359/409/766 360/411/767
f 353/402/757 367/410/768 368/412/769
f 346/403/770 360/411/767 361/413/771
f 339/405/755 82/414/229 354/415/772
f 308/416/177 353/402/757 368/412/769
f 346/403/773 362/417/774 347/390/775
f 339/405/755 355/418/776 340/391/777
f 347/390/778 363/419/779 348/392/780
f 341/393/781 355/418/776 356/420/782
f 349/394/783 363/419/784 364/421/785
f 341/393/786 357/422/787 342/395/788
f 349/394/789 365/407/790 350/396/791
f 343/397/761 357/422/792 358/423/793
f 362/424/794 378/425/795 363/426/796
f 356/427/797 370/428/798 371/429/799
f 364/430/800 378/425/801 379/431/802
f 356/427/797 372/432/803 357/433/804
f 364/430/805 380/434/806 365/435/807
f 358/436/808 372/432/803 373/437/809
f 366/438/810 380/434/806 381/439/811
f 358/436/812 374/440/813 359/441/814
f 366/438/760 382/442/815 367/443/764
f 360/444/816 374/440/817 375/445/818
f 367/443/764 383/446/819 368/447/769
f 361/448/820 375/445/818 376/449/821
f 354/450/822 82/451/175 369/452/823
f 308/453/276 368/447/824 383/446/825
f 361/448/820 377/454/826 362/424/794
f 355/455/827 369/452/828 370/428/829
f 381/439/811 397/456/830 382/442/831
f 375/445/818 389/457/832 390/458/833
f 382/442/834 398/459/835 383/446/819
f 376/449/821 390/458/836 391/460/837
f 369/452/838 82/461/8 384/462/839
f 308/463/840 383/446/819 398/459/841
f 376/449/821 392/464/842 377/454/826
f 370/428/798 384/462/839 385/465/843
f 377/454/826 393/466/844 378/425/845
f 371/429/799 385/465/846 386/467/847
f 379/431/848 393/466/849 394/468/850
f 371/429/851 387/469/852 372/432/853
f 379/431/854 395/470/855 380/434/856
f 373/437/809 387/469/852 388/471/857
f 381/439/858 395/470/855 396/472/859
f 373/437/809 389/457/860 374/440/817
f 386/467/847 400/473/861 401/474/862
f 394/468/863 408/475/864 409/476/865
f 386/467/847 402/477/866 387/469/867
f 394/468/850 410/478/868 395/470/855
f 388/471/869 402/477/870 403/479/871
f 396/472/859 410/478/868 411/480/872
f 388/471/873 404/481/874 389/457/875
f 396/472/859 412/482/876 397/456/877
f 390/458/878 404/481/879 405/483/880
f 398/459/881 412/482/882 413/484/883
f 391/460/837 405/483/884 406/485/885
f 384/462/839 82/486/175 399/487/886
f 308/488/177 398/459/835 413/484/887
f 391/460/837 407/489/888 392/464/889
f 384/462/839 400/473/861 385/465/890
f 392/464/889 408/475/864 393/466/891
f 405/483/892 419/490/893 420/491/894
f 412/482/882 428/492/895 413/484/887
f 406/485/896 420/491/894 421/493/897
f 399/487/886 82/494/8 414/495/898
f 308/496/51 413/484/887 428/492/899
f 406/485/896 422/497/900 407/489/901
f 399/487/902 415/498/903 400/473/861
f 407/489/901 423/499/904 408/475/864
f 401/474/905 415/498/903 416/500/906
f 409/476/907 423/499/908 424/501/909
f 401/474/905 417/502/910 402/477/870
f 409/476/907 425/503/911 410/478/868
f 403/479/912 417/502/913 418/504/914
f 411/480/872 425/503/915 426/505/916
f 403/479/917 419/490/918 404/481/919
f 411/480/872 427/506/920 412/482/876
f 424/501/921 438/507/922 439/508/923
f 416/500/906 432/509/924 417/502/913
f 424/501/921 440/510/925 425/503/926
f 418/504/914 432/509/927 433/511/928
f 426/505/916 440/510/925 441/512/929
f 418/504/914 434/513/930 419/490/893
f 426/505/931 442/514/932 427/506/933
f 420/491/934 434/513/935 435/515/936
f 428/492/895 442/514/937 443/516/938
f 421/493/897 435/515/939 436/517/940
f 414/495/941 82/518/8 429/519/942
f 308/520/101 428/492/943 443/516/944
f 421/493/897 437/521/945 422/497/900
f 414/495/898 430/522/946 415/498/947
f 422/497/900 438/507/948 423/499/908
f 416/500/949 430/522/946 431/523/950
f 442/514/937 458/524/951 443/516/952
f 436/517/953 450/525/954 451/526/955
f 429/519/956 82/527/99 444/528/957
f 308/529/101 443/516/952 458/524/958
f 436/517/953 452/530/959 437/521/960
f 430/522/946 444/528/961 445/531/962
f 437/521/963 453/532/964 438/507/922
f 431/523/950 445/531/965 446/533/966
f 439/508/923 453/532/967 454/534/968
f 431/523/969 447/535/970 432/509/927
f 439/508/923 455/536/971 440/510/925
f 433/511/972 447/535/970 448/537/973
f 441/512/974 455/536/975 456/538/976
f 433/511/928 449/539/977 434/513/978
f 441/512/929 457/540/979 442/514/937
f 435/515/980 449/539/977 450/525/954
f 446/533/981 462/541/982 447/535/970
f 454/534/983 470/542/984 455/536/971
f 448/537/973 462/541/985 463/543/986
f 456/538/976 470/542/987 471/544/988
f 448/537/989 464/545/990 449/539/991
f 456/538/976 472/546/992 457/540/993
f 450/525/994 464/545/995 465/547/996
f 458/524/951 472/546/997 473/548/998
f 451/526/955 465/547/999 466/549/1000
f 444/528/1001 82/550/8 459/551/1002
f 308/552/840 458/524/1003 473/548/1004
f 451/526/955 467/553/1005 452/530/959
f 444/528/1001 460/554/1006 445/531/962
f 452/530/959 468/555/1007 453/532/964
f 446/533/1008 460/554/1009 461/556/1010
f 454/534/1011 468/555/1007 469/557/1012
f 466/549/1000 3/4/4 4/6/6
f 459/551/1013 82/558/1014 474/7/7
f 308/559/51 473/548/1004 482/3/1015
f 466/549/1000 5/12/14 467/553/1016
f 459/551/1013 475/13/1017 460/554/1018
f 467/553/1016 478/16/19 468/555/1019
f 461/556/1020 475/13/1021 1/17/20
f 468/555/1022 6/20/1023 469/557/1012
f 462/541/982 1/17/20 476/21/25
f 469/557/1024 479/23/27 470/542/984
f 463/543/986 476/21/25 2/26/31
f 471/544/1025 479/23/27 480/28/33
f 464/545/995 2/26/1026 477/29/34
f 471/544/1025 481/1/38 472/546/1027
f 465/547/1028 477/29/34 3/4/4
f 472/546/997 482/3/1029 473/548/1004
f 481/1/1 20/31/1030 21/2/2
f 3/4/4 13/32/40 14/5/5
f 4/6/6 14/5/5 15/11/13
f 475/13/15 474/7/1031 7/9/16
f 5/12/14 15/11/13 16/15/18
f 1/17/20 475/13/1021 8/14/21
f 478/16/19 16/15/60 17/19/23
f 476/21/25 1/17/20 9/18/22
f 479/23/27 6/20/24 17/19/28
f 476/21/25 10/22/70 11/25/30
f 479/23/27 18/24/1032 19/27/32
f 477/29/34 2/26/31 11/25/35
f 480/28/33 19/27/32 20/31/37
f 3/4/4 477/29/34 12/30/39
f 20/31/37 19/27/32 34/33/41
f 13/32/40 12/30/75 27/35/43
f 20/31/45 35/34/1033 36/37/46
f 13/32/47 28/36/44 29/38/48
f 14/5/5 29/38/48 30/42/54
f 7/9/56 22/40/105 23/43/57
f 15/11/58 30/42/1034 31/44/59
f 8/14/61 23/43/1035 24/45/62
f 17/19/23 16/15/1036 31/44/64
f 9/18/63 24/45/62 25/47/66
f 18/24/29 17/19/28 32/46/68
f 10/22/70 25/47/85 26/49/71
f 19/27/32 18/24/1032 33/48/73
f 11/25/35 26/49/1037 27/35/74
f 23/43/76 38/66/106 39/50/77
f 32/46/65 31/44/109 46/51/79
f 24/45/62 39/50/1038 40/53/81
f 33/48/73 32/46/68 47/52/83
f 25/47/85 40/53/1039 41/55/86
f 34/33/87 33/48/73 48/54/88
f 26/49/71 41/55/86 42/57/90
f 35/34/92 34/33/1040 49/56/89
f 28/36/44 27/35/43 42/57/90
f 36/37/95 35/34/42 50/58/93
f 29/38/48 28/36/44 43/59/94
f 29/38/48 44/61/97 45/65/104
f 22/40/105 37/63/100 38/66/106
f 30/42/54 45/65/104 46/51/108
f 43/59/110 42/57/1041 57/67/111
f 51/60/103 50/58/93 65/69/113
f 44/61/115 43/59/1042 58/68/112
f 44/61/115 59/71/116 60/75/121
f 37/63/123 52/73/1043 53/76/124
f 45/65/125 60/75/1044 61/77/126
f 38/66/127 53/76/124 54/78/128
f 47/52/80 46/51/1045 61/77/129
f 39/50/77 54/78/143 55/80/131
f 47/52/80 62/79/130 63/81/132
f 41/55/86 40/53/81 55/80/133
f 49/56/89 48/54/84 63/81/135
f 41/55/86 56/82/134 57/67/137
f 50/58/93 49/56/89 64/83/138
f 62/79/140 61/77/126 76/84/141
f 54/78/143 69/100/169 70/86/144
f 62/79/130 77/85/187 78/87/146
f 56/82/134 55/80/131 70/86/144
f 64/83/136 63/81/1046 78/87/146
f 56/82/149 71/88/147 72/90/150
f 64/83/136 79/89/1047 80/91/151
f 58/68/152 57/67/1048 72/90/150
f 65/69/154 80/91/151 81/93/155
f 59/71/116 58/68/112 73/92/157
f 59/71/116 74/94/158 75/98/162
f 53/76/163 52/73/1043 67/96/160
f 60/75/121 75/98/162 76/84/165
f 54/78/167 53/76/1049 68/99/168
f 81/93/155 80/91/151 96/101/170
f 74/94/172 73/92/1050 89/103/173
f 74/94/178 90/104/174 91/108/179
f 67/96/181 83/106/1051 84/109/182
f 75/98/183 91/108/179 92/110/184
f 68/99/185 84/109/182 85/111/186
f 77/85/187 76/84/1052 92/110/184
f 69/100/169 85/111/186 86/113/189
f 77/85/142 93/112/1053 94/114/190
f 71/88/191 70/86/144 86/113/192
f 79/89/148 78/87/1054 94/114/194
f 71/88/196 87/115/1055 88/117/197
f 80/91/151 79/89/1056 95/116/195
f 73/92/199 72/90/150 88/117/200
f 93/112/201 108/134/227 109/118/202
f 87/115/193 86/113/192 101/119/203
f 95/116/195 94/114/190 109/118/202
f 87/115/193 102/120/245 103/122/206
f 95/116/195 110/121/1057 111/123/208
f 89/103/209 88/117/200 103/122/206
f 96/101/211 111/123/208 112/125/212
f 90/104/213 89/103/1058 104/124/210
f 90/104/174 105/126/1059 106/130/218
f 83/106/176 98/128/216 99/131/220
f 91/108/221 106/130/234 107/132/222
f 85/111/224 84/109/1060 99/131/225
f 93/112/188 92/110/1061 107/132/222
f 85/111/186 100/133/1062 101/119/203
f 105/126/214 120/151/258 121/139/233
f 98/128/216 113/136/274 114/140/235
f 106/130/234 121/139/280 122/141/237
f 99/131/225 114/140/235 115/142/238
f 108/134/227 107/132/1063 122/141/239
f 100/133/226 115/142/1064 116/144/241
f 108/134/227 123/143/288 124/145/243
f 102/120/245 101/119/242 116/144/246
f 110/121/248 109/118/244 124/145/243
f 102/120/250 117/146/259 118/148/251
f 111/123/208 110/121/1057 125/147/249
f 104/124/210 103/122/1065 118/148/254
f 111/123/256 126/149/1066 127/138/257
f 105/126/214 104/124/210 119/150/255
f 117/146/259 116/144/1067 131/152/260
f 125/147/249 124/145/1068 139/154/262
f 117/146/264 132/153/1069 133/156/265
f 125/147/266 140/155/1070 141/157/267
f 119/150/268 118/148/1071 133/156/265
f 126/149/253 141/157/267 142/159/270
f 120/151/271 119/150/255 134/158/272
f 120/151/278 135/160/1072 136/164/279
f 114/140/281 113/136/1073 128/162/275
f 121/139/283 136/164/1074 137/166/284
f 115/142/238 114/140/235 129/165/286
f 123/143/288 122/141/285 137/166/289
f 115/142/238 130/167/287 131/152/291
f 123/143/293 138/168/290 139/154/262
f 135/160/295 151/169/297 150/182/1075
f 128/162/298 143/184/347 144/170/299
f 136/164/300 152/171/302 151/169/1076
f 129/165/286 144/170/299 145/172/303
f 138/168/304 152/171/302 137/166/1077
f 130/167/306 146/174/308 145/172/303
f 138/168/309 154/175/311 153/173/305
f 132/153/261 146/174/313 131/152/307
f 140/155/314 154/175/311 139/154/1078
f 132/153/316 148/178/318 147/176/1079
f 141/157/319 140/155/314 155/177/320
f 134/158/322 148/178/324 133/156/317
f 141/157/267 156/179/1080 157/181/325
f 135/160/326 149/180/328 134/158/322
f 155/177/332 169/187/334 154/175/1081
f 147/176/312 163/188/335 162/202/390
f 156/179/336 170/186/333 155/177/315
f 149/180/338 163/188/340 148/178/318
f 157/181/341 156/179/321 171/189/342
f 150/182/344 164/190/346 149/180/338
f 150/182/349 166/196/351 165/192/345
f 143/184/352 158/194/348 159/197/353
f 151/169/355 167/198/357 166/196/351
f 144/170/358 160/199/360 159/197/370
f 153/173/361 167/198/363 152/171/302
f 145/172/359 161/201/364 160/199/379
f 153/173/365 169/187/367 168/200/376
f 147/176/368 161/201/364 146/174/1082
f 158/194/348 174/203/371 173/217/403
f 166/196/351 182/204/373 181/219/407
f 159/197/353 175/205/375 174/203/1083
f 168/200/376 182/204/378 167/198/357
f 160/199/379 176/207/381 175/205/375
f 168/200/382 184/208/384 183/206/432
f 162/202/385 176/207/381 161/201/1084
f 170/186/387 184/208/389 169/187/367
f 162/202/390 178/211/392 177/209/439
f 171/189/393 185/210/395 170/186/333
f 164/190/346 178/211/392 163/188/335
f 172/191/343 186/212/398 171/189/337
f 165/192/399 179/213/401 164/190/339
f 165/192/399 181/219/407 180/215/400
f 177/209/408 193/220/410 192/235/454
f 185/210/411 201/221/413 200/236/443
f 179/213/414 193/220/416 178/211/392
f 186/212/417 202/223/419 201/221/1085
f 180/215/400 194/222/421 179/213/396
f 180/215/400 196/228/426 195/224/420
f 174/203/427 188/226/429 173/217/1086
f 181/219/425 197/230/430 196/228/1087
f 175/205/375 189/229/428 174/203/371
f 183/206/432 197/230/434 182/204/373
f 175/205/375 191/233/435 190/231/431
f 183/206/436 199/234/438 198/232/433
f 177/209/439 191/233/441 176/207/381
f 185/210/442 199/234/444 184/208/384
f 196/228/445 212/237/447 211/252/472
f 189/229/448 205/238/449 204/253/494
f 198/232/450 212/237/447 197/230/1088
f 190/231/431 206/240/452 205/238/1089
f 198/232/433 214/241/453 213/239/1090
f 192/235/454 206/240/456 191/233/1091
f 200/236/457 214/241/453 199/234/444
f 192/235/454 208/244/460 207/242/455
f 201/221/461 215/243/458 200/236/443
f 194/222/415 208/244/460 193/220/416
f 202/223/419 216/245/465 201/221/413
f 195/224/420 209/246/467 194/222/1092
f 195/224/420 211/252/472 210/248/466
f 188/226/473 204/253/474 203/250/1093
f 216/245/475 230/255/477 215/243/458
f 209/246/478 223/257/480 208/244/460
f 217/247/481 231/254/483 216/245/465
f 210/248/466 224/256/479 209/246/478
f 210/248/466 226/263/489 225/259/484
f 203/250/485 219/264/491 218/261/1094
f 211/252/488 227/265/493 226/263/1095
f 204/253/494 220/266/496 219/264/1096
f 213/239/451 227/265/498 212/237/492
f 205/238/449 221/268/500 220/266/531
f 213/239/451 229/269/501 228/267/497
f 207/242/455 221/268/503 206/240/456
f 215/243/458 229/269/505 214/241/453
f 207/242/455 223/257/507 222/270/502
f 228/267/497 242/272/509 227/265/493
f 220/266/510 236/273/511 235/287/1097
f 228/267/512 244/274/514 243/271/508
f 222/270/502 236/273/511 221/268/1098
f 230/255/504 244/274/514 229/269/505
f 222/270/517 238/277/518 237/275/515
f 231/254/476 245/276/520 230/255/477
f 224/256/479 238/277/518 223/257/480
f 231/254/483 247/280/522 246/278/1099
f 225/259/484 239/279/521 224/256/479
f 225/259/484 241/285/526 240/281/6
f 219/264/527 233/283/529 218/261/1094
f 226/263/489 242/272/509 241/285/526
f 219/264/530 235/287/532 234/286/1100
f 246/278/533 262/288/534 261/304/1101
f 240/281/6 254/290/536 239/279/521
f 240/281/6 256/294/541 255/289/577
f 234/286/542 248/292/544 233/283/524
f 241/285/526 257/296/545 256/294/541
f 235/287/546 249/295/548 234/286/1100
f 243/271/508 257/296/545 242/272/509
f 235/287/532 251/299/550 250/297/559
f 243/271/508 259/300/551 258/298/585
f 237/275/515 251/299/553 236/273/511
f 245/276/554 259/300/556 244/274/514
f 237/275/515 253/303/557 252/301/563
f 245/276/516 261/304/558 260/302/566
f 239/279/521 253/303/557 238/277/518
f 250/297/559 266/305/560 265/320/584
f 258/298/549 274/306/562 273/321/586
f 252/301/563 266/305/565 251/299/1102
f 260/302/566 274/306/568 259/300/556
f 252/301/563 268/309/570 267/307/564
f 261/304/571 275/308/567 260/302/555
f 254/290/573 268/309/570 253/303/557
f 261/304/575 277/312/576 276/310/572
f 255/289/577 269/311/574 254/290/536
f 255/289/577 271/317/581 270/313/578
f 249/295/543 263/315/579 248/292/544
f 256/294/541 272/319/583 271/317/581
f 249/295/548 265/320/584 264/318/1103
f 258/298/585 272/319/587 257/296/1104
f 270/313/578 284/323/589 269/311/616
f 270/313/578 286/328/595 285/322/588
f 263/315/596 279/329/597 278/325/645
f 271/317/598 287/330/599 286/328/648
f 264/318/600 280/331/601 279/329/1105
f 273/321/586 287/330/603 272/319/583
f 265/320/584 281/333/604 280/331/1106
f 273/321/586 289/334/606 288/332/602
f 267/307/607 281/333/609 266/305/565
f 275/308/610 289/334/606 274/306/1107
f 267/307/564 283/337/613 282/335/608
f 275/308/567 291/338/615 290/336/627
f 269/311/616 283/337/618 268/309/612
f 276/310/619 292/327/621 291/338/631
f 288/332/622 304/339/623 303/355/668
f 282/335/624 296/341/626 281/333/609
f 290/336/627 304/339/623 289/334/1108
f 282/335/624 298/343/630 297/340/625
f 290/336/627 306/344/632 305/342/628
f 284/323/633 298/343/635 283/337/1109
f 292/327/636 306/344/638 291/338/631
f 285/322/588 299/345/634 284/323/1110
f 285/322/588 301/351/644 300/347/639
f 278/325/645 294/352/647 293/349/1111
f 286/328/648 302/353/649 301/351/1112
f 280/331/650 294/352/652 279/329/597
f 288/332/602 302/353/654 287/330/1113
f 280/331/601 296/341/655 295/354/1114
f 300/347/639 317/360/661 316/372/688
f 294/352/662 309/357/657 293/349/641
f 301/351/644 318/362/664 317/360/661
f 295/354/665 310/361/667 294/352/1115
f 303/355/668 318/362/670 302/353/649
f 295/354/671 312/365/673 311/363/1116
f 303/355/674 320/366/675 319/364/669
f 297/340/676 312/365/678 296/341/655
f 305/342/628 320/366/680 304/339/623
f 297/340/681 314/369/682 313/367/1117
f 305/342/628 322/370/684 321/368/1118
f 299/345/685 314/369/682 298/343/630
f 306/344/632 323/359/687 322/370/699
f 300/347/639 315/371/689 299/345/685
f 313/367/690 327/374/692 312/365/673
f 321/368/679 335/376/694 320/366/723
f 313/367/695 329/377/697 328/373/1119
f 321/368/698 337/378/700 336/375/693
f 315/371/701 329/377/703 314/369/682
f 323/359/687 322/370/684 337/378/704
f 316/372/706 330/379/708 315/371/701
f 316/372/706 332/385/712 331/381/1120
f 309/357/657 324/383/1121 325/386/713
f 317/360/661 333/387/715 332/385/712
f 310/361/663 326/388/716 325/386/1122
f 319/364/717 333/387/719 318/362/670
f 311/363/666 327/374/721 326/388/1123
f 319/364/722 335/376/724 334/389/718
f 331/381/725 347/390/727 346/403/1124
f 324/383/709 339/405/755 340/391/728
f 332/385/730 348/392/731 347/390/727
f 326/388/732 325/386/713 340/391/728
f 334/389/734 348/392/731 333/387/715
f 326/388/716 342/395/737 341/393/733
f 334/389/718 350/396/738 349/394/789
f 328/373/739 342/395/741 327/374/736
f 336/375/742 350/396/738 335/376/1125
f 328/373/739 344/399/744 343/397/1126
f 336/375/742 351/398/758 352/400/745
f 330/379/746 344/399/748 329/377/697
f 338/380/710 337/378/1127 352/400/749
f 331/381/751 345/401/753 330/379/1128
f 351/398/758 350/396/1129 365/407/759
f 343/397/761 358/423/808 359/409/762
f 351/398/758 366/408/760 367/410/764
f 345/401/765 344/399/1130 359/409/766
f 353/402/757 352/400/749 367/410/768
f 346/403/770 345/401/1131 360/411/767
f 346/403/773 361/413/1132 362/417/774
f 339/405/755 354/415/772 355/418/776
f 347/390/778 362/417/774 363/419/779
f 341/393/781 340/391/777 355/418/776
f 349/394/783 348/392/780 363/419/784
f 341/393/786 356/420/797 357/422/787
f 349/394/789 364/421/800 365/407/790
f 343/397/761 342/395/788 357/422/792
f 362/424/794 377/454/826 378/425/795
f 356/427/797 355/455/776 370/428/798
f 364/430/800 363/426/784 378/425/801
f 356/427/797 371/429/1133 372/432/803
f 364/430/805 379/431/848 380/434/806
f 358/436/808 357/433/804 372/432/803
f 366/438/810 365/435/1134 380/434/806
f 358/436/812 373/437/809 374/440/813
f 366/438/760 381/439/811 382/442/815
f 360/444/816 359/441/1135 374/440/817
f 367/443/764 382/442/815 383/446/819
f 361/448/820 360/444/1136 375/445/818
f 361/448/820 376/449/821 377/454/826
f 355/455/827 354/450/1137 369/452/828
f 381/439/811 396/472/1138 397/456/830
f 375/445/818 374/440/817 389/457/832
f 382/442/834 397/456/877 398/459/835
f 376/449/821 375/445/1139 390/458/836
f 376/449/821 391/460/1140 392/464/842
f 370/428/798 369/452/828 384/462/839
f 377/454/826 392/464/1141 393/466/844
f 371/429/799 370/428/798 385/465/846
f 379/431/848 378/425/845 393/466/849
f 371/429/851 386/467/847 387/469/852
f 379/431/854 394/468/850 395/470/855
f 373/437/809 372/432/853 387/469/852
f 381/439/858 380/434/856 395/470/855
f 373/437/809 388/471/873 389/457/860
f 386/467/847 385/465/846 400/473/861
f 394/468/863 393/466/891 408/475/864
f 386/467/847 401/474/905 402/477/866
f 394/468/850 409/476/1142 410/478/868
f 388/471/869 387/469/852 402/477/870
f 396/472/859 395/470/1143 410/478/868
f 388/471/873 403/479/917 404/481/874
f 396/472/859 411/480/872 412/482/876
f 390/458/878 389/457/875 404/481/879
f 398/459/881 397/456/877 412/482/882
f 391/460/837 390/458/878 405/483/884
f 391/460/837 406/485/1144 407/489/888
f 384/462/839 399/487/902 400/473/861
f 392/464/889 407/489/1145 408/475/864
f 405/483/892 404/481/879 419/490/893
f 412/482/882 427/506/1146 428/492/895
f 406/485/896 405/483/892 420/491/894
f 406/485/896 421/493/897 422/497/900
f 399/487/902 414/495/1147 415/498/903
f 407/489/901 422/497/900 423/499/904
f 401/474/905 400/473/861 415/498/903
f 409/476/907 408/475/864 423/499/908
f 401/474/905 416/500/906 417/502/910
f 409/476/907 424/501/921 425/503/911
f 403/479/912 402/477/870 417/502/913
f 411/480/872 410/478/868 425/503/915
f 403/479/917 418/504/1148 419/490/918
f 411/480/872 426/505/1149 427/506/920
f 424/501/921 423/499/908 438/507/922
f 416/500/906 431/523/950 432/509/924
f 424/501/921 439/508/923 440/510/925
f 418/504/914 417/502/1150 432/509/927
f 426/505/916 425/503/911 440/510/925
f 418/504/914 433/511/928 434/513/930
f 426/505/931 441/512/929 442/514/932
f 420/491/934 419/490/893 434/513/935
f 428/492/895 427/506/933 442/514/937
f 421/493/897 420/491/894 435/515/939
f 421/493/897 436/517/940 437/521/945
f 414/495/898 429/519/956 430/522/946
f 422/497/900 437/521/963 438/507/948
f 416/500/949 415/498/903 430/522/946
f 442/514/937 457/540/1151 458/524/951
f 436/517/953 435/515/980 450/525/954
f 436/517/953 451/526/955 452/530/959
f 430/522/946 429/519/1152 444/528/961
f 437/521/963 452/530/959 453/532/964
f 431/523/950 430/522/946 445/531/965
f 439/508/923 438/507/922 453/532/967
f 431/523/969 446/533/1008 447/535/970
f 439/508/923 454/534/968 455/536/971
f 433/511/972 432/509/1153 447/535/970
f 441/512/974 440/510/925 455/536/975
f 433/511/928 448/537/989 449/539/977
f 441/512/929 456/538/1154 457/540/979
f 435/515/980 434/513/935 449/539/977
f 446/533/981 461/556/1020 462/541/982
f 454/534/983 469/557/1155 470/542/984
f 448/537/973 447/535/1156 462/541/985
f 456/538/976 455/536/975 470/542/987
f 448/537/989 463/543/1157 464/545/990
f 456/538/976 471/544/1025 472/546/992
f 450/525/994 449/539/1158 464/545/995
f 458/524/951 457/540/1159 472/546/997
f 451/526/955 450/525/954 465/547/999
f 451/526/955 466/549/1000 467/553/1005
f 444/528/1001 459/551/1160 460/554/1006
f 452/530/959 467/553/1016 468/555/1007
f 446/533/1008 445/531/965 460/554/1009
f 454/534/1011 453/532/967 468/555/1007
f 466/549/1000 465/547/1161 3/4/4
f 466/549/1000 4/6/6 5/12/14
f 459/551/1013 474/7/1162 475/13/1017
f 467/553/1016 5/12/14 478/16/19
f 461/556/1020 460/554/1009 475/13/1021
f 468/555/1022 478/16/19 6/20/1023
f 462/541/982 461/556/1020 1/17/20
f 469/557/1024 6/20/24 479/23/27
f 463/543/986 462/541/985 476/21/25
f 471/544/1025 470/542/1163 479/23/27
f 464/545/995 463/543/1157 2/26/1026
f 471/544/1025 480/28/33 481/1/38
f 465/547/1028 464/545/1164 477/29/34
f 472/546/997 481/1/1165 482/3/1029
